<svg xmlns="http://www.w3.org/2000/svg" viewBox="0 0 43.48 30.01"><defs><style>.cls-1{fill:#a0c2cc;}</style></defs><g id="Layer_2" data-name="Layer 2"><g id="Layer_1-2" data-name="Layer 1"><path class="cls-1" d="M17.06,6.73c.22,2.93-4.31,3.27-4.53.35S16.84,3.81,17.06,6.73Z"/><path class="cls-1" d="M12,11.71c.22,2.91-4.32,3.26-4.54.34S11.8,8.78,12,11.71Z"/><path class="cls-1" d="M12.11,18.37c.22,2.92-4.32,3.27-4.54.34S11.89,15.45,12.11,18.37Z"/><path class="cls-1" d="M32.78,23.48c2.32,1.78-.44,5.4-2.77,3.62S30.45,21.7,32.78,23.48Z"/><path class="cls-1" d="M27.79,21.72c.23,2.92-4.32,3.27-4.54.35S27.57,18.8,27.79,21.72Z"/><path class="cls-1" d="M31.67,17.72c.22,2.91-4.32,3.27-4.55.34S31.44,14.79,31.67,17.72Z"/><path class="cls-1" d="M31,8.59c.23,2.92-4.32,3.28-4.54.35S30.75,5.67,31,8.59Z"/><path class="cls-1" d="M24.88,5.31c.22,2.91-4.28,3.26-4.5.34S24.66,2.38,24.88,5.31Z"/><path class="cls-1" d="M20.47,13.14c.22,2.93-4.28,3.28-4.5.35S20.25,10.22,20.47,13.14Z"/><path class="cls-1" d="M27.17,13.47c.22,2.92-4.32,3.27-4.55.35S26.94,10.55,27.17,13.47Z"/><path class="cls-1" d="M21,20.2c.23,2.92-4.27,3.27-4.49.34S20.78,17.28,21,20.2Z"/><path class="cls-1" d="M8.92,5.35c.22,2.91-4.28,3.26-4.5.34S8.7,2.42,8.92,5.35Z"/><path class="cls-1" d="M4.51,13.18c.22,2.92-4.28,3.27-4.5.34S4.28,10.26,4.51,13.18Z"/><path class="cls-1" d="M5,20.24c.22,2.92-4.27,3.27-4.5.34S4.82,17.32,5,20.24Z"/><path class="cls-1" d="M39.31,5.87c2.32,1.78-.44,5.4-2.77,3.62S37,4.08,39.31,5.87Z"/><path class="cls-1" d="M42.6,13.34c2.32,1.78-.44,5.4-2.77,3.62S40.27,11.56,42.6,13.34Z"/><path class="cls-1" d="M33.13.48c2.33,1.78-.44,5.4-2.77,3.62S30.8-1.3,33.13.48Z"/><path class="cls-1" d="M14.38,23.63c2.33,1.77-.44,5.4-2.77,3.61S12.05,21.84,14.38,23.63Z"/><path class="cls-1" d="M21.86,25.92c2.33,1.77-.44,5.39-2.77,3.61S19.53,24.13,21.86,25.92Z"/><path class="cls-1" d="M38.07,18.56c2.32,1.77-.41,5.36-2.74,3.58S35.73,16.77,38.07,18.56Z"/><path class="cls-1" d="M36.3,12.78c.22,2.92-4.32,3.26-4.54.34S36.08,9.85,36.3,12.78Z"/></g></g></svg>