<svg xmlns="http://www.w3.org/2000/svg" viewBox="0 0 154.25 104.36"><defs><style>.cls-1{fill:#c26629;}.cls-2{fill:#a0c2cc;}.cls-3{fill:#ecc575;}.cls-4{fill:#fff;}.cls-5{fill:#4a8380;}.cls-6{fill:none;stroke:#fd8e8e;stroke-miterlimit:10;stroke-width:1.02px;}.cls-7{fill:#fd8e8e;}</style></defs><g id="Layer_2" data-name="Layer 2"><g id="PATTERN"><path class="cls-1" d="M21.39,96.62C23.88,82.77,30.54,69,42.3,61.27s29.1-7.74,38.82,2.44c6,6.25,8.29,15,10.39,23.42.72,2.86,1.33,6.24-.62,8.46-1.44,1.65-3.81,2-6,2.31a326.69,326.69,0,0,1-63.15,1.69"/><path class="cls-2" d="M18.82,16.66q-.59,22.89-1.16,45.78c-.1,3.73-.05,7.86,2.46,10.61s6.59,3.17,10.29,3.43L51.3,77.93c3.61.25,7.59.39,10.45-1.83,3.41-2.63,3.89-7.5,4.09-11.8q.93-20,1.87-40c.09-2,.16-4.08-.83-5.79-1.6-2.77-5.24-3.46-8.42-3.75a148.35,148.35,0,0,0-38,1.36"/><path class="cls-3" d="M69.1,88.18c.93-3.82,5.75-3.32,8.45-2C81,87.92,83.51,91,87,92.58a11.21,11.21,0,0,0,9.71.23c2.54-1.25,4.43-3.47,6.34-5.49,1.66-1.75,3.65-3.86,6.27-2.82s4.32,3.52,6.38,5.13c2.22,1.72,4.79,2.86,7.65,2.4,3-.49,5.2-2.61,7.22-4.75,2.36-2.5,4.86-4.81,8.57-4.06,3.43.68,5.16,3.24,6.57,6.16,1.06,2.2,5,1.21,4.71-1.27-.71-6.82-8.57-10.66-14.85-9.52-3.49.63-5.86,3-8.33,5.37s-4.86,4.35-8,2.09c-2.57-1.81-4.47-4.46-7.34-5.88a8.88,8.88,0,0,0-8.83.48c-2.73,1.76-4.48,4.52-6.89,6.64-3.54,3.1-7.61,1.18-11.11-1.05s-7.24-5.17-11.64-5c-3.63.16-7.12,2.22-8,5.9-.58,2.41,3.14,3.44,3.72,1Z"/><path class="cls-3" d="M69.1,98.73c.93-3.83,5.75-3.32,8.45-2,3.42,1.71,6,4.74,9.45,6.37a11.18,11.18,0,0,0,9.71.22c2.54-1.25,4.43-3.46,6.34-5.48,1.66-1.75,3.65-3.87,6.27-2.82s4.32,3.51,6.38,5.12c2.22,1.73,4.79,2.87,7.65,2.4,3-.48,5.2-2.6,7.22-4.74,2.36-2.5,4.86-4.81,8.57-4.07,3.43.69,5.16,3.25,6.57,6.17,1.06,2.2,5,1.2,4.71-1.27-.71-6.82-8.57-10.66-14.85-9.52-3.49.63-5.86,3-8.33,5.37s-4.86,4.35-8,2.09c-2.57-1.82-4.47-4.46-7.34-5.88a8.86,8.86,0,0,0-8.83.48c-2.73,1.76-4.48,4.52-6.89,6.63-3.54,3.11-7.61,1.19-11.11-1s-7.24-5.17-11.64-5c-3.63.16-7.12,2.22-8,5.89-.58,2.42,3.14,3.45,3.72,1Z"/><path class="cls-4" d="M19.9,26.23a400.8,400.8,0,0,1,47.65-.13c1.13.06,1.11-1.65,0-1.74a335.32,335.32,0,0,0-47.65-.3c-1.39.08-1.4,2.25,0,2.17Z"/><path class="cls-4" d="M18,34.85a392.24,392.24,0,0,0,48.11,1.68,1.13,1.13,0,0,0,0-2.26c-16.06,0-32.06-.53-48.11-1.33-1.24-.06-1.2,1.79,0,1.91Z"/><path class="cls-4" d="M16.15,46.16c8.38-.46,16.82-.43,25.22-.61s16.84-.22,25.25,0a1.11,1.11,0,0,0,0-2.22c-8.42-.24-16.83-.27-25.25,0s-16.8,1.21-25.22,2.07c-.51,0-.53.84,0,.81Z"/><path class="cls-4" d="M16.14,54.6q12.87-.08,25.73.47c8.55.36,17.13,1.44,25.68,1.56,1.4,0,1.8-2.28.34-2.5-8.36-1.29-17.07-1.3-25.51-1.54q-13.12-.36-26.24-.06a1,1,0,0,0,0,2.07Z"/><path class="cls-4" d="M19.44,67.05c14.61-.21,29.27.13,43.85,1.19,1.59.11,1.58-2.37,0-2.48a313,313,0,0,0-43.85-.14.72.72,0,0,0,0,1.43Z"/><path class="cls-5" d="M89.32,34.74a55,55,0,0,1,31.46-11.37,52.61,52.61,0,0,1,17,2.2,47.82,47.82,0,0,1,8.12,3.34c2.26,1.18,4.45,3,7,3.3,1.08.12,1.67-1.25,1.19-2.08-1.4-2.45-4.7-3.66-7.17-4.76a64.49,64.49,0,0,0-8.29-3,56.43,56.43,0,0,0-18.28-2.14A55.15,55.15,0,0,0,88.07,33.13c-.88.74.32,2.32,1.25,1.61Z"/><path class="cls-5" d="M93.53,32.08c4.74-5.7,9.69-11.31,14.65-16.83.43-.48,1.74-1.44,1.83-2-.15-.44-.3-.89-.46-1.33l-1,1.09c-1.24,1.32-2.48,2.65-3.74,3.95-2.44,2.53-6,5.18-7.61,8.33a1.53,1.53,0,0,0,2.07,2.07c2.1-1.15,3.67-3.31,5.32-5,1.94-2,3.88-4.05,5.86-6,1.18-1.19,3-2.47,2.89-4.32a3.07,3.07,0,0,0-2.86-2.76c-1.9-.2-3.2,1.31-4.3,2.62-1.67,2-3.3,4-4.91,6.08C98,22.14,95.05,26.53,92.12,31c-.55.84.75,1.87,1.41,1.08Z"/><path class="cls-5" d="M104.43,26.71c7.49-5.39,13.67-12.57,23.29-14-.32-.74-.63-1.48-.94-2.22q-10,6.39-20,12.58c-1.11.69-.39,2.72.93,2.2,4.92-1.92,10.16-3,15.27-4.34s10.25-2.63,15.36-4c1.31-.35,5.88-2.25,7.12-1.27,2.3,1.83-2,2.25-2.61,2.33-1.29.18-2.59.34-3.88.48-5,.54-9.93.87-14.85,1.63-1.26.2-1,2.35.31,2.24,3.34-.28,6.66-.79,10-1.25s7-.6,10.31-1.33c1.54-.34,3.48-1.15,3.69-2.94a2.8,2.8,0,0,0-2.44-3c-2.36-.5-4.88.71-7.11,1.29-3.52.91-7.06,1.76-10.58,2.7-7,1.86-14,4.18-21.21,5.17.31.74.62,1.47.92,2.2q10-6.37,20.06-12.56c.93-.58.65-2.43-.62-2.27-9.66,1.23-18.07,8-23.58,15.74-.26.37.25.89.62.63Z"/><path class="cls-5" d="M107.57,25.63c6.91-.44,13.27,1.76,19,5.54l.29-2.24c-6.94,1.9-12-2.84-17.92-5.53a1.37,1.37,0,0,0-1.38,2.36,38.83,38.83,0,0,0,19.62,5.58,1.24,1.24,0,0,0,.87-2.09A24.56,24.56,0,0,0,107.35,24c-.92.16-.72,1.69.22,1.63Z"/><path class="cls-5" d="M133.17,24.25c6,2.1,10.28,7.16,12.5,13l1-1.82c-3.84.56-6.91-3-9.06-5.68s-4.19-6.22-7-8.36c-1.07-.8-2.21.71-1.7,1.7,1.09,2.11,3,3.82,4.58,5.56,1.38,1.51,2.74,3,4.2,4.47,2.57,2.53,5.37,4.57,9,5.16,1,.16,2.21-.64,1.82-1.82-2.3-6.89-8.18-11.47-15.08-13.22a.52.52,0,0,0-.27,1Z"/><path class="cls-5" d="M130.54,22c4.85-.84,9.69-1.47,14.52-2.43a2.76,2.76,0,0,0,2-2,2.45,2.45,0,0,0-.28-2.19,3,3,0,0,0-3.21-1.3c-4.76,1.14-9.39,2.61-14.12,3.87-2.64.71-1.5,4.48,1.11,4Z"/><path class="cls-5" d="M132.52,27.12a51,51,0,0,1,8.69,8.8c2.18,2.81,7.1-.94,5-3.83a27.2,27.2,0,0,0-10.68-8.81,2.5,2.5,0,0,0-3.16.63,2.43,2.43,0,0,0,.19,3.21Z"/><path class="cls-5" d="M111.48,26.87A52.42,52.42,0,0,0,125,32.68c3.57,1,5.1-4.74,1.52-5.51a84,84,0,0,1-13.44-4.09c-2.24-.89-3.54,2.61-1.6,3.79Z"/><path class="cls-5" d="M93.74,32.2c2.88.36,5.76.58,8.61,1.15,2.56.52,5.21,1.88,7.8,1.81,1.82,0,3.17-2.54,1.6-3.87-2.33-2-5.8-2.3-8.77-2.58a23.51,23.51,0,0,0-9.58,1,1.29,1.29,0,0,0,.34,2.53Z"/><path class="cls-6" d="M39,7.18C36.23-1,22.36-.57,16.06,2.67,6.86,7.41,6.33,18.33,4.62,27.15c-1.89,9.77-9.49,24.24,2.52,30.9,7.15,4,13.76-.07,17.78-5.88,4.82-7,3.14-15.83,7.86-22.62,2.3-3.31,6.63-4.94,8.35-8.79A12.9,12.9,0,0,0,39,7.18Z"/><path class="cls-7" d="M104.51,53.28c3.9,0,3.9-6.05,0-6.05s-3.9,6.05,0,6.05Z"/><path class="cls-7" d="M110.6,46.09c3.89,0,3.9-6.06,0-6.06s-3.91,6.06,0,6.06Z"/><path class="cls-7" d="M119.45,45.54c3.9,0,3.9-6.06,0-6.06s-3.9,6.06,0,6.06Z"/><path class="cls-7" d="M130,51.07c3.9,0,3.91-6.06,0-6.06s-3.9,6.06,0,6.06Z"/><path class="cls-7" d="M125.48,66c3.9,0,3.9-6.06,0-6.06s-3.9,6.06,0,6.06Z"/><path class="cls-7" d="M120.56,71.54c3.89,0,3.9-6.06,0-6.06s-3.91,6.06,0,6.06Z"/><path class="cls-7" d="M108.38,71.54c3.9,0,3.91-6.06,0-6.06s-3.9,6.06,0,6.06Z"/><path class="cls-7" d="M103.41,63.79c3.89,0,3.9-6,0-6s-3.91,6,0,6Z"/><path class="cls-7" d="M113.36,57.15c3.9,0,3.91-6,0-6s-3.9,6,0,6Z"/><path class="cls-7" d="M114.47,66c3.9,0,3.9-6.06,0-6.06s-3.9,6.06,0,6.06Z"/><path class="cls-7" d="M122.78,57.15c3.9,0,3.91-6,0-6s-3.9,6,0,6Z"/><path class="cls-7" d="M131.61,71.54c3.89,0,3.9-6.06,0-6.06s-3.91,6.06,0,6.06Z"/><path class="cls-7" d="M131.61,60.55c3.89,0,3.9-6,0-6s-3.91,6,0,6Z"/><path class="cls-7" d="M114.47,78.18c3.9,0,3.9-6.06,0-6.06s-3.9,6.06,0,6.06Z"/><path class="cls-7" d="M57,19.61c3.42-4.72,9-7.87,14.92-7.28a15.56,15.56,0,0,1,7.56,3c2.44,1.77,3.6,4.26,5.62,6.33s5.26-.1,4.74-2.76c-.68-3.45-4.24-6.62-7-8.48A20.62,20.62,0,0,0,71.9,7a20.05,20.05,0,0,0-18,10.77A1.81,1.81,0,0,0,57,19.61Z"/><path class="cls-7" d="M66.2,10.83a7.67,7.67,0,0,0-2,7.56,8,8,0,0,0,7.34,5.52c7,.54,11.21-7.62,7.76-13.38a3.43,3.43,0,0,0-3-1.73,3.51,3.51,0,0,0-3,1.73,3.55,3.55,0,0,0-.41,2.23,13.21,13.21,0,0,0,.63,1.7,1.84,1.84,0,0,1-.7,2.09c-2.15,1.24-4.22-1.58-3.45-3.89.6-1.83-1.86-3.11-3.15-1.83Z"/><path class="cls-7" d="M60.28,10.12a41.26,41.26,0,0,0-3-3.19C56,5.71,54.89,4.6,53.06,4.42s-2.72,1.7-2.39,3.13c.38,1.64,1.83,2.57,3.06,3.56a42.77,42.77,0,0,0,3.72,2.68,2.33,2.33,0,0,0,3-.6,2.37,2.37,0,0,0-.18-3.07Z"/><path class="cls-7" d="M66.23,2.34l.6,4.53c.19,1.45.2,3,1.12,4.19a1.74,1.74,0,0,0,3.13-.41c.47-1.45,0-2.87-.29-4.31s-.66-3-1-4.48c-.43-2-3.82-1.57-3.56.48Z"/><path class="cls-7" d="M78.88,1.85c-.88,1.27-1.75,2.54-2.63,3.8-.39.56-.83,1.11-1.18,1.69a3.29,3.29,0,0,0-.4,2.39A1.75,1.75,0,0,0,76.81,11c1.58-.46,2.19-1.92,3-3.23l2.36-4c1.25-2.11-1.89-3.86-3.26-1.9Z"/><path class="cls-7" d="M87.46,8.8c-1.29,1-2.6,2-3.87,3S80.72,15,82.28,16.57s3.59.18,4.84-.92,2.45-2.34,3.68-3.51A2.36,2.36,0,1,0,87.46,8.8Z"/></g></g></svg>