<svg xmlns="http://www.w3.org/2000/svg" xmlns:xlink="http://www.w3.org/1999/xlink" viewBox="0 0 154.3 104.4"><defs><style>.cls-1{fill:none;}.cls-2{isolation:isolate;}.cls-3{fill:#a0c2cc;}.cls-4{fill:#2e304b;}.cls-5{fill:#1d405f;}.cls-6{fill:#cdcdcd;}.cls-6,.cls-9{mix-blend-mode:multiply;}.cls-7{clip-path:url(#clip-path);}.cls-16,.cls-8{fill:#fff;}.cls-9{fill:#e7e7e7;}.cls-10{fill:#ff6e4b;}.cls-11{fill:#ffc675;}.cls-12{fill:#60b3f0;}.cls-13{fill:#c26629;}.cls-14{fill:#ecc575;}.cls-15{fill:#fd8e8e;}.cls-16{font-size:4.55px;font-family:PatuaOne-Regular, Patua One;}</style><clipPath id="clip-path"><rect class="cls-1" x="4.2" y="69.1" width="48.4" height="35.24" rx="2.7"/></clipPath></defs><g class="cls-2"><g id="Layer_1" data-name="Layer 1"><rect class="cls-3" x="29" width="110.1" height="79.51" rx="4.8"/><rect class="cls-4" x="36.1" y="6.8" width="96" height="65.91" rx="1.7"/><path class="cls-3" d="M142.5,86.7H25.7a5.9,5.9,0,0,1-6-6v-1a3.6,3.6,0,0,1,3.6-3.6H144.8a3.6,3.6,0,0,1,3.7,3.6v1A6,6,0,0,1,142.5,86.7Z"/><path class="cls-4" d="M93.8,79.5H74.3a2,2,0,0,1-1.9-1.9V76H95.8v1.6A2,2,0,0,1,93.8,79.5Z"/><path class="cls-5" d="M85.5,3.6A1.4,1.4,0,0,1,84.1,5a1.4,1.4,0,0,1-1.4-1.4,1.4,1.4,0,0,1,1.4-1.4A1.5,1.5,0,0,1,85.5,3.6Z"/><path class="cls-6" d="M130.4,6.8H37.8a1.7,1.7,0,0,0-1.7,1.7V12h96V8.5A1.8,1.8,0,0,0,130.4,6.8Z"/><g class="cls-7"><rect class="cls-8" x="4.2" y="69.1" width="48.4" height="35.24" rx="2.7"/><path class="cls-9" d="M49,76.7H8.1a1.5,1.5,0,0,1-1.5-1.4h0a1.5,1.5,0,0,1,1.5-1.5H49a1.5,1.5,0,0,1,1.4,1.5h0A1.4,1.4,0,0,1,49,76.7Z"/><path class="cls-10" d="M50.3,71.2a.6.6,0,0,1-1.2,0,.6.6,0,0,1,1.2,0Z"/><path class="cls-11" d="M47.9,71.2a.6.6,0,0,1-.6.6.6.6,0,0,1-.6-.6.6.6,0,0,1,.6-.6A.5.5,0,0,1,47.9,71.2Z"/><path class="cls-12" d="M45.6,71.2a.6.6,0,0,1-.6.6.6.6,0,0,1-.6-.6.5.5,0,0,1,.6-.6A.6.6,0,0,1,45.6,71.2Z"/><rect class="cls-13" x="8.8" y="79.3" width="14.3" height="11.94" rx="0.8"/><path class="cls-8" d="M10.5,89.9H16a.6.6,0,0,0,.5-.9l-2.8-4a.5.5,0,0,0-.9,0L10,89A.6.6,0,0,0,10.5,89.9Z"/><path class="cls-8" d="M15.7,89.9h5.6a.6.6,0,0,0,.4-.9l-2.8-4a.5.5,0,0,0-.9,0l-2.8,4A.6.6,0,0,0,15.7,89.9Z"/><path class="cls-8" d="M16.9,82.5a1.1,1.1,0,0,1-2.2,0,1.1,1.1,0,1,1,2.2,0Z"/><rect class="cls-14" x="8.8" y="93.9" width="14.3" height="11.94" rx="0.8"/><path class="cls-8" d="M19.2,99.8a3.4,3.4,0,1,1-3.4-3.4A3.5,3.5,0,0,1,19.2,99.8Z"/><path class="cls-14" d="M14.9,98.4v2.8a.3.3,0,0,0,.5.3l2.1-1.5c.2-.1.2-.3,0-.5l-2.1-1.4A.3.3,0,0,0,14.9,98.4Z"/><rect class="cls-15" x="26.5" y="101" width="21.7" height="11.94" rx="0.8"/><path class="cls-8" d="M38.4,104.1a1.1,1.1,0,0,1-1.1,1.1,1.1,1.1,0,0,1,0-2.2A1.1,1.1,0,0,1,38.4,104.1Z"/><path class="cls-3" d="M35.2,85.6H27.7a.5.5,0,1,1,0-1h7.5a.5.5,0,0,1,0,1Z"/><path class="cls-3" d="M35.2,88.1H27.7a.5.5,0,1,1,0-1h7.5a.5.5,0,0,1,0,1Z"/><path class="cls-3" d="M34.3,90.6H27.7a.5.5,0,1,1,0-1h6.6a.5.5,0,0,1,0,1Z"/><path class="cls-3" d="M35.2,93.1H27.7a.6.6,0,0,1-.6-.5.6.6,0,0,1,.6-.5h7.5a.5.5,0,0,1,.5.5A.5.5,0,0,1,35.2,93.1Z"/><path class="cls-3" d="M46.1,85.6H39.5a.5.5,0,0,1,0-1h6.6a.5.5,0,0,1,0,1Z"/><path class="cls-3" d="M47.1,88.1H39.5a.5.5,0,0,1,0-1h7.6a.5.5,0,0,1,0,1Z"/><path class="cls-3" d="M47.5,90.6h-8a.5.5,0,0,1,0-1h8a.5.5,0,0,1,0,1Z"/><path class="cls-3" d="M45.3,93.1H39.5a.5.5,0,0,1-.5-.5.5.5,0,0,1,.5-.5h5.8a.5.5,0,0,1,.5.5A.5.5,0,0,1,45.3,93.1Z"/><path class="cls-3" d="M34.3,95.7H27.7a.5.5,0,1,1,0-1h6.6a.5.5,0,0,1,0,1Z"/><path class="cls-3" d="M35.2,98.2H27.7a.6.6,0,1,1,0-1.1h7.5a.5.5,0,0,1,.5.5A.6.6,0,0,1,35.2,98.2Z"/><path class="cls-3" d="M47.5,95.7h-8a.5.5,0,1,1,0-1h8a.5.5,0,0,1,0,1Z"/><path class="cls-3" d="M42.3,98.2H39.5a.6.6,0,0,1-.5-.6.5.5,0,0,1,.5-.5h2.8a.5.5,0,0,1,.5.5A.6.6,0,0,1,42.3,98.2Z"/><rect class="cls-3" x="27.1" y="79.4" width="20.9" height="2.97" rx="0.7"/></g><rect class="cls-14" x="128.2" y="55.7" width="15.8" height="18.92" rx="0.8" transform="translate(52.4 190.6) rotate(-81.9)"/><path class="cls-8" d="M128,70.2l7.3,1a.7.7,0,0,0,.8-1l-2.9-5.9a.7.7,0,0,0-1.2-.2L127.6,69A.7.7,0,0,0,128,70.2Z"/><path class="cls-8" d="M134.9,71.2l7.2,1a.8.8,0,0,0,.8-1.1L140,65.3a.7.7,0,0,0-1.2-.2l-4.4,4.8A.8.8,0,0,0,134.9,71.2Z"/><path class="cls-8" d="M137.8,61.6a1.4,1.4,0,1,1-1.2-1.6A1.4,1.4,0,0,1,137.8,61.6Z"/><rect class="cls-15" x="120.3" y="65.6" width="18.9" height="15.77" rx="0.8" transform="translate(-16.8 46) rotate(-18.9)"/><path class="cls-8" d="M124.9,81.6l6.9-2.4a.8.8,0,0,0,.3-1.3L126.8,74a.7.7,0,0,0-1.1.4l-1.8,6.3A.8.8,0,0,0,124.9,81.6Z"/><path class="cls-8" d="M131.4,79.4l7-2.4a.8.8,0,0,0,.2-1.3l-5.2-3.9a.8.8,0,0,0-1.2.4l-1.7,6.3A.7.7,0,0,0,131.4,79.4Z"/><path class="cls-8" d="M129.7,69.5a1.4,1.4,0,1,1-1.8-.8A1.4,1.4,0,0,1,129.7,69.5Z"/><rect class="cls-13" x="130.6" y="61" width="15.8" height="18.92" rx="0.8" transform="translate(49.1 197.6) rotate(-81.9)"/><path class="cls-8" d="M130.4,75.5l7.3,1.1a.8.8,0,0,0,.8-1.1l-2.9-5.9a.8.8,0,0,0-1.2-.1L130,74.3A.7.7,0,0,0,130.4,75.5Z"/><path class="cls-8" d="M137.3,76.5l7.2,1.1c.6,0,1.1-.6.8-1.1l-2.9-5.9a.7.7,0,0,0-1.2-.2l-4.4,4.9A.7.7,0,0,0,137.3,76.5Z"/><path class="cls-8" d="M140.2,67a1.3,1.3,0,0,1-1.6,1.1,1.3,1.3,0,0,1-1.2-1.5,1.3,1.3,0,0,1,1.6-1.2A1.4,1.4,0,0,1,140.2,67Z"/><path class="cls-14" d="M140,73.1l-2.1,2.1h-17a2.4,2.4,0,0,0-2.4,2.4V95.3a2.4,2.4,0,0,0,2.4,2.4h26.8a2.4,2.4,0,0,0,2.4-2.4V74a1.3,1.3,0,0,0-1.4-1.3h-7.8A1.1,1.1,0,0,0,140,73.1Z"/><rect class="cls-8" x="140.4" y="93" width="7.3" height="2.34" rx="0.6"/><path class="cls-3" d="M73.1,53.5H95v-29a1.1,1.1,0,0,0-1-1.1H74.3a1.3,1.3,0,0,0-1.2,1.2Z"/><path class="cls-14" d="M88.3,46.3l-1.5,1.6H74.1a1.8,1.8,0,0,0-1.8,1.8V62.9a1.8,1.8,0,0,0,1.8,1.7H94a1.8,1.8,0,0,0,1.8-1.7V47a1,1,0,0,0-1-1H89A1.1,1.1,0,0,0,88.3,46.3Z"/><rect class="cls-8" x="88.4" y="61.3" width="5.4" height="1.74" rx="0.5"/><path class="cls-4" d="M82.3,29.9H76.7a.4.4,0,0,1-.4-.4c0-.2.2-.3.4-.3h5.6c.2,0,.4.1.4.3A.4.4,0,0,1,82.3,29.9Z"/><path class="cls-8" d="M83.4,31.8H79.8a.4.4,0,1,1,0-.8h3.6a.4.4,0,0,1,0,.8Z"/><path class="cls-8" d="M86.2,31.8H84.9c-.2,0-.3-.2-.3-.4s.1-.4.3-.4h1.3a.4.4,0,0,1,0,.8Z"/><path class="cls-8" d="M88.8,31.8H87.6a.4.4,0,1,1,0-.8h1.2a.4.4,0,1,1,0,.8Z"/><path class="cls-8" d="M87.4,35.4h-.6c-.3,0-.4-.1-.4-.3s.1-.4.4-.4h.6a.4.4,0,0,1,.4.4C87.8,35.3,87.6,35.4,87.4,35.4Z"/><path class="cls-8" d="M87.4,43h-.6c-.3,0-.4-.1-.4-.3s.1-.4.4-.4h.6a.4.4,0,0,1,.4.4C87.8,42.9,87.6,43,87.4,43Z"/><path class="cls-8" d="M89.4,43h-.7a.3.3,0,0,1-.3-.3c0-.3.1-.4.3-.4h.7a.4.4,0,0,1,.4.4C89.8,42.9,89.6,43,89.4,43Z"/><path class="cls-8" d="M86.5,33.6H81.6a.4.4,0,1,1,0-.8h4.9a.4.4,0,1,1,0,.8Z"/><path class="cls-8" d="M85.4,35.4H79.8c-.2,0-.4-.1-.4-.3a.4.4,0,0,1,.4-.4h5.6a.4.4,0,0,1,.4.4C85.8,35.3,85.6,35.4,85.4,35.4Z"/><path class="cls-8" d="M84.7,37.4H79.8a.4.4,0,1,1,0-.8h4.9a.4.4,0,0,1,0,.8Z"/><path class="cls-4" d="M82.3,39.2H76.7a.4.4,0,0,1-.4-.4c0-.2.2-.3.4-.3h5.6c.2,0,.4.1.4.3A.4.4,0,0,1,82.3,39.2Z"/><path class="cls-8" d="M85.5,41.2H79.8c-.2,0-.3-.2-.3-.4s.1-.4.3-.4h5.7a.4.4,0,1,1,0,.8Z"/><path class="cls-8" d="M85.5,43H79.8a.3.3,0,0,1-.3-.3c0-.3.1-.4.3-.4h5.7a.4.4,0,0,1,.4.4C85.9,42.9,85.7,43,85.5,43Z"/><path class="cls-8" d="M84.8,44.9h-5c-.2,0-.3-.2-.3-.4s.1-.4.3-.4h5c.2,0,.3.2.3.4S85,44.9,84.8,44.9Z"/><path class="cls-4" d="M82.3,46.7H76.7a.4.4,0,0,1-.4-.4c0-.2.2-.3.4-.3h5.6c.2,0,.4.1.4.3A.4.4,0,0,1,82.3,46.7Z"/><text class="cls-16" transform="translate(75 27.8)">&lt;</text></g></g></svg>