<svg xmlns="http://www.w3.org/2000/svg" viewBox="0 0 154.25 112.52"><defs><style>.cls-1{fill:#c26629;}.cls-2{fill:#a0c2cc;}.cls-3{fill:#ffdac7;}.cls-4{fill:#4a8380;}.cls-5{fill:#ecc575;}.cls-6{fill:none;stroke:#fd8e8e;stroke-miterlimit:10;stroke-width:1.02px;}.cls-7{fill:#fd8e8e;}</style></defs><g id="Layer_2" data-name="Layer 2"><g id="Layer_1-2" data-name="Layer 1"><path class="cls-1" d="M22,100.58c-.07-14.67,9.79-28.66,22-36.72s30.33-8.07,40.47,2.54C90.8,72.92,93.19,82,95.38,90.82c.75,3,1.38,6.51-.65,8.82-1.5,1.72-4,2.08-6.25,2.41a340.45,340.45,0,0,1-64.31,1.86,2.06,2.06,0,0,1-1.88-1.63A11.27,11.27,0,0,1,22,100.58Z"/><path class="cls-2" d="M69.65,75C58,75,58,74.34,46.39,74.34s-11.63.58-23.26.58c-3.11,0-5.55-3.27-5.55-6.37,0-10.23-.53-30.68-.53-40.91,0-3.1,3-6.3,6.08-6.3H69.65c3.1,0,5.57,3.2,5.57,6.3,0,10.23,0,10.32,0,20.55s.88,10.13.88,20.36C76.11,71.65,72.75,75,69.65,75Z"/><path class="cls-3" d="M66.44,55.42c-10.07,0-10.07.81-20.15.81s-10.08-.68-20.16-.68a4.22,4.22,0,0,1-4.08-4.18c0-10.23.4-10.23.4-20.45,0-2.22,1.47-3.49,3.68-3.49,10.08,0,10.08-1,20.16-1s10.08.5,20.15.5a3.73,3.73,0,0,1,3.7,4c0,10.22.66,10.22.66,20.45A4.35,4.35,0,0,1,66.44,55.42Z"/><path class="cls-4" d="M40.35,36.46c3.24,0,3.25-5.05,0-5.05S37.1,36.46,40.35,36.46Z"/><path class="cls-4" d="M126.71,13.3c.23,3.05-4.5,3.41-4.73.36S126.48,10.25,126.71,13.3Z"/><path class="cls-4" d="M121.45,18.48c.23,3-4.5,3.41-4.73.36S121.22,15.43,121.45,18.48Z"/><path class="cls-4" d="M121.55,25.43c.23,3.05-4.51,3.41-4.74.36S121.32,22.38,121.55,25.43Z"/><path class="cls-4" d="M143.09,30.76c2.43,1.86-.45,5.63-2.88,3.77S140.66,28.9,143.09,30.76Z"/><path class="cls-4" d="M137.9,28.92c.23,3-4.51,3.41-4.74.36S137.67,25.88,137.9,28.92Z"/><path class="cls-4" d="M141.94,24.75c.23,3-4.51,3.41-4.74.36S141.7,21.7,141.94,24.75Z"/><path class="cls-4" d="M141.21,15.24c.24,3-4.5,3.41-4.73.36S141,12.19,141.21,15.24Z"/><path class="cls-4" d="M134.86,11.82c.23,3-4.46,3.4-4.69.35S134.63,8.76,134.86,11.82Z"/><path class="cls-4" d="M130.26,20c.23,3.05-4.46,3.41-4.69.36S130,16.94,130.26,20Z"/><path class="cls-4" d="M137.24,20.32c.24,3.05-4.5,3.41-4.73.36S137,17.28,137.24,20.32Z"/><path class="cls-4" d="M130.82,27.34c.23,3.05-4.46,3.41-4.69.36S130.59,24.29,130.82,27.34Z"/><path class="cls-4" d="M118.22,11.85c.23,3-4.46,3.41-4.69.36S118,8.8,118.22,11.85Z"/><path class="cls-4" d="M113.62,20c.23,3.05-4.46,3.41-4.69.36S113.39,17,113.62,20Z"/><path class="cls-4" d="M114.18,27.38c.23,3.05-4.46,3.41-4.69.36S114,24.33,114.18,27.38Z"/><path class="cls-4" d="M149.9,12.4c2.42,1.85-.46,5.63-2.89,3.77S147.47,10.54,149.9,12.4Z"/><path class="cls-4" d="M153.34,20.19c2.42,1.85-.46,5.63-2.89,3.77S150.9,18.33,153.34,20.19Z"/><path class="cls-4" d="M143.47,6.78c2.42,1.85-.46,5.63-2.89,3.77S141,4.92,143.47,6.78Z"/><path class="cls-4" d="M123.92,30.91c2.42,1.85-.46,5.63-2.89,3.77S121.48,29.05,123.92,30.91Z"/><path class="cls-4" d="M131.72,33.3c2.42,1.85-.46,5.63-2.89,3.77S129.28,31.44,131.72,33.3Z"/><path class="cls-4" d="M148.61,25.63c2.42,1.85-.43,5.59-2.86,3.73S146.18,23.77,148.61,25.63Z"/><path class="cls-4" d="M146.77,19.6c.23,3-4.51,3.41-4.74.36S146.53,16.55,146.77,19.6Z"/><path class="cls-5" d="M55.81,20.43c3.57-4.92,9.38-8.2,15.55-7.59A16.35,16.35,0,0,1,79.25,16c2.54,1.84,3.75,4.44,5.85,6.6s5.49-.11,5-2.88c-.71-3.6-4.42-6.9-7.3-8.84A21.55,21.55,0,0,0,71.34,7.28,20.92,20.92,0,0,0,52.58,18.51a1.89,1.89,0,0,0,3.23,1.92Z"/><path class="cls-5" d="M65.4,11.28a8,8,0,0,0-2.08,7.88A8.31,8.31,0,0,0,71,24.91c7.3.57,11.68-7.94,8.09-13.95a3.58,3.58,0,0,0-3.13-1.8,3.56,3.56,0,0,0-3.55,4.13A12.52,12.52,0,0,0,73,15.06a1.91,1.91,0,0,1-.73,2.18c-2.24,1.29-4.4-1.65-3.59-4,.62-1.91-1.94-3.25-3.29-1.91Z"/><path class="cls-5" d="M59.23,10.54A41.08,41.08,0,0,0,56.1,7.21c-1.33-1.27-2.49-2.43-4.4-2.61s-2.83,1.77-2.49,3.26c.4,1.71,1.91,2.68,3.19,3.71a44.28,44.28,0,0,0,3.88,2.79,2.43,2.43,0,0,0,3.13-.62,2.47,2.47,0,0,0-.19-3.2Z"/><path class="cls-5" d="M65.43,2.43l.63,4.72c.2,1.51.21,3.13,1.17,4.37a1.81,1.81,0,0,0,2.5.56,1.83,1.83,0,0,0,.76-1c.49-1.51,0-3-.3-4.49s-.69-3.13-1-4.67C68.7-.16,65.16.29,65.43,2.43Z"/><path class="cls-5" d="M78.62,1.92l-2.74,4C75.47,6.46,75,7,74.65,7.64a3.45,3.45,0,0,0-.42,2.49,1.82,1.82,0,0,0,2.21,1.33h0c1.65-.47,2.28-2,3.13-3.36l2.46-4.17c1.3-2.2-2-4-3.4-2Z"/><path class="cls-5" d="M87.56,9.16c-1.34,1-2.71,2.09-4,3.13s-3,3.33-1.37,5,3.75.19,5-1,2.55-2.44,3.84-3.66a2.46,2.46,0,1,0-3.49-3.48Z"/><path class="cls-4" d="M22.6,49.72C23.66,46.16,31.29,37.63,33.27,38c2.55.43,9.32,9.46,10.45,10.75s7.4-14.53,10.55-14.53c1,0,16.15,10,16.43,14.49.15,2.45,1.07,7.81-1.6,7.9-8.69.31-38.19.49-43,.43C22.5,57,21.74,52.6,22.6,49.72Z"/><path class="cls-6" d="M40.64,7.47C37.75-1.06,23.29-.61,16.72,2.77,7.13,7.71,6.58,19.1,4.8,28.29c-2,10.19-9.9,25.27,2.62,32.21,7.46,4.17,14.35-.07,18.54-6.13,5-7.29,3.27-16.5,8.19-23.58,2.4-3.45,6.91-5.15,8.71-9.16A13.47,13.47,0,0,0,40.64,7.47Z"/><path class="cls-7" d="M99.13,59.57c-.78-.65-1.58-1.31-2.3-2a77.45,77.45,0,0,0,6.92-7.51,2.18,2.18,0,0,0-.35-3.17,2.55,2.55,0,0,0-3.62.34,68.62,68.62,0,0,1-8,8.32,2.48,2.48,0,0,0-.26,3.38c1.31,1.84,10.23,10.11,11.32,10.39a1.82,1.82,0,0,0,1.2-.25,2.59,2.59,0,0,0,1.29-1.64,2.14,2.14,0,0,0-.26-1.74A46,46,0,0,0,99.13,59.57Z"/><path class="cls-7" d="M136.36,57.93c-1.31-1.85-8.1-7.4-9.3-9.16a2.48,2.48,0,0,0-3.22-1,2.58,2.58,0,0,0-1.29,1.63,2.12,2.12,0,0,0,.27,1.75,26.19,26.19,0,0,0,4.87,5.2l1.08.91c.78.64,1.58,1.3,2.3,2a77.55,77.55,0,0,0-6.92,7.51,2.15,2.15,0,0,0-.39,2.17,2.61,2.61,0,0,0,2,1.56,1.15,1.15,0,0,0,.26,0,2.44,2.44,0,0,0,2.08-.93c2.36-2.93,5.05-5.28,8-8.33A2.56,2.56,0,0,0,136.36,57.93Z"/><path class="cls-7" d="M119.72,44.09a2.18,2.18,0,0,0-3.09.87h0c-1.18,2.11-7.5,17.44-8.44,20.42-.41,1.33-.83,2.65-1.27,4a2.32,2.32,0,0,0,.43,2.31,2.65,2.65,0,0,0,1.82.87,2.31,2.31,0,0,0,.64-.05,2.27,2.27,0,0,0,1.74-1.57c.43-1.29.85-2.6,1.27-3.9.9-2.81,6.94-17.64,7.94-19.45A2.52,2.52,0,0,0,119.72,44.09Z"/><path class="cls-5" d="M133.35,85.92a4.78,4.78,0,0,0-4.12-4.68,2.79,2.79,0,0,0-1.49-.22c-.22,0-.44,0-.67,0-3.17,0-4.72-.07-6.4-.15s-21.89-.14-23.62,0-5.88.63-8.94.63c-4.8,0-7.77,1.72-7.77,4.5s-.1,4.28,0,5.71a82.94,82.94,0,0,1,0,9.74c-.27,1.41,0,2.86,0,5.71,0,3.18,4,5.32,7.76,5.32,3.12,0,17.33-.08,18.94.09s16.88-.55,20-.55c4.45,0,6-2.62,6-4.86,0-2.48.45-7.85.45-10.65S133.35,88.45,133.35,85.92ZM90.84,96.5c-1.78,1.82-3.62,3.7-5.51,5.47a80.43,80.43,0,0,0,0-11.19,21.29,21.29,0,0,1-.47-4.21,2.56,2.56,0,0,0,.67.64,96.06,96.06,0,0,1,8.24,6.37C92.75,94.54,91.8,95.52,90.84,96.5Zm23.24-11.35c3.16,0,4.71.08,6.38.16l2,.08-1.1.83-1.55,1.2c-3.14,2.52-6.4,5-9.55,7.41q-.54.42-1.08.87c-.68.56-2.53,2.1-2.83,2.25-.69.09-2.17-1.51-2.8-2.19l-.53-.54a123,123,0,0,0-10.85-9.5C93.24,85.61,110.77,85.15,114.08,85.15Zm5.24,9.14,3.44-2.69,1.56-1.21a39.94,39.94,0,0,0,4.56-3.86c0,2.36.54,7.43.54,10a28.84,28.84,0,0,1-.37,5c-.07.5-.15,1-.21,1.52-1.41-1.12-2.77-2.34-4.09-3.53l-.36-.33-1.1-1A34.54,34.54,0,0,1,119.32,94.29Zm1.07,13.45c-1.63.13-23.92.73-25.55.55a53.78,53.78,0,0,0-6.73-.36,5.64,5.64,0,0,1-1.46-.2c2.74-2.38,5.33-5,7.83-7.58,1-1,2-2,3-3a37.1,37.1,0,0,0,4.84,4.36c2,1.45,4.33,2.5,7.13.43.56-.41,1.11-.85,1.66-1.28l1.13-.88,3-2.32a45.4,45.4,0,0,0,4.79,4.72l.75.67c1.74,1.57,3.54,3.18,5.44,4.65-2.8,0-4.35.15-5.84.27Z"/></g></g></svg>