<svg id="Layer_1" data-name="Layer 1" xmlns="http://www.w3.org/2000/svg" viewBox="0 0 80.67 92.44"><defs><style>.cls-1{fill:#c26629;}.cls-2{fill:#a0c2cc;}.cls-3{fill:#ffdac7;}.cls-4{fill:#4a8380;}.cls-5{fill:#ecc575;}.cls-6{fill:none;stroke:#fd8e8e;stroke-miterlimit:10;stroke-width:1.02px;}.cls-7{fill:#fd8e8e;}</style></defs><path class="cls-1" d="M20.84,84.9a1.74,1.74,0,0,1,2.85,2A1.74,1.74,0,0,1,20.84,84.9Z"/><path class="cls-1" d="M26.26,84.42a1.76,1.76,0,0,1,2.87,2A1.76,1.76,0,0,1,26.26,84.42Z"/><path class="cls-1" d="M29.47,80.43a1.75,1.75,0,0,1,2.86,2A1.75,1.75,0,0,1,29.47,80.43Z"/><path class="cls-1" d="M19.73,67.27a1.75,1.75,0,0,1,3.41-.79A1.75,1.75,0,0,1,19.73,67.27Z"/><path class="cls-1" d="M21.82,70.76a1.75,1.75,0,0,1,2.86,2A1.75,1.75,0,0,1,21.82,70.76Z"/><path class="cls-1" d="M17.56,71.23a1.75,1.75,0,0,1,2.86,2A1.75,1.75,0,0,1,17.56,71.23Z"/><path class="cls-1" d="M13.5,77a1.75,1.75,0,0,1,2.86,2A1.75,1.75,0,0,1,13.5,77Z"/><path class="cls-1" d="M15.51,81.91a1.73,1.73,0,0,1,2.83,2A1.73,1.73,0,0,1,15.51,81.91Z"/><path class="cls-1" d="M22,79.43a1.73,1.73,0,0,1,2.83,2A1.73,1.73,0,0,1,22,79.43Z"/><path class="cls-1" d="M18.15,76A1.75,1.75,0,0,1,21,78,1.75,1.75,0,0,1,18.15,76Z"/><path class="cls-1" d="M25.1,75a1.73,1.73,0,0,1,2.83,2A1.73,1.73,0,0,1,25.1,75Z"/><path class="cls-1" d="M25,89.71a1.73,1.73,0,0,1,2.83,2A1.73,1.73,0,0,1,25,89.71Z"/><path class="cls-1" d="M31.44,87.23a1.73,1.73,0,0,1,2.83,2A1.73,1.73,0,0,1,31.44,87.23Z"/><path class="cls-1" d="M34.58,82.78a1.73,1.73,0,0,1,2.83,2A1.73,1.73,0,0,1,34.58,82.78Z"/><path class="cls-1" d="M7.23,74.51a1.75,1.75,0,0,1,3.41-.78A1.75,1.75,0,0,1,7.23,74.51Z"/><path class="cls-1" d="M8.93,68.47a1.76,1.76,0,0,1,3.42-.79A1.76,1.76,0,0,1,8.93,68.47Z"/><path class="cls-1" d="M8.25,80.73a1.75,1.75,0,0,1,3.41-.79A1.75,1.75,0,0,1,8.25,80.73Z"/><path class="cls-1" d="M30.7,76.19a1.75,1.75,0,0,1,3.41-.78A1.75,1.75,0,0,1,30.7,76.19Z"/><path class="cls-1" d="M27.39,71.17a1.75,1.75,0,0,1,3.41-.78A1.75,1.75,0,0,1,27.39,71.17Z"/><path class="cls-1" d="M14.18,67.6a1.73,1.73,0,0,1,3.38-.78A1.73,1.73,0,0,1,14.18,67.6Z"/><path class="cls-1" d="M12.39,71.89a1.76,1.76,0,0,1,2.87,2A1.76,1.76,0,0,1,12.39,71.89Z"/><path class="cls-2" d="M64.39,69.56c-10.77,0-10.77-.64-21.55-.64s-10.78.53-21.56.53c-2.87,0-5.14-3-5.14-5.9,0-9.48-.49-28.43-.49-37.91,0-2.87,2.76-5.84,5.63-5.84H64.39c2.88,0,5.16,3,5.16,5.84,0,9.48,0,9.57,0,19s.82,9.39.82,18.87C70.38,66.42,67.27,69.56,64.39,69.56Z"/><path class="cls-3" d="M61.42,51.38c-9.34,0-9.34.75-18.68.75s-9.33-.63-18.67-.63a3.92,3.92,0,0,1-3.79-3.87c0-9.48.37-9.48.37-19a3.08,3.08,0,0,1,3.42-3.23c9.34,0,9.34-.93,18.67-.93s9.34.47,18.68.47a3.45,3.45,0,0,1,3.42,3.69c0,9.47.62,9.47.62,19A4,4,0,0,1,61.42,51.38Z"/><path class="cls-4" d="M37.24,33.81c3,0,3-4.67,0-4.67S34.23,33.81,37.24,33.81Z"/><path class="cls-5" d="M50.12,19.94a12.42,12.42,0,0,1,11-5.39,11.57,11.57,0,0,1,5.59,2.22c1.8,1.31,2.66,3.15,4.16,4.69s3.89-.08,3.5-2.05c-.5-2.55-3.13-4.89-5.18-6.27a15.24,15.24,0,0,0-8.09-2.53,14.83,14.83,0,0,0-13.31,8,1.34,1.34,0,0,0,2.29,1.36Z"/><path class="cls-5" d="M56.92,13.44A5.69,5.69,0,0,0,55.45,19a5.92,5.92,0,0,0,5.43,4.08c5.17.4,8.29-5.64,5.74-9.9a2.58,2.58,0,0,0-2.22-1.28,2.55,2.55,0,0,0-2.53,2.93,11.21,11.21,0,0,0,.47,1.26,1.37,1.37,0,0,1-.52,1.55c-1.59.91-3.12-1.17-2.55-2.88a1.41,1.41,0,0,0-2.33-1.36Z"/><path class="cls-5" d="M52.55,12.92a31,31,0,0,0-2.22-2.36A5.28,5.28,0,0,0,47.2,8.7,1.79,1.79,0,0,0,45.44,11c.28,1.21,1.35,1.9,2.26,2.63a31.38,31.38,0,0,0,2.75,2,1.72,1.72,0,0,0,2.22-.44,1.76,1.76,0,0,0-.13-2.27Z"/><path class="cls-5" d="M57,7.16l.44,3.35a6.09,6.09,0,0,0,.83,3.1,1.28,1.28,0,0,0,2.31-.3,6.2,6.2,0,0,0-.21-3.19c-.21-1.06-.49-2.22-.74-3.31C59.26,5.33,56.75,5.65,57,7.16Z"/><path class="cls-5" d="M66.3,6.8c-.65.94-1.29,1.88-1.94,2.81-.29.42-.61.82-.87,1.25a2.44,2.44,0,0,0-.3,1.77,1.29,1.29,0,0,0,1.57.94h0c1.17-.34,1.62-1.42,2.22-2.39l1.75-3c.92-1.56-1.4-2.85-2.41-1.4Z"/><path class="cls-5" d="M72.65,11.94c-1,.74-1.92,1.48-2.86,2.22s-2.12,2.37-1,3.53,2.66.13,3.58-.68,1.81-1.73,2.72-2.6a1.75,1.75,0,0,0-2.47-2.47Z"/><path class="cls-4" d="M20.79,46.1c1-3.3,8.06-11.2,9.89-10.9,2.37.4,8.64,8.77,9.68,10S47.22,31.7,50.14,31.7c.94,0,15,9.24,15.22,13.43.14,2.27,1,7.23-1.48,7.32-8.05.28-35.38.45-39.86.4C20.7,52.8,20,48.77,20.79,46.1Z"/><path class="cls-6" d="M37.51,7C34.83-.95,21.43-.53,15.35,2.6,6.46,7.18,6,17.72,4.3,26.24,2.47,35.68-4.87,49.66,6.73,56.09,13.64,60,20,56,23.91,50.41c4.65-6.76,3-15.29,7.59-21.85,2.22-3.2,6.4-4.77,8.06-8.49A12.46,12.46,0,0,0,37.51,7Z"/><path class="cls-7" d="M50.82,76.53c-.6-.49-1.21-1-1.76-1.54a59.17,59.17,0,0,0,5.29-5.74,1.67,1.67,0,0,0-.27-2.42,2,2,0,0,0-2.77.26,51.38,51.38,0,0,1-6.1,6.36A1.89,1.89,0,0,0,45,76c1,1.41,7.82,7.73,8.65,7.94a1.35,1.35,0,0,0,.92-.19,2,2,0,0,0,1-1.25,1.57,1.57,0,0,0-.2-1.33A34.6,34.6,0,0,0,50.82,76.53Z"/><path class="cls-7" d="M79.27,75.27c-1-1.4-6.19-5.65-7.11-7a1.89,1.89,0,0,0-2.46-.74,1.93,1.93,0,0,0-1,1.25,1.58,1.58,0,0,0,.2,1.33,20.23,20.23,0,0,0,3.72,4c.27.24.55.47.83.7a23.36,23.36,0,0,1,1.76,1.54,59,59,0,0,0-5.29,5.73,1.67,1.67,0,0,0-.3,1.66,2,2,0,0,0,1.55,1.2l.2,0A1.87,1.87,0,0,0,73,84.22c1.8-2.24,3.87-4,6.1-6.36A2,2,0,0,0,79.27,75.27Z"/><path class="cls-7" d="M66.56,64.7a1.68,1.68,0,0,0-2.37.66h0C63.29,67,58.46,78.69,57.74,81c-.31,1-.63,2-1,3a1.77,1.77,0,0,0,.33,1.76,2,2,0,0,0,1.88.64,1.77,1.77,0,0,0,1.33-1.21c.33-1,.65-2,1-3,.69-2.15,5.3-13.48,6.07-14.86A1.92,1.92,0,0,0,66.56,64.7Z"/></svg>