<svg xmlns="http://www.w3.org/2000/svg" xmlns:xlink="http://www.w3.org/1999/xlink" viewBox="0 0 167.4 104.4"><defs><style>.cls-1{fill:none;}.cls-2{isolation:isolate;}.cls-3{fill:#a0c2cc;}.cls-4{fill:#fff;}.cls-5{fill:#1d405f;}.cls-6{clip-path:url(#clip-path);}.cls-7{fill:#e7e7e7;mix-blend-mode:multiply;}.cls-8{fill:#ff6e4b;}.cls-9{fill:#ffc675;}.cls-10{fill:#60b3f0;}.cls-11{fill:#4a8380;}.cls-12{fill:#ecc575;}.cls-13{fill:#fd8e8e;}.cls-14{fill:#2e304b;}</style><clipPath id="clip-path"><rect class="cls-1" x="19.9" y="8.5" width="114" height="82.94" rx="6.3"/></clipPath></defs><g class="cls-2"><g id="Layer_1" data-name="Layer 1"><rect class="cls-3" x="11.2" y="0.4" width="131.5" height="94.92" rx="5.7"/><rect class="cls-4" x="19.6" y="8.5" width="114.6" height="78.68" rx="2"/><path class="cls-5" d="M78.6,4.7a1.7,1.7,0,0,1-1.7,1.7,1.7,1.7,0,0,1-1.6-1.7,1.6,1.6,0,0,1,1.6-1.6A1.6,1.6,0,0,1,78.6,4.7Z"/><path class="cls-4" d="M132.2,8.5H21.6a2,2,0,0,0-2,2v4.3H134.2V10.5A2,2,0,0,0,132.2,8.5Z"/><g class="cls-6"><rect class="cls-4" x="19.9" y="8.5" width="114" height="82.94" rx="6.3"/><path class="cls-7" d="M125.3,26.4H29.2A3.4,3.4,0,0,1,25.7,23h0a3.5,3.5,0,0,1,3.5-3.5h96.1a3.5,3.5,0,0,1,3.5,3.5h0A3.5,3.5,0,0,1,125.3,26.4Z"/><path class="cls-8" d="M128.5,13.4a1.4,1.4,0,0,1-1.4,1.3,1.3,1.3,0,0,1-1.4-1.3,1.4,1.4,0,0,1,1.4-1.4A1.4,1.4,0,0,1,128.5,13.4Z"/><path class="cls-9" d="M122.9,13.4a1.4,1.4,0,0,1-1.4,1.3,1.3,1.3,0,0,1-1.4-1.3,1.4,1.4,0,0,1,1.4-1.4A1.4,1.4,0,0,1,122.9,13.4Z"/><path class="cls-10" d="M117.3,13.4a1.4,1.4,0,0,1-2.8,0,1.4,1.4,0,1,1,2.8,0Z"/><rect class="cls-11" x="30.7" y="32.5" width="33.7" height="28.1" rx="1.8"/><path class="cls-4" d="M34.7,57.5H47.8a1.3,1.3,0,0,0,1.1-2.1l-6.5-9.6a1.3,1.3,0,0,0-2.2,0l-6.6,9.6A1.3,1.3,0,0,0,34.7,57.5Z"/><path class="cls-4" d="M47,57.5H60.1a1.3,1.3,0,0,0,1.1-2.1l-6.5-9.6a1.3,1.3,0,0,0-2.2,0l-6.6,9.6A1.3,1.3,0,0,0,47,57.5Z"/><path class="cls-4" d="M49.8,39.9a2.6,2.6,0,1,1-2.5-2.5A2.5,2.5,0,0,1,49.8,39.9Z"/><rect class="cls-12" x="30.7" y="66.8" width="33.7" height="28.1" rx="1.8"/><path class="cls-4" d="M55.3,80.8a8.1,8.1,0,1,1-8-8A8,8,0,0,1,55.3,80.8Z"/><path class="cls-12" d="M45.2,77.3v6.8a.7.7,0,0,0,1.1.5l4.9-3.3a.7.7,0,0,0,0-1.2l-4.9-3.3A.7.7,0,0,0,45.2,77.3Z"/><rect class="cls-13" x="72.5" y="83.5" width="51.1" height="28.1" rx="1.8"/><path class="cls-4" d="M85.3,108.5H98.4a1.3,1.3,0,0,0,1.1-2.1L93,96.8a1.3,1.3,0,0,0-2.2,0l-6.6,9.6A1.4,1.4,0,0,0,85.3,108.5Z"/><path class="cls-4" d="M97.6,108.5h13.1a1.3,1.3,0,0,0,1.1-2.1l-6.5-9.6a1.3,1.3,0,0,0-2.2,0l-6.6,9.6A1.4,1.4,0,0,0,97.6,108.5Z"/><path class="cls-4" d="M100.4,90.9a2.5,2.5,0,1,1-2.5-2.5A2.5,2.5,0,0,1,100.4,90.9Z"/><path class="cls-3" d="M93,47.4H75.1a1.2,1.2,0,1,1,0-2.4H93a1.2,1.2,0,0,1,0,2.4Z"/><path class="cls-3" d="M93,53.2H75.1A1.2,1.2,0,0,1,73.9,52a1.3,1.3,0,0,1,1.2-1.2H93A1.3,1.3,0,0,1,94.2,52,1.2,1.2,0,0,1,93,53.2Z"/><path class="cls-3" d="M90.7,59.1H75.1a1.3,1.3,0,0,1-1.2-1.2,1.2,1.2,0,0,1,1.2-1.2H90.7a1.2,1.2,0,0,1,1.2,1.2A1.2,1.2,0,0,1,90.7,59.1Z"/><path class="cls-3" d="M93,64.9H75.1a1.2,1.2,0,1,1,0-2.4H93a1.2,1.2,0,0,1,0,2.4Z"/><path class="cls-3" d="M118.6,47.4H103a1.2,1.2,0,0,1,0-2.4h15.6a1.2,1.2,0,1,1,0,2.4Z"/><path class="cls-3" d="M120.8,53.2H103a1.2,1.2,0,0,1-1.2-1.2,1.2,1.2,0,0,1,1.2-1.2h17.8A1.2,1.2,0,0,1,122,52,1.2,1.2,0,0,1,120.8,53.2Z"/><path class="cls-3" d="M121.9,59.1H103a1.2,1.2,0,0,1-1.2-1.2,1.2,1.2,0,0,1,1.2-1.2h18.9a1.2,1.2,0,0,1,1.2,1.2A1.2,1.2,0,0,1,121.9,59.1Z"/><path class="cls-3" d="M116.8,64.9H103a1.2,1.2,0,0,1,0-2.4h13.8a1.2,1.2,0,0,1,0,2.4Z"/><path class="cls-3" d="M90.7,71H75.1a1.2,1.2,0,0,1-1.2-1.2,1.3,1.3,0,0,1,1.2-1.2H90.7a1.2,1.2,0,0,1,1.2,1.2A1.2,1.2,0,0,1,90.7,71Z"/><path class="cls-3" d="M93,76.9H75.1a1.3,1.3,0,0,1-1.2-1.2,1.2,1.2,0,0,1,1.2-1.2H93a1.2,1.2,0,0,1,1.2,1.2A1.3,1.3,0,0,1,93,76.9Z"/><path class="cls-3" d="M121.9,71H103a1.2,1.2,0,0,1-1.2-1.2,1.2,1.2,0,0,1,1.2-1.2h18.9a1.2,1.2,0,0,1,1.2,1.2A1.2,1.2,0,0,1,121.9,71Z"/><path class="cls-3" d="M109.6,76.9H103a1.2,1.2,0,0,1-1.2-1.2,1.2,1.2,0,0,1,1.2-1.2h6.6a1.2,1.2,0,0,1,1.2,1.2A1.2,1.2,0,0,1,109.6,76.9Z"/><rect class="cls-3" x="73.9" y="32.7" width="49.2" height="7" rx="1.7"/></g><path class="cls-3" d="M146.7,104H7.2A7.2,7.2,0,0,1,0,96.8V95.6a4.4,4.4,0,0,1,4.4-4.4H149.5a4.4,4.4,0,0,1,4.3,4.4v1.2A7.2,7.2,0,0,1,146.7,104Z"/><path class="cls-14" d="M88.6,95.3H65.3A2.3,2.3,0,0,1,63,93V91.2H90.9V93A2.3,2.3,0,0,1,88.6,95.3Z"/><rect class="cls-12" x="141.2" y="48.7" width="18.8" height="22.59" rx="0.9" transform="translate(70 200.6) rotate(-81.9)"/><path class="cls-4" d="M141.1,66l8.7,1.3a.9.9,0,0,0,.9-1.3l-3.5-7a.8.8,0,0,0-1.4-.2l-5.3,5.8A.8.8,0,0,0,141.1,66Z"/><path class="cls-4" d="M149.2,67.2l8.7,1.2a.8.8,0,0,0,.9-1.2l-3.4-7a1,1,0,0,0-1.5-.3l-5.2,5.8A.9.9,0,0,0,149.2,67.2Z"/><path class="cls-4" d="M152.7,55.8a1.6,1.6,0,0,1-1.9,1.4,1.7,1.7,0,0,1,.5-3.3A1.6,1.6,0,0,1,152.7,55.8Z"/><rect class="cls-13" x="131.8" y="60.5" width="22.6" height="18.82" rx="0.9" transform="translate(-14.9 50.1) rotate(-18.9)"/><path class="cls-4" d="M137.3,79.7l8.3-2.9a.9.9,0,0,0,.3-1.5l-6.3-4.7a.9.9,0,0,0-1.4.5l-2,7.5A.9.9,0,0,0,137.3,79.7Z"/><path class="cls-4" d="M145.1,77l8.3-2.8a1,1,0,0,0,.3-1.6l-6.3-4.7a.9.9,0,0,0-1.4.5l-2,7.5A.9.9,0,0,0,145.1,77Z"/><path class="cls-4" d="M143,65.2a1.7,1.7,0,0,1-1,2.2,1.6,1.6,0,0,1-2.1-1.1,1.6,1.6,0,0,1,1-2.1A1.7,1.7,0,0,1,143,65.2Z"/><rect class="cls-11" x="144.1" y="55" width="18.8" height="22.59" rx="0.9" transform="translate(66.1 208.9) rotate(-81.9)"/><path class="cls-4" d="M143.9,72.4l8.7,1.2a.8.8,0,0,0,.9-1.2l-3.4-7a.9.9,0,0,0-1.5-.2l-5.2,5.7A.9.9,0,0,0,143.9,72.4Z"/><path class="cls-4" d="M152.1,73.6l8.7,1.2a.9.9,0,0,0,.9-1.3l-3.4-7a1,1,0,0,0-1.5-.2l-5.3,5.8A1,1,0,0,0,152.1,73.6Z"/><path class="cls-4" d="M155.6,62.2a1.7,1.7,0,0,1-1.9,1.4,1.6,1.6,0,0,1-1.4-1.9,1.6,1.6,0,0,1,1.9-1.4A1.6,1.6,0,0,1,155.6,62.2Z"/><path class="cls-12" d="M155.3,69.5,152.9,72H132.5a2.9,2.9,0,0,0-2.9,2.9V96a2.8,2.8,0,0,0,2.9,2.8h32a2.8,2.8,0,0,0,2.9-2.8V70.6a1.6,1.6,0,0,0-1.6-1.6h-9.4A1.6,1.6,0,0,0,155.3,69.5Z"/><rect class="cls-4" x="155.8" y="93.3" width="8.7" height="2.79" rx="0.8"/></g></g></svg>