<svg xmlns="http://www.w3.org/2000/svg" viewBox="0 0 999.85 751.15"><defs><style>.cls-1{fill:#90c2cd;}.cls-2{fill:#008380;}.cls-3{fill:#fff;}</style></defs><g id="Layer_2" data-name="Layer 2"><g id="Layer_1-2" data-name="Layer 1"><path class="cls-1" d="M668.9,353c-7.15-24.14-22.67-44-41.28-60.54-22.42-19.91-49.32-35.39-75.89-49.06C522.81,228.54,492,217,459.8,211.56,404,202.11,343,213.92,300.56,253a15.87,15.87,0,0,0-3.07,3.82,14.13,14.13,0,0,0-5.72,3.14c-39,34-62.68,80.12-77.28,129.2C199.64,439.09,188,493.5,187.57,545.76,187.13,596.83,202.4,644.2,241,679c35.49,32,82.88,47.78,128.43,58.94,50.67,12.41,107.7,24.18,154.94-4.91,45.18-27.81,72-81.94,93.63-128.42a648.82,648.82,0,0,0,51.88-168.77C674.36,408.47,676.89,380,668.9,353Z"/><path class="cls-2" d="M489.6,10c-24,7.71-46.6,21.94-60.46,43.45-14.83,23-10.28,52.21-26.76,74.18-15.19,20.25-38.15,33.07-54.63,52.18C332.13,197.88,322.16,220,327,243.22c-10,45.83,15.83,87.73,59.07,103.67,53.81,16.2,96.76,32.84,139.76,70.75C682,566.93,792,437.85,809.29,265.15c10.18-69.78-19.37-95.64-58.51-146.87C704.11,49,664.56-3.88,572.78.22,545,.1,516.2,1.42,489.6,10Z"/><path class="cls-3" d="M270.52,551.58q0,4-48.39,4t-48.39-5.1V385.76q0-28.29-18.67-28.3-9.63,0-25.47,12.45V551q0,5.65-48.39,5.66t-48.38-6.23V365.38H18.68Q0,365.38,0,326.33a101.06,101.06,0,0,1,6.79-35.65q9-24.9,29.43-24.9a78.77,78.77,0,0,1,39.33,10.75q19,10.75,22.92,20.37,35.09-31.11,77.82-31.12t68.76,26.6q30.56-26.6,73.57-26.6,93.39,0,93.38,113.75V551.58q0,4-48.38,4t-48.39-5.1V385.76q0-28.29-18.68-28.3-10.19,0-26,12.45Z"/><path class="cls-3" d="M716.47,551.58q0,4-48.38,4t-48.39-5.1V385.76q0-28.29-18.68-28.3-9.63,0-25.47,12.45V551q0,5.65-48.38,5.66t-48.39-6.23V365.38H464.63q-18.67,0-18.67-39.05a101.06,101.06,0,0,1,6.79-35.65q9-24.9,29.43-24.9a78.8,78.8,0,0,1,39.33,10.75q18.94,10.75,22.92,20.37,35.09-31.11,77.82-31.12T691,292.38q30.56-26.6,73.57-26.6,93.38,0,93.38,113.75V551.58q0,4-48.39,4t-48.39-5.1V385.76q0-28.29-18.67-28.3-10.18,0-26,12.45Z"/><path class="cls-2" d="M999.85,556.1q0,4-53.48,4t-53.49-3.4V454.8q0-5.08,53.49-5.09t53.48,2.83Z"/></g></g></svg>