<svg xmlns="http://www.w3.org/2000/svg" viewBox="0 0 51.37 31.44"><defs><style>.cls-1{fill:#ecc575;}</style></defs><g id="Layer_2" data-name="Layer 2"><g id="Layer_1-2" data-name="Layer 1"><path class="cls-1" d="M51.1,10.22l-.5,0h0l.5-.06a39.94,39.94,0,0,1-.25-4.85,4.59,4.59,0,0,0-4-4.49A2.75,2.75,0,0,0,45.47.66l-.65,0c-3,0-4.52-.07-6.13-.15S35.53.34,32.37.34,27.83.26,26.25.17,23.08,0,19.91,0a34.57,34.57,0,0,0-6.59.55,29.48,29.48,0,0,1-5.86.5C2.86,1.05,0,2.7,0,5.36a24.93,24.93,0,0,0,.53,5.48A21.14,21.14,0,0,1,1,15.51a21.18,21.18,0,0,1-.45,4.68A24.9,24.9,0,0,0,0,25.66c0,3.05,3.85,5.1,7.45,5.1a46.7,46.7,0,0,1,6,.33,52,52,0,0,0,6.46.35,56.14,56.14,0,0,0,6.44-.32,53.13,53.13,0,0,1,6-.29,63.88,63.88,0,0,0,6.42-.27c1.56-.12,3-.24,6-.24,4.28,0,5.8-2.51,5.8-4.66A28,28,0,0,1,51,20.9a31.29,31.29,0,0,0,.4-5.39A45.56,45.56,0,0,0,51.1,10.22Zm-41,5.29c-1.72,1.75-3.48,3.55-5.29,5.25a25,25,0,0,0,.48-5.25A24.93,24.93,0,0,0,4.74,10a20.7,20.7,0,0,1-.45-4,2.66,2.66,0,0,0,.64.61,93.48,93.48,0,0,1,7.91,6.11C11.91,13.63,11,14.57,10.08,15.51ZM19.91,4.29c3,0,4.52.08,6.11.16s3.17.18,6.35.18,4.51.07,6.12.14l1.88.08-1,.8c-.53.4-1,.79-1.49,1.15-3,2.41-6.14,4.8-9.16,7.11-.35.26-.69.55-1,.83a19.16,19.16,0,0,1-2,1.52,2.41,2.41,0,0,0-.39.35c-.1.09-.29.27-.3.29-.65.09-2.08-1.45-2.69-2.09l-.5-.53A115.09,115.09,0,0,0,11.31,5.17c1.06-.11,1.91-.25,2.73-.39A30.41,30.41,0,0,1,19.91,4.29Zm17.48,9.1c1.11-.85,2.21-1.71,3.31-2.58.48-.39,1-.77,1.49-1.16A38.67,38.67,0,0,0,46.56,6a44.73,44.73,0,0,0,.27,4.7,40.14,40.14,0,0,1,.25,4.86,27.83,27.83,0,0,1-.35,4.76c-.07.49-.14,1-.2,1.47-1.35-1.08-2.66-2.25-3.92-3.39L42.26,18,41.2,17.1A35.21,35.21,0,0,1,37.39,13.39Zm1,12.9c-1.56.13-3,.25-6.05.25a56.49,56.49,0,0,0-6.45.32,53.06,53.06,0,0,1-6,.29,47.14,47.14,0,0,1-6-.33,52.41,52.41,0,0,0-6.45-.34,5.33,5.33,0,0,1-1.41-.2C8.69,24,11.17,21.47,13.57,19c.95-1,1.9-1.94,2.86-2.9a36.22,36.22,0,0,0,4.65,4.18c2,1.38,4.16,2.4,6.84.41.54-.4,1.06-.81,1.59-1.23.36-.28.72-.57,1.08-.84l2.9-2.23a42.66,42.66,0,0,0,4.59,4.53l.72.64C40.48,23.08,42.2,24.63,44,26c-2.69,0-4.17.15-5.6.26l0,.5h0Z"/></g></g></svg>