<svg id="Layer_1" data-name="Layer 1" xmlns="http://www.w3.org/2000/svg" viewBox="0 0 1920 1080"><defs><style>.cls-1{opacity:0.1;}.cls-2{fill:#2e304b;}</style></defs><g class="cls-1"><path class="cls-2" d="M61.6,34.2C17,34.2-22,27.8-56.6,14.8l-.6-.2h.6c40.5-3.9,82-6.4,122.1-8.8C139.3,1.2,215.7-3.5,289.4-17,342.6-26.8,390-48.3,435.7-69.1c33-14.9,67.1-30.4,103.2-41.4a157.1,157.1,0,0,1,41.6-7.3,126.6,126.6,0,0,1,34.7,3.9c21.3,5.4,39.9,16,58,26.3l2,1.2,5.4,1.7h.1l6.8,5.1c23,12.5,47.8,23.4,80,23.4h.2a71.2,71.2,0,0,0,16.3-2,77.4,77.4,0,0,0,10.1-9.8h.1c21.1-2.6,31-7.6,39.7-12,6.2-3.2,12-6.1,21-8,19-8,38.8-14.1,60.3-13.1,33.5,1.5,65.2,12.2,96,22.5,14.1,4.8,28.7,9.7,43.3,13.6,98,26.6,202.6,19.6,307.2,3.5l19.5-6.5c34.9-11.7,71-23.9,108.5-29.4,30-4.4,60.5-4,90.2-3.1,37.7-6.3,75.3-11.6,111.6-14.6,52.6-4.3,104.1-21.4,153.9-38,57.6-19.1,117.1-38.9,178.3-38.9h1.5c30.8.2,56.8,4,79.7,11.9a166.4,166.4,0,0,1,56.5,32.5c32,27.9,55.4,67.8,82.5,114.1l6.2,10.6v.2h-.2c-26.2-1-41.8-4.6-50.5-11.9s-10.4-17-13-29.8c-2.9-14.6-6.7-32.7-20.9-54.9-16.1-25-34.6-41.3-58-51.3s-50.9-12.7-76.5-14c-30.2-1.5-63.1,2.3-100.6,11.4-33.3,8.2-67.1,19.9-99.8,31.1-50.1,17.3-101.9,35.2-153,40.8-29.4,3.2-59.3,2.3-88.3,1.4l-9.5-.3c-31.8,5.3-63.7,11.3-95.1,17.2-40.7,7.7-81.9,15.4-123,21.8-19.3,6.3-39.1,12.5-59,17.1-69.7,16.2-140.2,18.4-215.5,6.6-29.3-4.5-58.5-14.9-86.7-24.9C966.9-74.3,931.9-86.7,896.8-89c-20-1.4-32.6-.6-41.9,1.3-8.4,3.6-16.7,7.6-24.9,11.5-15.9,7.6-31.1,15-45.9,18.4-12.8,10-28.2,14.2-45.8,12.4h-.1c-17.4-10.4-34.4-21.8-50.8-33.9-4.2-2.2-8.2-4.5-12.3-6.9-9.1-3-17.3-6.1-25.3-9.1-30.3-11.4-54.2-20.5-95.9-12.6S469.2-78.2,429.1-57.5c-37,19.1-75.3,38.9-115.6,48.8L297.1-4.6C242.5,9,180.6,24.4,119.8,30.9A543.7,543.7,0,0,1,61.6,34.2ZM-55.9,14.8C-7.1,32.9,50.4,38.1,119.8,30.6,180.6,24.1,242.5,8.7,297.1-4.9L313.5-9C353.7-18.9,392-38.7,429-57.8c40.1-20.7,81.6-42.1,124.9-50.3,41.7-8,65.7,1.1,96,12.5,7.6,2.9,15.3,5.8,23.9,8.7l-.8-.4c-18-10.3-36.6-20.9-57.9-26.3-23.8-6.1-48.7-5-76.1,3.4-36.1,11-70.2,26.5-103.2,41.4C390.1-48,342.7-26.5,289.4-16.7,215.7-3.2,139.4,1.5,65.5,6,25.6,8.4-15.7,10.9-55.9,14.8Zm2073.8-200q6.8,0,13.2.3c25.7,1.3,52.7,3.9,76.6,14s42,26.4,58.1,51.5c14.3,22.1,18,40.3,21,55,2.6,12.7,4.7,22.7,12.9,29.6s24,10.8,50,11.8l-6.1-10.4c-27-46.2-50.4-86.1-82.4-114a167.3,167.3,0,0,0-56.4-32.4c-22.8-7.9-48.9-11.8-79.6-11.9h-1.5c-61.2,0-120.7,19.8-178.2,38.9-49.8,16.6-101.4,33.7-154,38-35.8,2.9-72.9,8.1-110.1,14.3l8,.3c29,.9,58.9,1.8,88.2-1.4,51.1-5.6,102.9-23.5,153-40.7,32.7-11.3,66.5-23,99.9-31.2S1991.3-185.2,2017.9-185.2ZM878.7-90c5.3,0,11.3.2,18.2.7,35.1,2.3,70,14.7,103.8,26.7,28.2,9.9,57.4,20.3,86.7,24.9,75.3,11.7,145.7,9.5,215.3-6.7,19.4-4.5,38.6-10.4,57.4-16.6-54,8.3-107.9,14.1-160.8,14.1-49.4,0-97.9-5-144.9-17.8-14.6-4-29.2-8.9-43.3-13.6-30.7-10.3-62.5-21-95.9-22.5-20.9-1-40.3,4.8-58.9,12.5A130.9,130.9,0,0,1,878.7-90ZM738.3-45.7c11.3,1.2,21.7-.1,31-3.8a60.5,60.5,0,0,0,14.1-8.1,78,78,0,0,1-15.7,1.8h-.2c-31.4,0-55.7-10.3-78.2-22.4C705.1-66.7,721.6-55.7,738.3-45.7Zm56-22a72.3,72.3,0,0,1-9.7,9.5c14.6-3.5,29.6-10.7,45.3-18.3,7.7-3.7,15.6-7.4,23.5-10.9-8.1,1.9-13.5,4.7-19.4,7.6C825.3-75.4,815.4-70.4,794.3-67.7Zm753.8-33.1a406.7,406.7,0,0,0-58.3,3.7c-37.5,5.5-73.6,17.6-108.5,29.4l-17.8,5.9c40.6-6.3,81.1-13.9,121.2-21.5,31-5.8,62.4-11.7,93.6-17C1568.3-100.5,1558.2-100.8,1548.1-100.8ZM676.5-85.7l9.1,5.1-5.1-3.8Z"/><path class="cls-2" d="M82.1,68.2A446.2,446.2,0,0,1,9.9,62.6c-29.1-4.9-56.5-13-81.3-24.2l-.9-.4h1c61.4,8.4,126.7,10,194.2,4.9,65.8-5.1,131.9-16.7,191.2-33.8,39.9-11.5,78-32.5,114.8-52.7,39.2-21.6,79.7-44,121.8-54.1,48-11.6,68.5-1.8,102.4,14.3,7,3.4,14.3,6.8,22.6,10.5,28.2,12.4,40.9,22.1,50.2,29.2s13.2,10,23.4,11.1,24.5-.3,55.4-5.1C909-53.9,978.1-53.5,1089.2-36.2a745.5,745.5,0,0,0,101.4,8.5,904.8,904.8,0,0,0,98.2-3.9c64.7-5.8,127-17,192.9-28.9,63.9-11.5,129.9-23.4,198.7-30.1,57.6-5.6,112-23.5,164.7-40.9,49-16.1,99.5-32.8,151.9-39.2,46.1-5.6,82.6,1.1,115,21,29,17.9,51.5,44.6,75.4,72.8,20.7,24.5,42,49.7,69.6,72.2,4.3,3.2,8.7,6.6,13.4,10.3l-.2.2c-4.6-3.3-9.1-6.8-13.4-10.3-11.2-8.4-21.1-15.2-30.1-21.4-20.4-14.1-38-26.2-60.5-49.3-7.6-7.7-13.5-16.1-19.3-24.2-9.8-13.9-19.1-27-35.9-37.2-72.9-44.2-168.2-13.2-252.2,14.3-30.4,9.9-59.1,19.3-85.1,24.6-46,9.4-93.2,14-138.9,18.5-53.1,5.1-107.9,10.5-161.3,23.4-38.3,9.3-75.9,20.6-112.3,31.4-63.7,19.1-129.5,38.8-198.8,47.5-30.4,3.8-61.5,9.1-91.6,14.2-59.2,10-120.3,20.4-180.4,20.4h-2.5a488.7,488.7,0,0,1-77.5-6.2C782.9,47,757.6,40,735.3,30.7,715.6,22.6,695,6.8,675-8.4,651.8-26.2,627.8-44.6,605.3-51c-28.6-8.2-63.6-6.2-106.9,6.2C460.2-33.9,420.2-16.5,381.7.4c-42.3,18.4-82.1,35.8-117.1,43.7-30.9,6.9-58.2,12.2-83.4,16a691.5,691.5,0,0,1-86,8ZM-70.3,38.5A328,328,0,0,0,9.9,62.3c26.3,4.4,55,6.2,85.3,5.5,63.6-1.6,127.1-14.5,169.3-24,35-7.9,74.8-25.3,117-43.7,38.6-16.9,78.6-34.3,116.8-45.2,43.4-12.4,78.4-14.4,107.1-6.2C628-44.8,652-26.5,675.2-8.7c20,15.3,40.6,31.1,60.2,39.2,22.3,9.2,47.6,16.2,75,20.7a488.7,488.7,0,0,0,77.5,6.2h2.5c60,0,121.2-10.4,180.4-20.4,30.1-5.1,61.2-10.4,91.5-14.2,69.3-8.6,135.2-28.4,198.9-47.4,36.3-10.9,73.9-22.2,112.2-31.5,53.4-12.9,108.3-18.3,161.4-23.4,45.6-4.5,92.9-9.1,138.9-18.5,25.9-5.3,54.6-14.7,85-24.6,84.1-27.4,179.4-58.6,252.4-14.3,16.9,10.3,26.2,23.4,36.1,37.3,5.7,8.1,11.6,16.5,19.2,24.2,22.5,23,40.1,35.2,60.5,49.2,7.8,5.4,16.3,11.3,25.7,18.2-25.6-21.6-45.8-45.5-65.4-68.7-48.1-56.9-89.6-106-190.2-93.7-52.3,6.4-102.9,23.1-151.8,39.2-52.7,17.4-107.2,35.3-164.8,40.9-68.8,6.7-134.8,18.6-198.6,30.1-66,11.9-128.3,23.1-193,28.9a904.8,904.8,0,0,1-98.2,3.9A732.5,732.5,0,0,1,1089.1-36C978.1-53.2,909-53.6,804.8-37.3c-31,4.8-45.5,6.2-55.5,5.1S734-37.1,725.7-43.4s-22-16.7-50.1-29.2C667.3-76.2,660-79.7,653-83c-33.9-16.2-54.3-25.9-102.3-14.3-41.9,10.1-82.5,32.4-121.7,54C392.2-23,354.1-2,314.1,9.5,254.8,26.6,188.7,38.2,122.9,43.3S-9.2,46.8-70.3,38.5Z"/><path class="cls-2" d="M884.5,206c-12.5,0-25-.3-37.5-1.1A693.7,693.7,0,0,1,720.6,185,882,882,0,0,1,594,142.3a632.5,632.5,0,0,0-103.8-33.4c-32.6-7.6-66.6-13-104-16.7-69.4-6.7-140.5-6.1-209.3-5.4-89,.9-181,1.7-273.2-13.1v-.3q79.8,5.5,150.8,5.5c69.1,0,132.4-3.8,191.4-11.7C306.4,59.3,354.7,39,405.8,17.6c31.2-13,63.5-26.5,98.7-36.9,72.7-21.5,109.1,4.2,151.2,33.9,25.2,17.8,51.2,36.1,87.9,47.4,59.5,18.1,125,4.1,188.4-9.6,31.7-6.8,61.7-13.3,91-15.9,35-3.2,71.5-2.3,106.9-1.4,44.9,1.1,91.3,2.2,135.1-5,53.1-8.7,101.9-32.1,149-54.7,49.7-23.7,101-48.3,157.6-56,27-3.6,53.3-6.8,78.7-9.8,75.2-8.9,146.2-17.4,224.3-37.9l3.1-.8c19.8-5.2,66.2-17.5,113.8-23.2,59.8-7,99.1-1,116.9,17.9,12,12.8,14.1,31.6,6.1,56.1,21.2-3.5,44.4,2.9,71.1,19.4,23.4,14.5,45.6,34.2,67.1,53.3,15.9,14.1,30.9,27.4,44.5,36.7h0v.3h0c-19.4-12.5-58.9-36.1-106.7-54.2a372.8,372.8,0,0,0-59.6-17.5c-20.7-4-39.7-5.3-56.4-3.8h-.2v-.2c12.5-32.5,11.8-56.9-2.1-72.7-15.6-17.7-47.9-24.7-96.2-20.8-41.1,3.3-84.3,13.8-105.1,18.9-76.2,18.6-147.9,25.7-223.7,33.2-17.7,1.7-36,3.5-54.3,5.5a380.2,380.2,0,0,0-78.7,17.1,506.9,506.9,0,0,0-72.9,30.9c-47.2,24.2-92.7,55.1-136.7,85-63,42.8-128.1,87-200.4,113.4a660.6,660.6,0,0,1-129.6,33.3A629.8,629.8,0,0,1,884.5,206ZM239.4,86.1c48.9,0,98.3,1.1,146.9,5.8,37.3,3.7,71.4,9.1,104,16.7A632.5,632.5,0,0,1,594.1,142c43,18.1,85.6,32.5,126.5,42.7a694.7,694.7,0,0,0,126.5,19.9,616,616,0,0,0,127.4-5.4,660.6,660.6,0,0,0,129.6-33.3c72.2-26.4,137.3-70.6,200.3-113.3,44-29.9,89.6-60.8,136.8-85a493.2,493.2,0,0,1,73-31,378.8,378.8,0,0,1,78.7-17.1c18.3-2,36.6-3.8,54.2-5.5,75.9-7.5,147.6-14.6,223.7-33.2,20.8-5,64.1-15.6,105.2-18.9,48.3-3.9,80.8,3.1,96.5,20.9,13.9,15.8,14.6,40.3,2.1,72.8,16.7-1.5,35.6-.2,56.3,3.8a386.6,386.6,0,0,1,59.6,17.5C2234.6-6.4,2271.7,15,2292.4,28c-12.4-9-25.8-20.9-39.9-33.4-21.5-19.1-43.7-38.8-67.1-53.2-26.7-16.6-49.9-22.9-71.1-19.4h-.3v-.2c8.1-24.4,6.1-43.3-6-56-17.7-18.9-56.9-24.8-116.5-17.8-47.7,5.7-94,17.9-113.9,23.2l-3.1.8c-78,20.5-149.1,29-224.2,37.9-25.5,3-51.8,6.2-78.8,9.8-56.5,7.7-107.8,32.3-157.4,56-47.2,22.6-96,46-149.2,54.7-43.8,7.2-90.2,6.1-135.1,5-35.4-.9-71.9-1.8-106.9,1.4-29.2,2.6-59.2,9.1-91,15.9-63.3,13.6-128.9,27.7-188.4,9.6-36.9-11.3-62.9-29.7-88-47.4-42.1-29.7-78.5-55.4-151-34-35.2,10.4-67.5,23.9-98.7,37C354.8,39.3,306.4,59.5,246,67.5,147.2,80.6,36.3,82.7-93,74-1.9,88.2,88.9,87.4,176.9,86.5,197.5,86.3,218.4,86.1,239.4,86.1Z"/><path class="cls-2" d="M770.3,319.7c-113.4,0-214.6-25.8-301.1-76.9-21.6-12.7-42.2-26-62.2-38.9-65.3-42.3-127-82.1-211-95.4-31-4.9-74.5,2-120.5,9.2C35.9,124-5,130.4-41,129.9c-19.5-.3-35.7-2.5-49.5-6.9s-27.7-12.5-36.9-22.8l-.2-.3h.4c65.7,6.2,132.9.1,197.9-5.7,53.6-4.8,109-9.8,163.4-8,107.1,3.7,202.4,30.5,307,62.6,112.8,34.6,202.3,49.5,290.3,48.4,85.4-1,173.5-17.4,285.7-53.1,74.7-23.7,146.4-60.1,215.7-95.4C1381,24.2,1430.9-1.1,1481-21.8c43.2-17.7,83.1-30.6,121.1-38.8,9.3-2.4,18.5-4.4,27.8-6,12.5-2.1,31.3-6.1,52.9-10.7l25.5-5.4c52.5-11.6,124.5-26.7,191.1-34.3,44.2-5,80.9-6.1,109-3.3,33.3,3.4,55.6,12.4,66.1,26.8,5.9,8,8.3,17.9,7.1,29.3s-6.6,26.1-15.7,41.8c26.3-5.6,50.4-7.9,73.6-7a224.9,224.9,0,0,1,65.1,11.7C2243.3-4.8,2280.5,19,2321.9,57l-.2.2a443,443,0,0,0-74.5-36.6C2219.4,10.1,2192,3.3,2165.8.3c-29-3.2-56.4-1.8-81.5,4.2a188.5,188.5,0,0,0-74.6,36.8l-.9.7.7-.9c21.3-28.9,35.1-54.1,40.9-74.9,5.3-19.2,4-35.2-3.9-47.5-38.3-59.5-221.9-25.4-338.1-1.1l-28.7,6.5c-21,4.8-36.1,8.2-43.4,9.3-11.2,1.7-22.6,3.7-34.1,6.3a353.3,353.3,0,0,0-49.8,17,501.8,501.8,0,0,0-72.5,38.7c-47.1,29.8-93,67.4-137.4,103.7-73.1,59.8-148.6,121.7-234.7,154.1A1104.8,1104.8,0,0,1,949.4,300c-56.4,12-111.8,18.6-164.6,19.6Zm-598-213.1a158.7,158.7,0,0,1,23.7,1.6c84.1,13.3,145.8,53.2,211.2,95.4,19.9,12.9,40.6,26.2,62.1,39,90.1,53.1,196.2,78.9,315.4,76.7,52.8-1,108.2-7.6,164.6-19.6a1092.1,1092.1,0,0,0,158.4-46.8c86-32.4,161.6-94.2,234.6-154,44.4-36.4,90.3-74,137.4-103.8,25.4-16,49.1-28.7,72.6-38.6a343.5,343.5,0,0,1,43.5-15.4c-36.1,8.3-73.9,20.6-114.6,37.4-50.2,20.7-100,46-148.3,70.5-69.3,35.2-141,71.7-215.7,95.4-112.3,35.7-200.4,52.1-285.8,53.1-88,1.1-177.6-13.9-290.4-48.5C436.4,117,341.2,90.2,234.1,86.5c-54.4-1.9-109.8,3.1-163.4,8-64.9,5.8-131.9,11.9-197.6,5.8,17.2,19.1,45.3,28.7,85.9,29.3,36,.5,76.9-5.9,116.4-12.2C110.7,111.9,144.5,106.6,172.3,106.6ZM2136-1.7A253.3,253.3,0,0,1,2165.8.1c26.3,2.9,53.7,9.8,81.5,20.2a439.6,439.6,0,0,1,73.3,35.9c-40.9-37.4-77.8-60.8-116.1-73.6a228.4,228.4,0,0,0-65-11.8c-23.3-.8-47.5,1.5-73.9,7.2h-.3v-.3c9.3-15.8,14.6-30,15.9-42s-1.2-21.1-7-29.1c-39-53.1-225.4-19.5-343.3,6,116.1-23.6,279.7-50.1,315.7,5.8,8,12.4,9.3,28.5,3.9,47.8s-19.2,45.5-40.2,74.1a185.9,185.9,0,0,1,73.8-36.1A218.1,218.1,0,0,1,2136-1.7ZM1686.5-77.8l-3.6.8c-21.7,4.6-40.4,8.6-52.9,10.7-6.6,1.1-13.2,2.4-19.8,4,8.8-1.8,17.5-3.3,26.1-4.6s22.4-4.5,43.4-9.3Z"/><path class="cls-2" d="M763.2,336.1c-54.4,0-105.3-6.2-151.2-18.5-70-18.8-133.1-54.7-194.2-89.5-31.6-18-64.3-36.6-97.5-52.5-37.2-17.9-71.2-30.5-103.8-38.5-20.9-5.2-46.3-6.7-77.6-4.8-28,1.7-58.1,5.9-87.2,10.1-39.9,5.6-81.2,11.5-118.4,11-20.1-.3-37.3-2.3-52.7-6.3-17.4-4.4-32-11.1-44.8-20.4l-.3-.2h.4c144.9-9.5,299.3-14,446.1,16.4,25.9,5.4,52.4,14.6,80.9,28,25.4,12,50.1,26.4,74,40.2,45.9,26.5,93.3,54,149.4,68,59.4,14.9,118.2,23.8,175,26.6a793.9,793.9,0,0,0,166.9-9.5,837.2,837.2,0,0,0,161.4-44.1c52.2-20,105.5-45.9,158.5-77.3,42.8-25.2,84.9-60.6,125.6-94.8,62.5-52.6,127.1-106.9,198.4-129.4,28-8.9,60.1-9.8,91.1-10.7,23-.7,46.8-1.4,68.5-5.4,27.7-5.1,58.3-15.5,90.7-26.5,54.5-18.4,110.9-37.5,159.2-33.4,34.3,2.9,55.4,11.2,64.7,25.3,11.2,17,3.5,39.9-3.9,62.1s-13.5,40.6-4.6,54.4c6.3,9.8,19.9,15.7,41.5,17.9a283.9,283.9,0,0,0,56.9-.2c21.9-9.4,47-14.9,83-9.2h.2a154.5,154.5,0,0,1,38.5,2.9c30.6,6.7,56.7,24.8,82.2,56.8l-.2.2c-31-29.9-77.2-52.7-120.5-59.6-15.3.5-31.1,2.6-47.3,4.8-11.7,1.6-23.6,3.2-35.8,4.3-11.2,4.9-21.5,10.7-32,16.7-21.1,12-43,24.4-74,30.3-22.6,4.4-35.4,3.3-40.4-3.4-7.1-9.3,2.9-29.1,14.5-52,15.3-30.2,34.3-67.8,22.2-97.1a53.5,53.5,0,0,0-16-20.7c-8.1-6.5-18.8-11.9-31.8-16.2-38.7-12.7-92.3,6.8-139.5,24-18.1,6.6-35.2,12.9-49.8,16.6-32.7,8.3-66.3,11.6-98.7,14.8-28.2,2.7-57.3,5.6-85.6,11.8-36.5,8-73.9,25.2-114.1,52.7-35.7,24.4-70.3,54.4-103.6,83.4-39.1,34-79.6,69.1-121.4,94.6-92,56-204.5,100.4-316.9,124.9C884.2,329,821.7,336.1,763.2,336.1Zm-600-204.9c20.5,0,38.1,1.9,53.4,5.6,32.6,8,66.6,20.6,103.8,38.5,33.2,16,65.9,34.6,97.6,52.6,61,34.7,124.1,70.6,194,89.4,95.2,25.5,211.7,24.6,337.1-2.8C1061.5,290,1174,245.6,1266,189.6c41.8-25.4,82.2-60.5,121.3-94.5,33.4-29,67.9-59,103.7-83.5,40.2-27.5,77.6-44.7,114.2-52.7,28.2-6.2,57.4-9.1,85.6-11.8,32.4-3.2,65.9-6.5,98.6-14.8,14.6-3.7,31.7-10,49.8-16.6,47.3-17.2,100.8-36.7,139.7-24,13.1,4.3,23.8,9.8,31.8,16.2a52.8,52.8,0,0,1,16.2,20.9c12.1,29.4-6.9,67.1-22.2,97.4-11.6,22.8-21.5,42.4-14.6,51.7,4.9,6.4,18,7.5,40.2,3.3,30.9-6,52.8-18.4,73.8-30.3,10.3-5.9,20.4-11.6,31.3-16.4-17.8,1.6-36.3,2.2-56.1.1-21.7-2.2-35.4-8.1-41.8-18-9-14-2.4-33.8,4.6-54.7s15-45,3.9-61.8c-9.2-14-30.2-22.3-64.4-25.2-48.3-4.1-104.6,15-159.1,33.4-32.4,11-63,21.4-90.7,26.5-21.7,4-45.6,4.7-68.6,5.3-31,.9-63,1.9-91,10.7C1501-26.6,1436.3,27.7,1373.9,80.2c-40.8,34.2-82.9,69.6-125.6,94.9-53.1,31.3-106.4,57.3-158.6,77.2a837.6,837.6,0,0,1-161.4,44.2,795.2,795.2,0,0,1-167,9.5c-56.8-2.8-115.7-11.7-175.1-26.6-56.1-14-103.5-41.5-149.4-68-23.9-13.9-48.7-28.2-74.1-40.2-28.4-13.5-54.8-22.6-80.8-28-85.1-17.6-172.8-23.5-259.6-23.5-62.8,0-125.2,3.1-186,7,12.7,9.2,27.2,15.8,44.3,20.2,15.4,3.9,32.7,5.9,52.7,6.2,37.2.5,78.5-5.4,118.4-11,29.1-4.2,59.2-8.4,87.2-10.1C147.4,131.5,155.5,131.2,163.2,131.2Zm2057.7-106c42.3,7.1,86.9,29.2,117.6,58-25-31-50.7-48.4-80.6-55A157.3,157.3,0,0,0,2220.9,25.2Zm-29.6-2.3a133.4,133.4,0,0,0-54.1,11.2c11.9-1.2,23.5-2.7,34.9-4.3,15.7-2.1,30.9-4.1,45.8-4.8A184.5,184.5,0,0,0,2191.3,22.9Z"/><path class="cls-2" d="M793.6,348.4a818.6,818.6,0,0,1-140.2-11.7c-38.1-6.6-77.6-17.4-120.8-33.2-38.6-14-76.7-30.6-113.5-46.6-45.7-19.9-92.9-40.5-142.3-56.8C134.9,153.3-19.1,152-168,150.6l-34.4-.3V150c80.9-13.5,159.6-20.1,233.9-19.6,83.3.6,161.6,10.1,232.5,28.3,47.1,12.1,78.5,34.5,111.7,58.3,16.7,12,33.9,24.3,53.9,35.9,60.3,35,129.3,46.9,196,58.4l18.1,3.2a930.7,930.7,0,0,0,180.8,13.7,962.4,962.4,0,0,0,180.3-21.1,960.2,960.2,0,0,0,173.6-55A925,925,0,0,0,1339,164.2c22.5-15.4,44.5-31.1,65.9-46.3,45.6-32.6,90-64.2,137-91.7,10-6.7,20.1-13.1,30.5-19.3,53.4-31.8,106.7-52.9,167.8-66.4,13.6-3,30-7.5,47.3-12.3l2.6-.7c29.7-9.7,61.8-19.2,92.4-25,25.1-4.8,47-6.8,65.2-5.7,21.1,1.1,38.1,6.3,50.6,15.2a61.2,61.2,0,0,1,20.4,25.3c4.8,11.1,7.3,24.6,7.2,40.3,0,11.8-8.4,26.1-17.2,41.2-11.1,18.7-22.4,38.1-18.1,54,2,7.4,7.3,13.4,16.1,18.3,15,8.3,39.3,1.5,64.6-8.8,23.4-11.6,45.4-22.4,62.9-28a232.9,232.9,0,0,1,74.1-11.6c18.2-.8,37.7-.1,56.5,3.6,21,4.1,38.4,11.4,51.9,21.8,15.5,12,26,28.1,31.1,48.1l.2.7-.5-.6a180,180,0,0,0-43.6-43.5,167.4,167.4,0,0,0-52-23.9,183.4,183.4,0,0,0-43.6-5.9,373.6,373.6,0,0,0-59.6,7.8c-12.3,2.5-29.2,10.3-47.2,18.5-9.8,4.5-20,9.1-30.1,13.2l-.6.3c-35.6,17.6-72.2,35.7-94.2,35.7-6.3,0-11.5-1.5-15-4.9-10.4-10.1-6-35.7,13.5-78.2,7.1-15.7,15.2-29.3,22.4-41.3,13.1-22,23.5-39.4,18.4-54.2-4-11.6-17.4-21.5-42.1-31.1-21.2-8.3-50.1-9.4-88.2-3.4-32,5-65.6,14.1-95.4,22.4-15.1,4.9-29.5,9.9-42.9,14.5-19.6,6.7-36.6,12.6-49.8,16.3C1640.3-25.3,1589.8-1.6,1542,26.4c-36.6,24.5-71.5,52.2-108,81.1-26.7,21.2-54.3,43.1-84.9,65.7-46.3,34.1-98.6,64.3-155.6,89.6A986.1,986.1,0,0,1,1017.3,322,1001.5,1001.5,0,0,1,833,347.6C819.8,348.1,806.6,348.4,793.6,348.4ZM-200.7,150l32.7.3c149,1.4,303,2.7,444.9,49.6,49.4,16.3,96.7,36.8,142.3,56.7,36.8,16.1,74.9,32.6,113.5,46.7,43.2,15.7,82.7,26.5,120.8,33.2,56.7,9.8,117.1,13.5,179.5,10.8a990.8,990.8,0,0,0,184.2-25.6,993.8,993.8,0,0,0,176.2-59.1c57-25.4,109.3-55.6,155.5-89.6,30.6-22.6,58.2-44.5,84.9-65.7,35.1-27.9,68.8-54.6,103.9-78.3-45.4,26.9-88.4,57.6-132.6,89.1-21.4,15.2-43.5,31-66,46.4a934.8,934.8,0,0,1-160.6,87.9,960.2,960.2,0,0,1-173.6,55,962.5,962.5,0,0,1-180.4,21.1,930.7,930.7,0,0,1-180.8-13.7l-18.1-3.2c-66.8-11.5-135.8-23.5-196.1-58.4-20-11.6-37.3-24-54-35.9C342.3,193.5,311,171,263.9,159,193,140.8,114.8,131.3,31.5,130.7-42.3,130.2-120.3,136.7-200.7,150ZM1928.9-98.7c17.8,0,32.7,2.4,45,7.2,24.8,9.6,38.2,19.6,42.3,31.3,5.1,14.9-5.3,32.4-18.4,54.5-7.2,12-15.3,25.6-22.4,41.2-19.4,42.4-23.9,67.9-13.6,77.8,15.4,14.9,61.1-7.2,106-29.3-24,9.5-46.9,15.3-61.2,7.4-8.9-5-14.3-11-16.3-18.6-4.4-15.9,7.1-35.4,18.1-54.2,8.8-15.1,17.2-29.3,17.2-41,.1-15.6-2.3-29.1-7.2-40.2a61.3,61.3,0,0,0-20.3-25.2c-12.4-8.9-29.4-14-50.4-15.1-18.2-1.1-40.1.9-65.1,5.6-28.5,5.5-58.2,14.1-86.1,23,28.2-7.7,59.3-16,89.1-20.6A283.3,283.3,0,0,1,1928.9-98.7ZM2212.8,42.9a180.9,180.9,0,0,1,39.2,5.7,164.8,164.8,0,0,1,52.1,24,181.2,181.2,0,0,1,43.2,42.9c-5.2-19.5-15.5-35.4-30.7-47.1-13.5-10.4-30.9-17.8-51.9-21.8C2247.5,43.2,2229.7,42.4,2212.8,42.9Zm-71.6,9.5-6.9,2.2c-16.5,5.2-37,15.2-58.8,25.9,8.7-3.6,17.4-7.6,25.9-11.5C2116,62.3,2129.9,56,2141.2,52.4ZM2203,43a229.4,229.4,0,0,0-55.8,7.8l1.4-.3A381.4,381.4,0,0,1,2203,43ZM1784.3-70.6c-16.1,4.5-31.2,8.6-44,11.4-61.1,13.5-114.4,34.6-167.8,66.4-8.9,5.3-17.6,10.8-26.2,16.4,46.5-26.9,95.6-49.7,151.1-65.3,13.2-3.7,30.2-9.5,49.8-16.3C1758.9-62,1771.3-66.3,1784.3-70.6Z"/><path class="cls-2" d="M816.4,358.5H806.2c-56.3-.7-109.1-6.9-157.1-18.6-10.8-1.9-21.5-4.1-31.9-6.4-85.4-19.4-170.2-48.1-252.1-75.8-58-19.6-117.2-39.6-177-56.4-70.3-8.2-142.2-10.1-212.3-12s-145.4-3.9-216.5-12.5h-.8l.8-.2A677.5,677.5,0,0,1-83,158.3h.2c48.6,0,98.4,4.8,152.2,14.7,39.7,7.3,79.4,16.9,118.7,28,24.2,2.8,48.2,6.4,71.8,11,70.3,13.5,141.4,40.8,210.1,67.1,55.6,21.3,113.1,43.4,170.3,58.3l8.9,2.2c97.3,17.1,212.2,16.2,327.4-2.9,63.3-10.6,124.4-26.1,181.6-46.3,59.2-20.9,112.4-46.1,158.1-74.9,43.7-27.6,84.5-58.9,124-89.2,32.7-25.1,66.6-51.1,101.6-74.5,39.3-26.2,76.1-46.6,112.6-62.1,25.3-10.9,91.5-37.7,157.9-53.1,33.9-7.9,63.5-11.8,88-11.6,28.9.3,50.9,6.3,65.5,17.9a55.4,55.4,0,0,1,19.2,29.2c3.7,12.8,3.9,28.4.7,46.3-2.4,13.7-11.4,28.4-21.3,43.9-3.2,20.3-9.2,38.6-14.1,53.6-2.7,8.2-5.1,15.4-6.6,21.5,4,6.2,10.4,11.6,19.4,16.5a35.8,35.8,0,0,0,10.6,3.6h.6c15.9-3.8,39-11.8,72.5-25.1l25.3-9.8,7.4-4.3c18.1-10.4,35.2-20.2,47.5-24.2,20.3-6.7,57.9-15.3,97.4-17.3,31.8-1.6,74.9.7,99.8,20.8,15.7,12.6,22.4,30.7,20,53.8v.4l-.3-.3c-36.4-44.9-82.7-65.2-141.5-61.9-42.2,2.4-85.7,16.3-130.2,33.3-17.9,10.2-37.3,20.9-55.4,27.9s-31.8,9.1-43.1,7.1c-15.2,3.6-24.3,3.3-28.6-.7s-3.8-10.4-1.7-19.6a35,35,0,0,1-4-9.1c-5-19.4,9.4-42.1,23.4-64.1l1.3-2.1a163.9,163.9,0,0,0,1.1-46.6c-2.3-19-7.6-34.8-15.8-47.2a71.8,71.8,0,0,0-31-26.4c-14.2-6.4-31.7-9.2-52.1-8.4s-40.9,4.7-65.2,11.6c-42.8,12.2-94.4,34.3-153.4,65.6-107,56.7-217,132.3-282.8,177.4-24.8,17.1-44.5,30.6-55.4,37.1-91.3,55.2-207.2,97.1-326.2,118.1A958.1,958.1,0,0,1,816.4,358.5ZM653.7,340.7c46.8,11,98,16.8,152.5,17.5,57.1.7,116.7-4.4,177.1-15,119-21,234.8-63,326.2-118.1,10.9-6.6,30.5-20.1,55.4-37.1,65.7-45.2,175.8-120.8,282.7-177.5,59.1-31.3,110.7-53.4,153.5-65.6,24.3-6.9,46.3-10.8,65.3-11.6s38,2,52.2,8.4a72.1,72.1,0,0,1,31.2,26.6c8.1,12.3,13.5,28.3,15.8,47.2a168.1,168.1,0,0,1-1,46.1c9.7-15.3,18.6-29.8,21-43.2,3.1-17.9,2.9-33.5-.8-46.2a55.8,55.8,0,0,0-19-29.1c-14.6-11.5-36.6-17.5-65.4-17.8-24.5-.2-54.1,3.7-88,11.6C1746.1-47.7,1680-20.9,1654.6-10c-36.5,15.5-73.3,35.8-112.5,62.1-35.1,23.4-68.9,49.4-101.7,74.5-39.4,30.2-80.2,61.5-124,89.1-45.7,28.9-98.9,54.1-158.1,75-57.2,20.2-118.3,35.7-181.7,46.3C863.2,355.8,750.1,357,653.7,340.7ZM189.9,201.5c59.2,16.7,117.8,36.5,175.3,56,81.9,27.7,166.7,56.3,252.1,75.7,9,2,18.1,3.9,27.4,5.6l-4.5-1.2c-57.2-14.8-114.7-36.9-170.3-58.2-68.7-26.3-139.7-53.6-210-67.1C236.8,207.8,213.5,204.3,189.9,201.5Zm-429.7-24.9C-169,185.2-95.4,187.1-24.2,189c69.5,1.9,140.8,3.8,210.5,11.8-38.8-10.9-77.8-20.4-117-27.5-53.8-9.9-103.6-14.7-152.1-14.7H-83A674.5,674.5,0,0,0-239.8,176.6Zm2183.6-38.8c-2.1,8.9-2.2,15.5,1.6,19.1s13,4.1,27.7.8a33.7,33.7,0,0,1-10.1-3.6C1954.2,149.3,1947.8,144,1943.8,137.8Zm30.8,19.8c11.1,1.8,25.1-.6,42.2-7.2s36.3-17,53.7-27l-23.5,9.2C2013.5,145.9,1990.5,153.8,1974.6,157.6Zm240.1-68.7c53,0,95.4,20.4,129.3,62.1,2.3-22.9-4.4-40.8-19.8-53.2-45.3-36.4-154.2-17.7-197-3.6-12.3,4.1-29.4,13.9-47.4,24.3l-5.9,3.3c44-16.6,86.9-30.3,128.6-32.6ZM1964.1,63l-1,1.5c-13.9,21.9-28.3,44.6-23.3,63.8a32.6,32.6,0,0,0,3.8,8.8c1.5-6.1,3.8-13.2,6.5-21.3C1955,101,1960.9,83,1964.1,63Z"/><path class="cls-2" d="M788.8,377.3q-33,0-65.8-1.9C662.5,372,604.2,363.8,549.9,351c-51.1-11.9-99.8-35.3-147-57.8-14.6-7.1-29.5-14.2-44.6-21-53.7-15.6-108-30.5-162.6-43.2-36.2-1.2-73.1,1.3-108.9,3.8-32.1,2.3-65.3,4.6-97.7,4.1-12.3-.2-43.7-6.5-79.9-13.8-48.6-9.8-105.7-21.3-139.1-22.6-9,1.3-18,2.7-26.9,4.3h-.5l.3-.4c3.7-3.6,13.4-4.8,27-4.3a928.2,928.2,0,0,1,154-8.9c55.8,1.2,113.2,7,175.4,17.8,32.2,5.5,64.3,12.2,96.4,19.6,7.9.3,15.7.7,23.5,1.4,28.7,2.4,59.2,9.8,93.3,22.6,15.3,5.8,30.6,12.3,45.8,19.2,28.3,8.2,56.4,16.6,84.2,24.9,57.7,17.1,117.2,34.9,176.5,50.6,100.7,26.7,218.8,30.6,341.4,11.4A1059.6,1059.6,0,0,0,1131.8,317c55.4-18.6,107.7-41.3,155.3-67.5,17-9.3,44.9-28.4,80.2-52.7,12.5-9.8,24.9-19.7,37.2-29.5,50-40.1,101.8-81.6,160.1-110.6a757.4,757.4,0,0,1,72.7-31.2l3.3-1.7c52.1-27.6,98.4-47.2,137.6-58.3,22.1-6.2,42.5-10,60.5-11s36.7.6,51.4,5.4a89.2,89.2,0,0,1,36.1,21.6c10.4,10.4,18.7,23.9,24.5,40.1,6.9,19.1-1.8,43.5-10.2,67.2-5.6,15.9-11.4,32.3-12.5,47-1.2,16.4,3.9,28.8,15.4,37.8,24.7,19.3,75.8-2.1,113.2-17.7,11.6-4.9,21.5-9.1,29.2-11.4,3.5-1.1,22.6-6.9,49-13.1,12.5-3.7,25.6-7,38.9-9.7q30.8-6.2,55.9-6.2h.1c18.2-1.5,34.4-1.6,48.2-.3,23.6,2.3,40.6,8.7,50.5,19,11.9,12.5,13.5,31.1,4.7,55.1l-.2.5v-.5c-5.8-28.6-20.3-49.1-43.2-61q-24-12.5-59.9-12.5c-7.7.6-15.8,1.5-24.2,2.6-25.3,3.4-50.1,8.5-70.6,13.3a629.5,629.5,0,0,0-70.8,25.9c-8.1,3.5-17.9,9.4-28.2,15.6-23.5,14.1-51.5,30.8-76,30.8a44.7,44.7,0,0,1-18.1-3.6,38.2,38.2,0,0,1-17.6-15.3c-3.7-6.1-6-13.5-7.1-22.7-2-17.1.6-37.8,3.2-57.8,4-31,8.2-63.1-5.3-82s-36.8-31.3-68.4-35.4c-27-3.6-60.2-1.5-98.8,6.2S1671.7,13,1637.5,25.7c-94.5,50.2-191,116.8-261.6,165.5l-8.4,5.8c-37.3,29.1-76.1,57.1-118.3,78.8-96.6,49.8-215.3,82.8-343.1,95.6A1151.7,1151.7,0,0,1,788.8,377.3ZM360.3,272.8c14.4,6.5,28.7,13.4,42.8,20.1,47.1,22.6,95.8,45.9,146.9,57.9,54.3,12.7,112.5,20.9,173.1,24.4a1177.7,1177.7,0,0,0,182.9-4c127.9-12.9,246.5-45.9,343.1-95.7,40.7-20.9,78.2-47.7,114.1-75.6-33.3,23-59.7,40.9-76,49.9-47.6,26.2-99.9,48.9-155.3,67.5a1062.1,1062.1,0,0,1-171.3,41.8C837.9,378.3,719.8,374.4,619,347.7c-59.2-15.7-118.8-33.5-176.4-50.6C415.3,289,387.9,280.8,360.3,272.8Zm-163-43.7c53.4,12.4,106.6,27,159.2,42.2-14.7-6.5-29.4-12.8-44-18.3-34.1-12.8-64.5-20.2-93.2-22.6C212,229.8,204.7,229.3,197.3,229.1Zm-425.7-28.8c33.6,1.6,89.7,12.9,137.6,22.5,36.3,7.3,67.6,13.6,80,13.8,32.3.5,65.5-1.8,97.6-4.1,35.3-2.4,71.7-5,107.5-3.8-31.6-7.4-63.3-13.9-94.9-19.4C37.2,198.6-20.2,192.8-76.1,191.5A930.1,930.1,0,0,0-228.4,200.3Zm-7.4.1c-10.1,0-17.3,1.2-20.6,4l24.8-3.9ZM1819.4-14.8a211.1,211.1,0,0,1,27.2,1.7c31.7,4.1,54.8,16.1,68.7,35.5s9.3,51.1,5.3,82.3c-2.6,19.9-5.2,40.6-3.2,57.6,1.1,9.2,3.4,16.6,7.1,22.6a37.5,37.5,0,0,0,17.4,15.2c27.8,12.4,64.4-9.5,93.8-27.1,10.4-6.2,20.2-12.1,28.3-15.7a646.6,646.6,0,0,1,65.9-24.4c-23.8,5.7-40.8,10.9-44,11.9-7.7,2.3-17.6,6.5-29.2,11.3-37.4,15.7-88.7,37.2-113.4,17.7-11.7-9.1-16.8-21.5-15.6-38.1,1.1-14.7,6.9-31.1,12.5-47,8.4-23.6,17-48,10.2-67-5.8-16.2-14-29.6-24.4-40a88.9,88.9,0,0,0-36-21.6c-14.7-4.7-31.9-6.5-51.2-5.3s-38.4,4.8-60.5,11c-39.2,11.1-85.5,30.7-137.6,58.2l-1.3.7c33.8-12.5,71.7-24.2,108.4-31.6C1774.3-12.1,1798.2-14.8,1819.4-14.8ZM1635.3,26.5c-27.6,10.4-52.1,21.2-70.6,30.4-58.2,29.1-110,70.5-160,110.6-11,8.8-22.1,17.7-33.4,26.5l4.4-3C1445.9,142.6,1541.5,76.6,1635.3,26.5Zm597.9,89c22.3.4,41.2,4.6,56.5,12.5,22.8,11.9,37.4,32.3,43.3,60.8,8.5-23.8,6.9-42-4.8-54.4-9.8-10.3-26.8-16.6-50.4-18.9A275.5,275.5,0,0,0,2233.2,115.5Zm-7.3.3a295,295,0,0,0-52.1,6.2c-11.5,2.3-22.8,5.1-33.6,8.2,19.4-4.5,42.1-9,65.3-12.1C2212.5,117.2,2219.4,116.4,2225.9,115.8Z"/><path class="cls-2" d="M816.5,387c-38.3,0-76.7-1.9-114.7-5.7a1029.7,1029.7,0,0,1-178.2-33.7l-43.3-12.5c-131-37.9-254.7-73.8-393.9-67.9-21.6.9-44.5,4.5-68.8,8.2-46.3,7.1-94.1,14.5-135.3,3.2-12.1-3.3-28.8-16-46.5-29.4l-15.2-11.3-13.1-1.1c-42.4-3.8-65.5-8.4-68.8-13.5a2.5,2.5,0,0,1-.1-2.5c4.7-6.7,10.8-10.6,18-11.7,18-2.7,41.5,12,64.1,28.5,32.8,2.6,75.1,4.8,126.5,6.7,100.2,3.5,204.6,4.3,219.9,4.1h5.2c39,0,80.5,5.7,126.6,17.5,43.1,11,86.2,26.1,127.9,40.8,37.5,13.1,76.3,26.7,115.2,37.4a991.1,991.1,0,0,0,175.8,31.1,1067.8,1067.8,0,0,0,180.6-.1,1093.6,1093.6,0,0,0,179-30.2,1053.3,1053.3,0,0,0,170.7-59.4c33-14.8,82-49.7,138.7-90.1l23.4-16.6c46.6-36.8,95-73.9,149.3-100.4l9.6-4.6c12.5-7.3,25.1-14.4,37.7-21,88.3-46.7,157.3-63.9,211-52.6a130.1,130.1,0,0,1,50.1,22c15.6,11.4,29.3,26.8,40.7,45.9,18.1,30.1,22.9,59.2,26.8,82.6s7,41.3,20.8,50.9c6.2,4.3,14.3,6.8,24.9,7.4s25.3-.6,42.9-4c5.7-1,19.3-6.2,38.2-13.3,34.9-13.2,87.7-33.2,136.6-44.6,26.8-6.2,49.6-9.2,67.9-8.8,21.4.5,37.1,5.6,46.6,15.2,7.3,7.3,11.1,17.3,11.5,29.8s-3.1,30.1-10.6,49.6v.3l-.2-.3c-19.1-42.8-52.5-63.6-102.2-63.6H2210c-43.9.4-93.2,16.6-136.7,30.9-22.3,7.3-43.4,14.3-61.3,18.2-46.5,10.3-74.9,9.4-89.2-2.9s-13.4-36.2-11.8-63.4c1.2-18.7,2.5-39.9-1.8-59.9-4.8-23-16.1-41.1-34.7-55.3-15.8-12.1-38.6-18.9-67.7-20.3-25.1-1.1-54.9,1.8-88.4,8.6-57.5,11.8-114,32.7-149.2,48.9-54.7,31.9-108.8,69.5-158.8,104.9l-10.7,8.5c-47.9,37.8-97.4,77-152.9,105.4-100.3,51.3-223.4,83-356.1,91.7C866.1,386.2,841.3,387,816.5,387ZM116.7,266.3c127.1,0,242.2,33.4,363.7,68.6l43.3,12.5c56,16,116,27.3,178.2,33.6a1144.4,1144.4,0,0,0,188.8,3.3c132.6-8.7,255.7-40.4,356-91.7,55.4-28.4,105-67.5,152.8-105.4l6.2-4.8L1387,195.7c-56.7,40.4-105.7,75.2-138.8,90.1a1072.8,1072.8,0,0,1-170.7,59.4,1095.4,1095.4,0,0,1-179,30.2,1079.6,1079.6,0,0,1-180.7.1,983.3,983.3,0,0,1-175.9-31.2c-38.9-10.6-77.6-24.2-115.2-37.4-41.7-14.6-84.8-29.7-127.8-40.7-48.3-12.3-91.3-18-131.8-17.5-15.3.2-119.7-.6-219.9-4.1-50.9-1.8-93.2-4.1-126-6.7l14.7,11.1c17.7,13.4,34.4,26,46.4,29.3,41.2,11.3,89,3.9,135.3-3.2,24.2-3.7,47.1-7.3,68.8-8.2Q101.7,266.3,116.7,266.3Zm-355.5-57.2a31.9,31.9,0,0,0-4.5.3c-7.2,1.1-13.2,5-17.8,11.5a2,2,0,0,0,.1,2.2c3.5,5.6,31.1,10.4,81.2,14.4C-200.4,222.5-221.7,209.1-238.8,209.1ZM2211.7,169c49.7,0,83.2,20.8,102.3,63.5,7.4-19.3,11-35.9,10.5-49.2s-4.2-22.4-11.4-29.6c-9.5-9.6-25.1-14.7-46.5-15.1-18.1-.4-41,2.6-67.8,8.8-48.8,11.4-101.6,31.3-136.5,44.5-18.9,7.2-32.5,12.3-38.3,13.4-17.6,3.4-31.6,4.7-42.9,4s-18.8-3.1-25.1-7.4c-13.9-9.7-17-28-20.8-51.2s-8.8-52.4-26.8-82.5c-11.4-19-25.1-34.4-40.6-45.7a127.9,127.9,0,0,0-50.1-22c-53.6-11.3-122.6,5.9-210.8,52.6-11.7,6.1-23.4,12.7-35.1,19.5,35.3-16,90.4-36.2,146.5-47.7,33.6-6.8,63.3-9.7,88.5-8.5,29.2,1.3,52.1,8.1,67.9,20.3,18.6,14.2,30,32.3,34.8,55.4,4.3,20.1,3,41.3,1.8,60-1.6,27.2-3.1,50.6,11.7,63.2s42.5,13.1,89,2.8c17.8-3.9,38.9-10.9,61.2-18.2,43.5-14.3,92.9-30.5,136.8-30.9ZM1566.4,75.4l-6.8,3.2c-52.4,25.7-99.4,61.3-144.6,96.8C1462.8,141.5,1514.4,105.9,1566.4,75.4Z"/><path class="cls-2" d="M797.9,409.6c-84.4,0-162.3-23.8-243.7-48.7-30.5-9.3-62.1-19-94.2-27.4l-20.4-5.3c-58.3-15.5-118.7-31.5-178.4-32.5-27.2-.5-50.1,2.7-72.2,10.2-20,6.7-37.5,16.3-56.1,26.5-16.2,8.9-33,18.1-53.9,27s-40.2,13.4-59.3,13.9a132.1,132.1,0,0,1-50-8.9c-30.9-11.8-57.8-33.8-83.9-55.1-7.3-6-14.6-12-22.1-17.8l-7.4-4.1c-27.7-15.5-57.9-32.4-81.8-38.4a118.2,118.2,0,0,0-31.3,1.4l-.8.2.7-.4c7.8-4.7,18.7-4.6,31.4-1.5,3.1.3,6.3.8,9.5,1.3a132.1,132.1,0,0,1,36.3,12.6c15.1,7.6,29.5,17.7,43.5,28.6,21.1,11.7,40.4,22.1,52.9,24.6,21.2,4.2,44,4.3,69.5.2,22.8-3.6,45.7-10.2,67.9-16.5s47.4-13.6,71.6-17.3c63.6-9.6,131.8-7.4,208.6,6.7,68.6,12.5,135.1,32.6,202.8,53.8a979.2,979.2,0,0,0,187,38.7,998.1,998.1,0,0,0,193.2,2.2,951.4,951.4,0,0,0,190.2-35.9,859.2,859.2,0,0,0,177.7-75.4c21.9-12.5,54.8-36.3,92.8-63.8,63.9-46.3,143.4-103.9,223.3-146.8,43.4-23.3,83-39.9,117.6-49.5,40-11,75-13.1,104-6A120.6,120.6,0,0,1,1871,29.9c14.6,12,27.1,28.2,37.1,48,13,25.8,18.2,49.3,22.3,68.1,4.7,21.4,8.4,38.2,20.8,48.7s35.9,14.6,73.7,11.4c20.1-1.7,45.4-7.2,72.2-12.9,34.7-7.4,70.6-15.1,103.2-16.9,37.4-2.1,63.4,4.1,79.5,19.1,8.3,7.8,14,18,17.1,30.5s3.6,29.9.9,48.9h-1c-14.2,0-30.4-13.2-49.1-28.5-22.3-18.2-47.5-38.7-74.4-39.6-32.9-1-64.8,13.8-95.6,28.1-15,6.9-29.2,13.5-43.5,18.4-6.9,2.3-14.3,5.3-22.2,8.5-15.6,6.4-33.3,13.5-50.4,16.9-19.7,3.9-35.6,2.2-48.6-5.2-35-19.9-35-49.3-35.1-80.5,0-16.2,0-33-5.1-48.9-8.5-26.3-20.1-47.8-34.4-63.9A111.4,111.4,0,0,0,1789.8,48c-112.4-37.5-295.4,92.1-428.9,186.7-52.5,37.1-97.8,69.2-127.5,83-45.4,21-99.3,38.1-164.7,52.4-57.6,12.5-116.2,21.3-172.9,29.7l-32.9,4.9A427.8,427.8,0,0,1,797.9,409.6Zm-542-114.3h5.4c59.6,1.1,120,17,178.4,32.5l20.4,5.4c32.1,8.4,63.6,18,94.2,27.3,101.9,31.1,198.1,60.6,308.5,43.8l32.9-4.9c56.7-8.4,115.3-17.2,172.9-29.7,65.4-14.3,119.3-31.4,164.6-52.4,29.7-13.7,75-45.8,127.5-83,133.6-94.6,316.6-224.2,429.2-186.7a112.2,112.2,0,0,1,48.7,32.4c14.4,16.1,26,37.7,34.4,64,5.2,15.9,5.2,32.7,5.2,49,.1,31.1.1,60.4,35,80.3,12.9,7.3,28.8,9,48.4,5.1,17.1-3.4,34.7-10.5,50.3-16.8,7.9-3.2,15.3-6.3,22.2-8.6,14.3-4.9,28.5-11.5,43.5-18.4,30.8-14.3,62.7-29.1,95.7-28.1,27,.9,52.3,21.5,74.6,39.7,18.7,15.2,34.8,28.4,48.9,28.4h.7c2.7-18.9,2.4-35.3-.9-48.6s-8.8-22.6-17-30.3c-16-15-42-21.2-79.2-19.1-32.7,1.8-68.6,9.5-103.2,16.9-26.8,5.7-52.1,11.1-72.2,12.9-37.9,3.2-60.7-.3-74-11.5s-16.2-27.4-20.9-48.8c-4.1-18.9-9.3-42.3-22.2-68-10-19.8-22.5-36-37.1-48a120.3,120.3,0,0,0-47.9-23.6c-29-7.1-64-5-104,6-34.5,9.6-74,26.2-117.4,49.5-79.9,42.9-159.5,100.5-223.4,146.7-38,27.6-70.8,51.4-92.7,63.8A855.8,855.8,0,0,1,1107.5,348a948.7,948.7,0,0,1-190.2,35.9A999.2,999.2,0,0,1,724,381.7a980.9,980.9,0,0,1-187-38.8c-67.7-21.1-134.1-41.2-202.8-53.8-76.7-14-144.9-16.2-208.4-6.6-24.3,3.7-48.4,10.6-71.6,17.2s-45.2,13-68,16.6c-25.5,4.1-48.3,4-69.6-.2-12.1-2.5-30.9-12.4-51.3-23.7,7,5.5,13.9,11.1,20.7,16.7,26,21.3,52.9,43.3,83.8,55A131.6,131.6,0,0,0,19.7,373c19-.5,38.4-5,59.2-13.9s37.6-18.1,53.9-27c18.6-10.2,36.1-19.8,56.1-26.5S231,295.3,255.9,295.3Zm-479.5-46.1c23.6,6.4,53,22.8,80.1,37.9l5.6,3.2c-13.5-10.4-27.4-20.1-41.9-27.4a132.1,132.1,0,0,0-36.3-12.6Zm-18.1-2.4A29.6,29.6,0,0,0-256,250a109.8,109.8,0,0,1,28.5-1.4A61.4,61.4,0,0,0-241.7,246.8Z"/><path class="cls-2" d="M82.1,443A109.3,109.3,0,0,1,60,440.7c-20.1-4-42.7-13-69-27.4-48.1-26.3-98.8-65.9-139.6-97.6-44.7-34.9-80-62.4-89.6-55.3v-.3c19.3-14.3,65,21.4,117.8,62.7,63.6,49.7,135.6,106,181.7,90.8,28.2-9.2,47.5-30.7,68-53.4s44.3-49.1,78.7-59c64.2-18.5,141.3,3.9,197.5,20.3,76.4,22.2,143.4,38.9,204.7,50.9C683,386.8,749.6,395,813.7,397.7c15,.7,30,1,44.8,1,130,0,249.6-24.5,364.4-74.6,42.3-18.4,96.6-56.8,154.1-97.4,59.8-42.3,127.5-90.1,192-122.6,73.9-37.1,132.9-48.8,180.4-35.6a132.9,132.9,0,0,1,51.8,27.9l2.8,1.9a99.3,99.3,0,0,1,24.3,25.3,127.4,127.4,0,0,1,10.1,18,281.4,281.4,0,0,1,16.5,32c12.6,28.7,22.8,47.5,32.8,60.9s21.9,22.9,35.2,27.2c27.4,9,65-.2,122-14,11.5-2.8,23.3-5.9,34.8-8.9,30.7-8.2,62.6-16.6,91.5-19.5,15.6-1.6,29-1.5,41.2.3s25.3,6,35.6,12.4a87.1,87.1,0,0,1,28.2,29c8,13.2,14.2,29.9,18.3,49.6v.3h-.2c-66.1-30.9-134.2-24.2-200-17.8-27.6,2.8-56.2,5.6-83.7,5.4-30.8-.2-57.3-4.3-80.9-12.3a102.8,102.8,0,0,1-31.4-17,94.9,94.9,0,0,1-20.6-23.7c-11-17.5-17.3-38.4-23.5-58.6-4.6-15.1-9.3-30.7-16-45q-14-23.1-30.6-39.2-3.3-3.1-6.6-6a118.5,118.5,0,0,0-34.7-15.5c-33.5-9.3-66.9-11.2-102.1-5.8-31.3,4.9-63.3,15.4-97.8,32.3-64,31.4-127,80.3-187.8,127.6-40.7,31.6-82.7,64.3-124.4,91.1-46.7,30.1-88.2,49.6-126.7,59.6a892.8,892.8,0,0,1-162.6,26.9c-49.1,3.5-98.5,2.9-151.1-1.7-98.2-8.7-191.8-30.2-291-53-67.5-15.5-137.3-31.6-211.3-44.1-46.2-7.8-115.9-19.5-150.8,23-11.6,14.1-12.5,29-13.4,43.3-1.2,19.6-2.3,38.2-29.5,53.9C107.6,440.1,95.6,443,82.1,443ZM-234.2,259c5.5,0,14.4,4.2,27.5,12.8,15.6,10.3,35.4,25.8,58.3,43.6,40.8,31.8,91.5,71.3,139.5,97.6,26.3,14.4,48.9,23.4,69,27.4,22.8,4.6,42.2,2.4,57.5-6.5,27.1-15.6,28.3-34.1,29.4-53.6.9-14.4,1.8-29.3,13.5-43.5,34.9-42.7,104.8-30.9,151.1-23.1,74,12.5,143.8,28.6,211.3,44.1,99.1,22.8,192.7,44.3,290.9,53,52.6,4.6,102,5.2,151.1,1.7a893.2,893.2,0,0,0,162.5-26.9c38.5-10,80-29.5,126.6-59.5,41.7-26.9,83.7-59.5,124.4-91.1,60.9-47.3,123.8-96.3,187.9-127.6,34.5-16.9,66.5-27.5,97.9-32.3a237.7,237.7,0,0,1,102.2,5.7A124.1,124.1,0,0,1,1799.2,95a133.6,133.6,0,0,0-49.8-26.2c-47.5-13.2-106.5-1.5-180.3,35.6-64.4,32.4-132.2,80.3-191.9,122.5-57.5,40.6-111.9,79-154.2,97.5-127.8,55.7-261.8,79.8-409.4,73.6-64-2.7-130.7-11-203.6-25.3-61.3-12.1-128.2-28.7-204.6-50.9C349.1,305.4,272.1,283,208,301.5c-34.4,9.9-56.9,34.8-78.6,58.9s-39.9,44.2-68.1,53.5C15,429.1-57.1,372.8-120.7,323c-26.1-20.4-50.7-39.7-71.2-52s-35.5-16.6-44.4-11.8A6.8,6.8,0,0,1-234.2,259ZM2178,287.3c38.8,0,77.8,5.2,116.1,23.1-8-38.3-23.1-63.8-46.3-78.1-10.2-6.4-21.8-10.4-35.4-12.4s-25.6-1.9-41.2-.3c-28.9,2.9-60.7,11.3-91.5,19.4-11.4,3.1-23.2,6.2-34.7,9-57,13.8-94.7,23-122.2,14-13.3-4.4-24.5-13-35.3-27.3s-20.2-32.2-32.9-61a302.6,302.6,0,0,0-15-29.6c6.1,13.7,10.5,28.3,14.9,42.7,6.1,20.1,12.5,41,23.4,58.5a97.8,97.8,0,0,0,20.6,23.5c8.9,7.3,19.2,12.8,31.3,17,23.6,8,50,12.1,80.8,12.3,27.5.2,56.1-2.6,83.7-5.3S2149.9,287.3,2178,287.3ZM1803.1,98l4.7,4.4a193.6,193.6,0,0,1,29.1,36.8,122.7,122.7,0,0,0-8.8-15.4,100.3,100.3,0,0,0-24.2-25.2Z"/><path class="cls-2" d="M134.3,491.2c-21.9,0-49.2-7.6-82.3-22.7C4.5,446.7-48.1,412.7-94.5,382.6s-86.2-55.9-112.3-64.4v-.3c48.5,6.3,96.8,38.9,143.5,70.4,27.5,18.5,55.8,37.6,83.6,51,15,7.1,28.7,12.2,41.8,15.3a123,123,0,0,0,41.8,3.1C143,453.8,169.3,436,192,415c-1.5-11.8-1.5-24.1,5.7-37.7s16.1-23.5,26.8-30.6,20.7-10,33.7-11.4c10.6-1.1,21.8-.6,33.4.8a130.8,130.8,0,0,1,23.8-5.3c16.4-1.9,34-1.1,53.7,2.6,71.1,13.4,143.3,33.7,213.2,53.3,35.8,10.1,72.8,20.5,108.8,29.8a519.1,519.1,0,0,0,108.4,15.7c33.8,1.5,68.8,0,107.1-4.3,71.2-8.2,140.6-25,214.1-42.8l10.2-2.4c52.8-12.8,102.6-31.9,152.5-58.7,45-24.1,89.6-54.2,136.1-92l11.7-9.5c21.5-17.6,48.4-39.5,77.8-60.3,34.5-24.3,65.4-42.1,94.4-54.3,36.1-15.1,69.2-21.3,98.5-18.4a131.1,131.1,0,0,1,46.8,13.5c15.5,7.9,30,19.3,43.1,33.8l3.7,4.4c35.6,26.7,51.8,53.9,66.2,78.1,11.7,19.5,21.7,36.3,39.5,49.9,19.6,14.9,46.5,23.8,84.6,27.9,10.5,1.1,21.4,2.8,32.8,5,11.6-2.3,23.7-5,36-7.8,47.5-10.5,101.4-22.5,146.1-19.5,51.2,3.5,83.3,26.2,97.9,69.4h-.1c-55.2,14.3-129.6-4.8-201.5-23.4-27.5-7-53.9-13.8-78.4-18.6-15.4,3.1-29.8,5.7-43,7.1l-9.3,1c-26.3,2.9-51.3,5.7-74.1,1.5a89.9,89.9,0,0,1-32.5-12.2c-10.6-6.7-19.8-15.8-28-27.8-13.7-19.8-15.1-41.6-16.5-62.7-1.5-22.9-3-46.4-20-67.9l-7.4-5.4c-28.3-19.6-58.9-30.8-91-33.2-28.4-2.2-58.7,2.5-90,14-48.6,17.6-100.5,51.3-158.9,103.1-44,39-84,73.7-127.5,102.8-46.9,31.3-93.8,53.4-147.7,69.3-62.5,18.5-129.6,37.1-196.9,48.3-76.1,12.7-141.9,14.1-201.2,4.4-82.9-13.7-166.1-34.6-246.5-54.9-57.8-14.6-117.5-29.6-176.6-41.8l-15.4-3.3c-14.8-3.2-29.9-6.5-44.5-8.3a116.9,116.9,0,0,0-16.8,7c-23.8,12-42.3,31.1-60.2,49.5-7.2,7.5-14.6,15-22.3,22.2.3,3,.8,6,1.3,9,1.6,10.1,3.1,19.7.5,29.2s-10.4,19.7-23.8,28.3Q155.6,491.2,134.3,491.2ZM-205.3,318.4c26.2,9,65.5,34.5,110.9,63.9s99,64.2,146.5,85.9c54.6,24.9,93.2,29.3,118.1,13.2,13.3-8.6,20.8-17.6,23.6-28.2s1.1-19-.5-29.1c-.5-2.9-.9-5.8-1.3-8.7-22.6,20.9-49,38.7-88,42.6a124.2,124.2,0,0,1-42-3.1,213.6,213.6,0,0,1-41.8-15.4C-7.6,426.2-36,407-63.4,388.5-109.6,357.3-157.4,325.1-205.3,318.4Zm497.6,17.8c14.4,1.8,29.3,5,43.8,8.2l15.5,3.3c59,12.2,118.8,27.3,176.5,41.8,80.5,20.3,163.7,41.2,246.6,54.9,59.2,9.7,125,8.3,201.1-4.4,67.2-11.2,134.3-29.8,196.9-48.3a523.8,523.8,0,0,0,147.5-69.3c43.5-29.1,83.5-63.7,127.5-102.8,58.4-51.7,110.4-85.4,159-103.1,31.3-11.4,61.7-16.2,90.1-14,32.2,2.4,62.8,13.6,91.1,33.3,2.3,1.5,4.5,3.1,6.6,4.7-.9-1.2-1.9-2.3-3-3.5-13-14.5-27.4-25.8-42.9-33.7a129.1,129.1,0,0,0-46.7-13.5c-29.3-2.9-62.4,3.3-98.4,18.4-29,12.2-59.9,29.9-94.4,54.3-29.4,20.7-56.2,42.6-77.7,60.3l-11.7,9.5c-46.6,37.7-91.1,67.8-136.2,92-49.9,26.7-99.8,45.9-152.5,58.7l-10.2,2.4c-73.5,17.8-143,34.6-214.2,42.7-38.3,4.4-73.3,5.9-107.2,4.4a524.8,524.8,0,0,1-108.3-15.7C655,407.5,618,397.1,582.2,387c-69.9-19.6-142.1-40-213.1-53.3-19.8-3.7-37.3-4.6-53.7-2.6A124.9,124.9,0,0,0,292.3,336.2ZM270.5,335q-6.3,0-12.3.6c-13,1.4-23.9,5.1-33.5,11.4s-19.5,16.9-26.7,30.4-7.2,25.7-5.8,37.4c7.7-7.2,15-14.7,22.2-22.1,17.9-18.5,36.4-37.5,60.2-49.6a134,134,0,0,1,16.3-6.8A177.4,177.4,0,0,0,270.5,335Zm1748.8-32.7c24.4,4.7,50.5,11.4,77.8,18.4,71.8,18.5,146.1,37.7,201.1,23.4-7.7-22.7-20.5-40-38.1-51.4-15.7-10.2-35.2-15.9-59.4-17.6-44.7-3-98.5,8.9-146,19.5ZM1796.1,142.1c16.4,21.3,17.9,44.6,19.4,67.2,1.4,21,2.8,42.8,16.4,62.6,8.2,11.9,17.3,20.9,28,27.6a88.9,88.9,0,0,0,32.3,12.2c22.8,4.2,47.7,1.4,74.1-1.5l9.2-1c13-1.4,27.2-3.9,42.3-6.9-11.1-2.1-21.8-3.8-32-4.9-38.2-4.2-65.1-13-84.8-28-17.8-13.6-27.9-30.4-39.5-49.9C1847.2,195.5,1831.1,168.5,1796.1,142.1Z"/><path class="cls-2" d="M164.1,513.5c-23.4,0-52.9-8.8-90-26.8S-.7,445.3-38.1,422.2c-50.6-31.3-98.5-60.9-134.8-71.6v-.3c38.8,5.3,86.4,34.7,136.8,65.9C.3,438.7,38,462,73.7,476.8c19.3,7.9,36.2,12.8,51.8,14.7,17.6,2.2,32.9.6,46.9-4.7,18.5-7,28.5-13.9,31.5-21.6s-.7-15.1-5.1-23.8c-6-12.2-12.8-26.1-4.2-44.5,21.9-47.2,73.3-41.2,123.1-35.3l4.7.5c45.3,5.3,90.6,12.9,135.5,21.5a701.3,701.3,0,0,1,111.7,14,984.2,984.2,0,0,1,116.7,31.8l17,5.9c57.5,11.3,115.4,20.8,172.7,25.8,52,4.4,99.6,4.9,145.4,1.3,51.4-4,99.4-12.8,146.7-27.1,53.9-16.3,99.3-36.5,142.8-63.5,39.6-24.6,78.6-55.7,122.7-97.8,23-22,43.8-41.6,66.1-60.1,25.6-21.3,49.1-37.4,71.7-49.3,27.1-14.4,53.3-22.8,79.9-26,29.7-3.4,60.2,0,90.8,10.3,22.2,7.5,38.3,16.5,50.8,28.5s18.8,23.4,27.4,37.8c6,10,12.8,21.4,21.9,33.5,17.4,23.4,33.8,37.5,53.1,45.7s36.3,9.4,59.7,11.8c16.2,1.6,34.5,3.5,55.9,7.7,17.2,3.4,34.1,9.4,50.5,15.1,18.4,6.5,37.5,13.3,56.8,16.2s40.5,1.2,63.4-.5,48.8-3.7,71-.2c25.2,3.9,43.6,14.4,56.3,31.8l.3.5-.4-.2c-16-6.9-30.2-9.1-44.9-7-13,1.9-24.7,6.9-37.2,12.3-16.4,7-33.4,14.3-55.8,15.5-37.2,1.8-59.7-12.2-85.6-28.4-10.6-6.5-21.4-13.3-34-19.5-23.7-11.5-49.9-20.3-80.3-26.9-27.2-5.8-55.1-9.4-82.1-12.9-47.3-6-96.1-12.3-143.4-30.9-76.8-30.2-136.5-34.9-193.7-15-24.9,8.7-50.2,22.2-79.8,42.5-27.7,19-57.5,43-86.4,66.2-37.7,30.4-71,50.4-107.9,65-34,13.4-68.3,21.5-120.9,33.2l-12.5,2.9c-123,27.6-229.1,51.5-352.1-2.7-29.7-13.1-59.6-24.9-89-35.3-39.5-7.8-78.8-16.4-117.5-24.8-42-9.2-84.8-18.5-127.9-26.9-44.7-1.7-86,2.1-123.4,11.2-40.8,9.9-63.1,37.3-84.7,63.7s-41.9,51.4-78.6,54.4C168.9,513.4,166.5,513.5,164.1,513.5ZM-171,350.9c36.2,11.2,83.3,40.3,133.1,71,37.4,23.1,76,47,112.1,64.5,40.9,19.8,72.5,28.5,96.9,26.5,36.6-2.9,56.9-27.9,78.4-54.3s43.9-53.8,84.8-63.8q55.5-13.5,121.7-11.2c-44.3-8.6-88.9-16-133.7-21.2l-4.6-.6c-49.7-5.7-101-11.7-122.9,35.2-8.5,18.3-1.7,32.1,4.3,44.3,4.4,8.8,8.1,16.4,5.1,24s-13.1,14.7-31.7,21.8c-14,5.3-29.4,6.9-47,4.7-15.6-1.9-32.6-6.8-51.9-14.8C37.9,462.2.2,439-36.2,416.4-85.8,385.8-132.6,356.9-171,350.9ZM705.2,436c28.8,10.2,58,21.8,87.1,34.6,122.9,54.2,229,30.3,351.9,2.7l12.6-2.8c52.5-11.8,86.8-19.9,120.8-33.3,36.8-14.5,70.1-34.5,107.8-64.9,28.9-23.2,58.7-47.2,86.5-66.3,29.5-20.3,54.9-33.8,79.8-42.5,57.2-19.9,117-15.2,193.9,15.1,47.3,18.5,96.1,24.8,143.3,30.8,27,3.5,55,7.1,82.1,12.9,30.5,6.6,56.7,15.4,80.4,27,12.6,6.1,23.5,12.9,34,19.5,25.9,16.2,48.3,30.1,85.5,28.3,22.3-1.2,39.3-8.5,55.7-15.5,12.5-5.4,24.2-10.4,37.3-12.3s28.7.1,44.5,6.8c-12.7-17.2-31-27.4-55.8-31.3-22.3-3.5-47-1.6-71,.2s-44.6,3.3-63.4.5-38.5-9.7-56.9-16.2c-16.4-5.7-33.3-11.7-50.5-15.1-21.3-4.2-39.7-6.1-55.9-7.7-45.6-4.7-75.8-7.7-113-57.6-9-12.1-15.8-23.5-21.8-33.5-8.6-14.4-16.1-26.8-27.4-37.7s-28.5-21.1-50.7-28.5c-30.5-10.3-61-13.7-90.6-10.3-26.7,3.2-52.8,11.6-79.9,25.9-22.6,11.9-46,28.1-71.6,49.3-22.3,18.5-43.1,38.2-66.1,60.1-44.1,42.1-83.1,73.2-122.7,97.8-43.6,27.1-89,47.3-142.9,63.6a692.5,692.5,0,0,1-146.8,27.1c-45.8,3.6-93.4,3.1-145.4-1.3C819.3,456.5,762.1,447.1,705.2,436ZM459.8,384c42.5,8.2,84.5,17.4,125.9,26.5,38.2,8.3,76.8,16.7,115.6,24.4l-15.1-5.2a984.2,984.2,0,0,0-116.7-31.8Q511.8,386.2,459.8,384Z"/><path class="cls-2" d="M896.1,588.2a167.2,167.2,0,0,1-43.3-5.9c-39.5-10.5-64.6-33.1-91.1-56.9-16.7-15-33.9-30.5-55.2-42.8s-48.3-21.8-84-29.6c-30.9-6.9-62.6-11.1-88.1-14.6-39.6-5.3-73.6-7.4-104-6.5-40.8,1.3-75.1,8.2-101.8,20.7-21.6,10.1-37.8,23.5-53.5,36.5-17.8,14.7-34.7,28.7-58.1,37-8.3,4.7-19.2,8.5-34.7,11.3-33.3,6.1-71.8-1.4-117.7-22.9-6.4-2.9-12.8-6.1-19.2-9.5-50-22.8-97.9-55.4-140.7-84.4-14.3-9.7-27.9-18.9-40.9-27.3l.2-.3c24.9,12.5,53.1,31.2,83,51.1,32,21.2,65,43.1,98.5,60.7,50.5,23,103.1,36.2,154.4,25.7a119.1,119.1,0,0,0,16.9-4.7c13.6-7.7,19.8-17.8,27.4-30s16.2-26.1,34.4-41.7,42.9-27.1,73.2-33c26.7-5.2,54.5-6.1,81.4-7l5.5-.2a692.5,692.5,0,0,1,96.9,3.3,548.8,548.8,0,0,1,87.6,16.6c53.7,14.7,106.3,37.9,165.5,73,60.8,36,118.7,48.6,182.2,39.8,27-3.8,53.9-11.3,81-20.9,22.9-13.8,46.6-27.4,71.8-37.4s49.6-18.7,73.1-27.1c26.4-9.5,51.9-18.7,76.9-28.9,48.4-22,93.6-46.8,139.8-86.4,15.5-13.3,30.5-27.5,45-41.3,37.2-35.2,72.3-68.5,111.7-83,21.2-7.8,41.9-9.5,63.2-5.4,23.8,4.6,48,16.3,74,35.8,13.9,10.4,25.5,24.7,36.4,39.6a33.3,33.3,0,0,0,2.5,2.8c22.8,25,44.4,48.5,83,63.7,22.3,8.7,46.2,14.1,70.2,18.3,8.8-.8,17.7-1.8,26.7-2.8,36.2-4,73.6-8.2,108.5,1.5,14.4,4,28.8,9.6,42.7,15.1,24.3,9.5,49.4,19.3,76,21,17.4,1,38.7-5.1,61.2-11.6,20.7-5.9,42.1-12.1,61.4-12.8,21.9-.7,38.1,5.8,49.5,20l.2.2h-.3c-24.4-1.2-46.1,9.4-69,20.5-25.7,12.5-52.2,25.5-84.7,22.6s-64.5-16.4-94.7-29.4c-15.2-6.5-30.9-13.2-46.6-18.5-30.7-10.3-63.6-15.2-95.5-20-11.7-1.7-23.5-3.5-35.4-5.5-27.5,2.4-53.4,2.6-76.7-5.7-31-11-50.8-39.1-70-66.2-3.1-4.3-6.1-8.7-9.3-13-14.7-16.1-30.2-32.5-51.1-47s-43.4-24.1-64.8-26.3c-19.1-2-38,1-57.7,9.4-36.5,15.5-70.1,47.1-102.6,77.7-15.1,14.2-30.7,28.9-46.2,41.6-33.7,27.5-68.6,49.4-110,69-12.3,5.9-24.7,11.3-37.3,16.4-19.9,9-40.4,17.6-61.7,26.5-14.3,6-29.1,12.2-44.3,18.8l-22.4,9.8c-31.8,13.9-62.8,27.4-93.3,38.3l-11.4,6.9c-29.5,17.9-57.3,34.9-87.8,45.3a176.9,176.9,0,0,1-47.6,9.7ZM444.5,431.4c26.7,0,56.3,2.2,89.9,6.7,25.5,3.5,57.2,7.7,88.2,14.6,35.7,7.9,63.2,17.5,84,29.6s38.6,27.9,55.3,42.9c26.5,23.8,51.5,46.3,91,56.8a162.7,162.7,0,0,0,52.4,5.6,176.2,176.2,0,0,0,47.5-9.7c30.4-10.4,58.3-27.3,87.7-45.3l10.2-6.1c-26.8,9.4-53.2,16.7-79.7,20.4-63.6,8.8-121.6-3.8-182.5-39.9-59.1-35-111.7-58.2-165.4-72.9a546.7,546.7,0,0,0-87.6-16.6,691.1,691.1,0,0,0-96.8-3.3l-5.5.2c-26.9.9-54.7,1.8-81.3,7-30.3,5.9-54.2,16.7-73.1,32.9s-26.8,29.4-34.3,41.6-13.5,21.7-26.1,29.4c22.6-8.4,39.2-22.1,56.5-36.5,15.7-12.9,31.9-26.3,53.5-36.4,26.8-12.6,61.1-19.5,102-20.8ZM50.3,507.2c4.8,2.5,9.6,4.8,14.4,7.1,45.8,21.4,84.3,28.9,117.5,22.8,14.6-2.7,25.1-6.1,33.1-10.4a131.1,131.1,0,0,1-15.3,4.1C150.3,541,99.4,529,50.3,507.2Zm1216.5-71.7c-22.8,9-45.9,17.4-69.9,26s-47.8,17.1-73.1,27.1-48,23.1-70.5,36.6c30.1-10.7,60.6-24.1,92-37.8l22.3-9.7c15.3-6.6,30.1-12.8,44.4-18.8C1230.9,451,1249,443.4,1266.8,435.5Zm-1400.5-41c12.3,8,25.1,16.7,38.6,25.9,41.3,28,87.5,59.3,135.6,82-31.9-17.1-63.2-37.9-93.7-58.1C-82.1,425.1-109.4,406.9-133.7,394.5Zm2034.4-17.9c11.4,1.9,22.9,3.6,34.3,5.3,31.8,4.8,64.8,9.7,95.5,20,15.7,5.3,31.4,12,46.6,18.6,30.2,12.9,61.4,26.3,94.6,29.3s58.9-10,84.6-22.5c22.8-11.1,44.4-21.6,68.7-20.6-11.3-14-27.3-20.4-49-19.6-19.3.7-40.6,6.9-61.3,12.8-22.5,6.5-43.9,12.6-61.3,11.6-26.6-1.7-51.8-11.5-76.1-21.1-13.9-5.4-28.3-11.1-42.7-15-34.8-9.7-72.2-5.5-108.4-1.5ZM1611.3,214.3a117.3,117.3,0,0,0-41,7.6c-39.4,14.5-74.5,47.7-111.6,83-14.5,13.7-29.5,27.9-45,41.2-44,37.7-87,62-132.8,83.2,10.1-4.2,20.1-8.6,30.1-13.4,41.3-19.5,76.3-41.4,109.9-69,15.5-12.7,31.1-27.3,46.2-41.5,32.5-30.6,66.2-62.3,102.7-77.8,19.7-8.4,38.6-11.4,57.8-9.4,21.5,2.3,42.8,10.9,65,26.3,20.1,14,35.1,29.7,49.3,45.2-10.4-14.1-21.5-27.6-34.6-37.4-26-19.6-50.2-31.3-73.9-35.8A111.2,111.2,0,0,0,1611.3,214.3Zm134,79.4,7.7,10.9c19.2,27.1,39,55.2,69.9,66.2,22.9,8.1,48.4,8,75.5,5.7-23.7-4.2-47.2-9.5-69.2-18.2-38.7-15.1-60.3-38.7-83.1-63.7Z"/><path class="cls-2" d="M851.2,692.4c-27.1,0-56-5.7-87.5-19.2-46.6-19.9-71.7-53.9-96-86.9-31.4-42.5-61-82.6-133-87-58-3.6-113.3,14.7-166.8,32.4-41.6,13.8-84.5,28.1-128.1,31.8-9.1.7-18.1,1.1-27,1.1C96.2,564.6-12,501.8-105.3,441.9l.2-.3c30,11.7,60.2,27.6,92,44.4,37.7,19.8,76.6,40.2,116.2,53.9,44.8,15.4,84.5,19.9,121.6,13.6,43.2-7.2,80.9-22.3,117.3-36.8,26.7-10.7,54.4-21.7,83.6-29.4,32.7-8.5,64.2-11.9,96.4-10.3,48.2,2.5,117.6,10.4,162.2,50.4,18.8,16.8,32,38.5,44.8,59.5,16.7,27.3,33.9,55.6,63.8,74,23.1,14.2,45.2,22.3,67.7,24.7,20.1,2.2,40-.2,60.9-7.3,38.9-13.1,74.2-40,111.6-68.5,13.9-10.6,28.3-21.6,42.8-31.6,48.3-33.7,103.9-55.8,157.7-77.1,44.7-17.8,90.9-36.2,133-61.2,35.4-21,65.3-43.3,91.7-63.1,41.4-30.9,77.2-57.7,118-67.3,21.4-5,43.3-5.1,66.8-.3,25.4,5.3,52.9,16.3,84,33.8,51.5,28.9,104.5,50.8,166.8,68.9,55.8,16.2,112.6,27.5,172.8,39.5l51.9,10.4c11,2.3,20.8,5,30.3,7.5,15.4,4.2,30,8.2,45.1,9,16.6.8,32.5-2.2,49.9-9.7,12.9-5.5,23.3-16.1,33.3-26.3,12.3-12.5,23.8-24.3,37.9-24.3h.3c10,.2,20.4,6.2,31.9,18.6l.4.3h-.5c-29.3-6.3-50.2,13.5-72.3,34.4-15,14.2-30.5,28.9-49.7,36.6a182.9,182.9,0,0,1-62.8,13.6c-19.3.8-39.5-1.2-63.5-6.1-49.5-10.3-103.1-23.6-155.1-38.7-56-16.2-109-34.1-153.2-51.7-27.5-11-51.1-22-72-31.7-42.5-19.7-76.1-35.3-112.9-37.1-19-1-38.5,1.8-59.6,8.4s-47,18.5-75.6,35.2c-58.6,34.3-121.8,60.9-183,86.7-64.2,27-130.6,55-190.9,91.6-18.1,10.9-35.8,22.7-52.9,34.1C981.9,653,922.6,692.4,851.2,692.4ZM519.8,498.5c5,0,9.9.2,14.9.5,72.2,4.4,101.8,44.6,133.2,87.2,24.3,32.8,49.4,66.9,95.9,86.8,114.1,48.8,194.5-4.6,279.6-61.2,17.2-11.3,34.9-23.1,52.9-34,60.4-36.6,126.8-64.6,191-91.7,61.1-25.8,124.4-52.4,183-86.6,28.5-16.8,53.3-28.3,75.6-35.3s40.7-9.4,59.8-8.4c36.8,1.8,70.4,17.4,112.9,37.2,20.9,9.7,44.5,20.6,72,31.6,44.2,17.6,97.2,35.5,153.2,51.8,51.9,15,105.6,28.4,155,38.6,24.1,5,44.2,6.9,63.5,6.1a184.5,184.5,0,0,0,62.7-13.5c19.1-7.8,34.6-22.4,49.6-36.6,22-20.9,42.9-40.6,72.1-34.6-11.3-12-21.6-17.9-31.4-18.1h-.3c-14,0-25.5,11.8-37.7,24.2-10,10.3-20.5,20.9-33.3,26.4-17.5,7.5-33.4,10.5-50.2,9.7-15.1-.8-29.6-4.8-45-9-9.6-2.6-19.4-5.2-30.3-7.5l-51.9-10.4c-60.2-12-117.1-23.4-172.9-39.6-62.3-18.1-115.3-40-166.8-68.9-31.1-17.4-58.6-28.4-84-33.7-23.4-4.8-45.2-4.7-66.7.3-40.7,9.6-76.4,36.3-117.8,67.3-26.4,19.7-56.3,42.1-91.8,63.1-42.1,25-88.3,43.4-133,61.1-53.8,21.4-109.4,43.5-157.7,77.1-14.4,10.1-28.8,21-42.8,31.7-37.3,28.4-72.6,55.3-111.6,68.5-20.9,7.1-40.9,9.5-61,7.3-22.6-2.5-44.7-10.6-67.8-24.7-30-18.5-47.2-46.8-63.9-74.2-12.8-20.9-26-42.6-44.8-59.4-44.6-39.9-113.8-47.8-162.1-50.3-32-1.6-63.5,1.8-96.2,10.3-29.2,7.7-56.9,18.7-83.6,29.4-36.5,14.5-74.1,29.5-117.4,36.8a203.7,203.7,0,0,1-61.5.9c-19.1-2.4-38.7-7.1-60.2-14.5-39.6-13.7-78.5-34.2-116.2-54-31.4-16.5-61.1-32.1-90.6-43.8C-3.7,506.7,113.5,573.9,239.7,563.2c43.6-3.7,86.6-18,128.1-31.7C416.7,515.2,467.2,498.5,519.8,498.5Z"/><path class="cls-2" d="M723.2,728a171.8,171.8,0,0,1-52.5-7.7c-38.6-12.2-71.9-37.9-122-78.8-17.3-14.1-37-24.7-60.1-32.6-20.6-7-43.6-11.5-70.1-14-49.4-4.4-104.3-.6-157.3,3.2C192.3,603,121.1,608,60.1,595c-32.8-6.9-60.2-18.4-83.5-35.1a188,188,0,0,1-34.4-31.8,218.2,218.2,0,0,1-28.3-43.6l-.2-.4.3.2c56.9,28.5,116.4,53,172.1,70.9,67.8,21.9,129.3,34,182.5,35.9,45.1,1.6,90.8-17.6,135.1-36.2,23.5-9.8,47.9-20.1,71.2-26.6,26.1-7.4,48.5-9.4,68.5-6.2,13.8,2.2,25.6,6.2,35.8,12.1A82.3,82.3,0,0,1,603,554.9c12.8,16,20.1,35.4,27.7,55.9,14.7,39.3,29.9,79.9,86.4,94.2,29,7.3,60.2,8.8,92.6,4.5a326.3,326.3,0,0,0,50.8-11A593.1,593.1,0,0,0,930,666.9c33.7-17.9,66.1-38.4,97.4-58.3,42.5-26.9,86.4-54.8,135.3-77.3,67-30.9,125.3-61.5,183.6-96.3,54.1-32.4,108.9-68.9,172.4-115.1,24.7-17.8,45.9-29.6,65.1-35.8s33.8-6.8,48.1-2.6c19.5,5.7,36,20.6,51.8,46.8,7.8,13,15.1,28,22.3,44.7,8.4,6.6,16.6,13.1,24.5,19.5,58.6,46.6,109.2,86.9,166.1,111.9a324.5,324.5,0,0,0,92.6,25.6c35.2,4.4,73,3.9,115.7-1.8,29.6-3.8,66.4-22.1,102-39.7,31.4-15.5,63.9-31.6,92.2-38.3,15.2-3.7,27.9-4.4,38.9-2.2a49.4,49.4,0,0,1,30.1,18.5l.3.4h-.4c-28.9-7.4-60.7,14.5-91.5,35.7-17.6,12.2-34.2,23.6-50,29.7-52.4,20-117.9,28.8-169.1,34.3-85.1,9.1-148.4,4.8-199.3-13.3-30.2-10.8-56.4-27-78-48.1-23.4-22.8-42.4-52.4-56.4-87.9-6.1-15.6-12-30.4-17.9-44l-7.3-5.8c-25-19.7-48.1-32.2-70.6-38.4a116.8,116.8,0,0,0-60.7-.5c-38.5,9.9-73.8,37.5-114.7,69.5-15.2,11.9-30.9,24.2-47.8,36.3-53.9,38.8-115.3,60.8-174.8,82.1-56.3,20.2-114.6,41.1-167.2,76.3-47.5,31.9-103.2,67.9-162.3,92-13.7,5.5-26.9,10.2-39.8,14s-26.3,9.3-39.5,13c-33.8,9.4-61.8,14.7-85.8,16ZM369.6,592.6c16.7,0,33.1.6,48.9,2,26.6,2.5,49.5,7,70.2,14,23.2,7.9,42.8,18.6,60.2,32.7,50.1,40.8,83.3,66.5,121.9,78.7,19.8,6.3,40.9,8.7,64.5,7.4s52-6.6,85.7-16c11.9-3.3,23.7-7.1,35.6-11.5a319.5,319.5,0,0,1-46.9,9.9c-32.4,4.3-63.6,2.8-92.7-4.6-56.6-14.2-71.8-54.9-86.5-94.3-7.7-20.5-15-39.9-27.7-55.9a84.1,84.1,0,0,0-23.7-20.5c-10.2-5.9-21.9-9.9-35.8-12.1-19.9-3.2-42.2-1.2-68.3,6.2-23.3,6.5-47.6,16.7-71.2,26.6-44.3,18.6-90.1,37.8-135.2,36.2-53.3-1.9-114.7-14-182.6-35.9C30.4,537.6-28.9,513.1-85.7,484.8a224,224,0,0,0,28.1,43.1,188,188,0,0,0,34.4,31.8c23.3,16.6,50.6,28.1,83.4,35.1,61,12.9,132.1,7.9,201,3C297.2,595.2,334.1,592.6,369.6,592.6ZM1613.3,279.2a93.1,93.1,0,0,0-29.4,5.2c-19.2,6.2-40.4,17.9-65,35.8-63.5,46.1-118.3,82.7-172.4,115-58.3,34.9-116.7,65.5-183.7,96.3-48.9,22.6-92.8,50.4-135.2,77.3-31.4,19.9-63.8,40.5-97.5,58.4a604.6,604.6,0,0,1-65.4,30c11.6-3.6,23.4-7.9,35.6-12.8,59-24,114.7-60.1,162.3-91.9,52.5-35.3,110.8-56.2,167.2-76.4,59.4-21.2,120.9-43.3,174.8-82,16.8-12.2,32.6-24.5,47.8-36.4,40.9-32,76.2-59.6,114.7-69.5a116.5,116.5,0,0,1,60.9.6c22.5,6.1,45.6,18.7,70.7,38.4l6.8,5.4c-7.1-16.5-14.3-31.3-22-44.1-15.9-26.2-32.3-41-51.7-46.7A66.2,66.2,0,0,0,1613.3,279.2Zm92.9,94.3c5.9,13.6,11.7,28.2,17.8,43.6,14,35.5,32.9,65,56.3,87.8,21.5,21.1,47.8,37.2,77.9,48,50.8,18.1,114.1,22.4,199.1,13.3,51.3-5.5,116.8-14.3,169.1-34.3,15.8-6,32.4-17.5,50-29.6,30.6-21.2,62.3-43,91.2-35.9a49.4,49.4,0,0,0-29.6-18.1c-11-2.2-23.7-1.5-38.9,2.2-28.2,6.7-60.6,22.8-92,38.3-35.7,17.6-72.5,35.8-102.2,39.7-42.7,5.6-80.5,6.2-115.7,1.8a324.3,324.3,0,0,1-92.7-25.6c-57-25-107.6-65.3-166.1-112Z"/><path class="cls-2" d="M598.4,795.6a187.2,187.2,0,0,1-45.9-5.3,124,124,0,0,1-36.8-15.5,112,112,0,0,1-29.6-27.9c-13.3-18.2-19.3-32.6-24.1-44.1s-8.4-20.1-16.7-28.6-22.4-17.1-43.7-25.5-53.2-9.8-80.4-10.8c-11.4-.4-22.2-.7-31.7-1.6-62.1-5.8-128.1-13.4-190.3-30.2a557.9,557.9,0,0,1-88.7-31.7,485.9,485.9,0,0,1-84.8-50.1l-.7-.4.8.2C-30,536,12.4,553.5,53.4,570.5c36.4,15.1,74.2,30.7,112.4,42,42.8,12.5,82.1,18.2,120.1,17.4,34.7-.8,61.2-4.5,84.6-7.7,56.4-7.7,90.4-12.4,160.8,37.3a375.3,375.3,0,0,0,65,37,303.6,303.6,0,0,0,63.3,20c39.4,7.7,79.6,7.2,123-1.5,36.2-7.3,75.3-20.6,119.5-40.6,39.5-17.9,79.4-39.4,118-60.2,55.4-29.9,112.6-60.8,170-81.7,17.2-6.3,35-12.1,52.1-17.8,29.3-9.6,59.4-19.5,88.2-32.1l24.4-15c16.5-10.2,33.3-20.7,50.1-30.5,7.8-6.2,15.6-12.7,23.6-19.3,40.4-33.5,82.2-68.1,124.1-73.2,19.8-2.5,36.7-.9,51.6,4.9,13.4,5.1,24.9,13.3,35.2,25.3,19.2,22.3,30.9,53.1,43.3,85.7,13.5,35.6,27.5,72.5,52.2,97.2,22.6,22.4,51,38.2,84.7,46.9,29.2,7.5,63.1,9.9,100.9,7,31.2-2.3,65-8,103.4-17.4,32.9-8.1,63.9-17.7,92.5-26.8,19.2-6.1,46.3-20.9,75-36.6s60.4-33,89.7-44.7c33.4-13.4,58.3-17.1,76.1-11.5,11.4,3.6,20.1,11.3,25.7,22.8h-.1c-58.7,8.3-127.9,41.4-201.1,76.5-76,36.4-154.5,74-229.9,88.4-40.8,7.8-76.6,8-109.3.8a199.2,199.2,0,0,1-50.7-18.8,214.6,214.6,0,0,1-47.1-34.8c-29.9-28.9-45.3-68.8-60.2-107.4-13.4-34.8-26.1-67.6-48.3-90.1a92.4,92.4,0,0,0-41.6-24.7c-17.9-5-38.6-5.6-63.2-1.8-26.4,4.1-55.3,14.2-88.2,30.8-12.7,6.4-25.4,13.5-38.1,20.9-16.2,12.9-31.9,24.4-47,32.3-9,4.8-18.2,9.1-27.5,13.2-37.9,23.1-76.6,45.2-114.9,58.1-60.2,20.2-112.7,54.2-163.5,87s-104.5,67.6-166,88.3c-16.5,5.5-35,12.4-54.7,19.8-56.7,21.1-127.3,47.4-190.6,56.3A313.7,313.7,0,0,1,598.4,795.6Zm-671.9-271a484.1,484.1,0,0,0,84.2,49.5,563.2,563.2,0,0,0,88.6,31.8c62.2,16.7,128.2,24.3,190.2,30.1,9.5.9,20.3,1.2,31.7,1.6,27.2,1,58.2,2.1,80.5,10.9s34.8,16.2,43.8,25.5,12,17.4,16.7,28.7,10.8,25.9,24.2,44a108.2,108.2,0,0,0,29.5,27.8A122.3,122.3,0,0,0,552.6,790c24.7,6.3,53.6,6.9,88.2,2.1,63.4-8.9,133.9-35.2,190.6-56.3,19.7-7.3,38.2-14.3,54.7-19.8,61.5-20.7,114.6-55,165.9-88.2s103.4-66.9,163.6-87.1c37.7-12.7,75.7-34.2,113-57-28.3,12.3-57.7,21.9-86.3,31.3-17.1,5.7-34.9,11.5-52.1,17.8-57.4,20.9-114.6,51.8-169.9,81.6-38.6,20.8-78.5,42.4-118,60.3-44.3,20-83.4,33.3-119.6,40.6-43.5,8.7-83.7,9.2-123.1,1.5a302.6,302.6,0,0,1-63.4-20,372.4,372.4,0,0,1-65-37.1c-33.2-23.4-59.6-35.7-85.5-40.1-24.3-4.1-46.7-1-75.2,2.9-23.4,3.2-49.9,6.9-84.6,7.7-38,.8-77.3-4.9-120.2-17.5-38.2-11.2-76-26.8-112.4-41.9C12.5,553.9-29.6,536.5-73.5,524.6ZM1561.2,382.9a125.8,125.8,0,0,1,33.5,4.3,92.9,92.9,0,0,1,41.7,24.8c22.3,22.5,35,55.4,48.4,90.2,14.9,38.6,30.3,78.4,60.1,107.3a212.7,212.7,0,0,0,47,34.7,199.9,199.9,0,0,0,50.6,18.8c32.7,7.2,68.4,7,109.2-.8,75.4-14.4,153.9-52,229.9-88.4,73.2-35,142.3-68.1,201-76.5-5.6-11.3-14.2-18.8-25.5-22.4-17.7-5.6-42.5-1.9-75.9,11.5-29.2,11.6-61.3,29.2-89.7,44.7s-55.7,30.5-75,36.6c-28.6,9.1-59.6,18.6-92.5,26.7-38.4,9.5-72.3,15.2-103.5,17.5-37.8,2.9-71.8.5-101-7-33.7-8.7-62.2-24.5-84.8-47-24.7-24.7-38.7-61.6-52.3-97.3-12.4-32.6-24.1-63.4-43.2-85.6-10.3-11.9-21.8-20.2-35.1-25.3-14.9-5.7-31.8-7.3-51.5-4.8-41.7,5-83.5,39.6-123.9,73.1-7.5,6.2-14.8,12.3-22,18.1,12.1-7,24.3-13.7,36.3-19.8,33-16.7,61.9-26.7,88.3-30.9A203,203,0,0,1,1561.2,382.9Zm-157.9,55.5c-16.2,9.5-32.5,19.6-48.4,29.5l-22.5,13.8c8.7-3.8,17.2-7.8,25.6-12.2C1372.6,461.8,1387.7,450.8,1403.3,438.4Z"/><path class="cls-2" d="M555.4,827.3a192.8,192.8,0,0,1-30.9-2.3c-22.5-3.7-43.1-11.8-64.9-25.5-19.2-12.2-36.3-26.8-54.4-42.2-36.6-31.3-74.5-63.7-130.9-73.4-57.9-10-119.6-21.8-178-40.8C33.9,622.7-19.5,596-67,561.2l-.6-.5.8.2c48.1,12,93.3,29.8,137,46.9,31,12.1,62.9,24.6,95.3,34.9,36.3,11.5,69.5,18.9,101.5,22.6,11.1,1.3,22.6,2.1,34.8,2.9,34.3,2.3,69.9,4.6,98.5,19.7,24,12.7,36.1,32.8,47.9,52.2,9.3,15.4,18.9,31.3,34.4,43.1,18.5,14,44.2,21.7,76.5,22.9,27.9,1,61.5-2.8,100-11.4,70.7-15.8,147.3-45.1,203.3-66.5,17.3-6.6,33.5-12.8,47.2-17.7,34.7-12.5,68.3-28.1,101.1-45,13.3-8.5,26.3-17.1,39.2-25.7,45.6-30.3,92.6-61.7,145.8-80.4,9-3.1,18-5.9,27.1-8.4q23.4-10.9,47.5-20.6c29.8-11.7,66-36.1,104.3-61.9s76.2-51.4,113.8-69.3c42.8-20.3,77-26.2,104.5-18,14.5,4.4,26.8,10.7,37.4,19.5s17.6,17.4,24.6,29.3c13.1,22.1,20.3,48.2,27.9,75.7,13.9,50.3,28.3,102.3,81.1,128.3,15.1,7.5,34.8,10.6,60.1,9.6,22.4-.8,48.8-4.9,80.5-12.5,58.8-14.1,126.3-37.9,191.6-60.9,137.9-48.6,268.1-94.6,295.3-41.8v.2h-.2c-18.1-1.4-37.8-.2-60.1,3.6-19.9,3.3-41.5,8.7-66,16.4-45.7,14.2-93.3,33.9-143.7,54.7-74,30.6-150.5,62.2-220.8,75.5-38,7.2-70.7,8.6-100.2,4.1a185.8,185.8,0,0,1-45.2-12.5,172.4,172.4,0,0,1-40.9-24.6c-34.5-28-48-69.7-61.1-110-10.6-32.9-20.7-64-41.5-84-11.1-10.8-24.4-17.5-40.6-20.6-18.1-3.5-39.4-2.5-65.2,3.1-31.5,6.7-59,25.5-85.5,43.6-16.3,11.1-33.2,22.6-50.6,31.1-33.2,16.1-67.8,23.8-101.2,31.3-15.1,3.4-30.4,6.8-45.8,11-43,20.2-84.3,43.6-124.6,66.4-28.6,16.2-57.7,32.7-87.4,48.1-33.7,21.4-68.8,41.4-107.1,54.9-22.8,8.1-49.1,18.7-76.9,29.9C741,785.2,636.5,827.3,555.4,827.3ZM-66.2,561.4c47.3,34.5,100.5,61.2,162.6,81.4,58.4,19,120,30.8,177.9,40.8s94.5,42.2,131.1,73.5c18.1,15.4,35.2,30,54.3,42.1,21.8,13.7,42.4,21.8,64.8,25.5,84,13.6,205-35.2,302.3-74.4,27.8-11.2,54.1-21.8,76.9-29.9C941,707.3,975.2,688,1008,667.2c-31.9,16.4-64.6,31.4-98.3,43.6-13.7,4.9-29.9,11.1-47.2,17.7-56,21.4-132.6,50.7-203.4,66.5-38.5,8.6-72.1,12.4-100,11.4-32.3-1.2-58.1-8.9-76.7-23-15.5-11.8-25.2-27.7-34.5-43.2-11.7-19.4-23.8-39.4-47.8-52-28.5-15.1-64-17.4-98.3-19.7-12.2-.8-23.7-1.6-34.8-2.9-32-3.7-65.2-11.1-101.6-22.6-32.4-10.3-64.3-22.8-95.3-34.9C26.6,591-18.3,573.4-66.2,561.4ZM1548.7,428.9a114.9,114.9,0,0,1,22.5,2c16.3,3.1,29.7,9.9,40.8,20.7,20.9,20.1,31,51.2,41.6,84.1,13.1,40.3,26.6,82,61,109.9a171.5,171.5,0,0,0,40.8,24.5,186.3,186.3,0,0,0,45.1,12.5c29.5,4.5,62.2,3.1,100.1-4.1,70.3-13.3,146.8-44.9,220.8-75.5,50.4-20.8,98-40.4,143.7-54.7,24.6-7.7,46.2-13.1,66.1-16.4,22.2-3.8,41.8-4.9,59.8-3.6-27.3-52.2-157.3-6.4-294.8,42.2-65.3,23-132.8,46.8-191.6,60.9-31.8,7.6-58.1,11.7-80.6,12.5-25.3,1-45-2.2-60.2-9.6-53-26-67.4-78.1-81.3-128.5-7.6-27.5-14.8-53.5-27.8-75.6a107.7,107.7,0,0,0-24.5-29.3,105.6,105.6,0,0,0-37.4-19.4c-27.5-8.2-61.6-2.3-104.3,18-37.6,17.8-76.3,44-113.8,69.2s-74.5,50.3-104.3,62c-15.5,6.1-30.8,12.8-45.9,19.9,14.8-4,29.6-7.3,44.1-10.6,33.4-7.4,68-15.2,101.1-31.3,17.5-8.4,34.3-19.9,50.6-31,26.6-18.2,54.1-36.9,85.6-43.7C1521.8,430.6,1535.9,428.9,1548.7,428.9ZM1221.3,551.8c-8.6,2.3-17.1,4.9-25.5,7.9-53.1,18.7-100.2,50-145.7,80.3-12,8-24.2,16.1-36.5,24,28.7-14.9,56.9-30.8,84.5-46.5C1138,594.9,1178.8,571.8,1221.3,551.8Z"/><path class="cls-2" d="M511.3,858.9a213.8,213.8,0,0,1-30.2-2c-27.3-3.6-43.5-7.9-54-14.4s-14.7-14-20.9-24.8-15.9-27.4-36.7-47.9c-28.1-27.7-44.1-30.2-68.3-34.1-10.7-1.8-22.9-3.7-38.3-8.3-28.8-8.5-57.4-15.3-85-21.9C91.7,685,10.3,665.5-64,599.4l-.4-.3h.5c82.8,17.6,170.1,44.4,254.4,70.4,35.8,11,69.5,21.4,103.1,31.2,52.8,15.4,79.7,47.8,105.8,79.1,23,27.7,44.8,53.9,82.9,68.5,71,27.2,217.9-35.1,325.1-80.5,34.7-14.7,64.7-27.4,87-35,52.2-17.7,100.2-44.9,146.5-71.2,44.6-25.4,90.8-51.6,140.2-68.9,36.5-12.8,81.5-25.7,126.8-36.3,49.4-11.7,95-19.7,131.8-23.3a208,208,0,0,1,59.2,2.5,211.3,211.3,0,0,1,50.5,16.5c31.4,14.7,59.3,35.9,86.2,56.4,21.6,16.4,43.9,33.3,67.6,46.6,26.5,14.8,52.2,23.4,78.5,26.2,54.2,5.9,149.1-32.2,249.5-72.5,76.1-30.5,154.7-62,221.2-76.7,35.9-8,64.8-10.3,88.5-7.1,12.8,1.7,24.2,5.1,33.7,10.2a69.9,69.9,0,0,1,24.7,21.7v.2h-.2c-85.1,11.1-176.9,39.7-265.7,67.3-61.8,19.3-125.6,39.1-187.5,53.3-69.4,15.9-128.5,22.7-180.7,20.7-34.6-1.3-66.6-10.2-97.7-27.1-27.7-15-52-34.8-75.6-53.9-17-13.8-34.6-28.1-53.1-40.3-20.8-13.7-40.7-23.3-60.9-29.3-18.2-5.5-42.3-6.9-71.7-4.3-25.1,2.2-54.3,7.3-86.6,15.3-71.1,17.6-133.3,42.5-150.7,49.7-48.4,20.1-94.1,44-138.3,67.2-60.5,31.7-123.1,64.5-192.8,87.4-26,8.5-54,19.4-83.8,31C675.6,824.7,587.8,858.9,511.3,858.9ZM-63.4,599.6C10.8,665.3,92,684.7,178,705.3c27.6,6.5,56.1,13.4,84.9,21.9a293.4,293.4,0,0,0,38.4,8.2c24.2,3.9,40.3,6.4,68.4,34.2,20.8,20.5,29.6,35.7,36.7,47.9s10.8,18.6,20.8,24.8,26.6,10.7,53.9,14.3c83,11.2,183.9-28,272.9-62.7,29.7-11.5,57.8-22.5,83.8-31,69.7-22.8,132.3-55.6,192.8-87.4,44.2-23.1,89.9-47.1,138.3-67.2,17.4-7.2,79.6-32.1,150.7-49.7,32.3-8,61.5-13.1,86.7-15.3,29.4-2.6,53.5-1.1,71.8,4.3,20.2,6.1,40.1,15.6,60.9,29.3,18.6,12.2,36.2,26.5,53.2,40.4,23.5,19.1,47.8,38.9,75.5,53.9,31.1,16.8,63,25.7,97.7,27,52.1,2,111.2-4.8,180.6-20.7,61.8-14.2,125.6-34,187.4-53.2,88.7-27.7,180.5-56.2,265.5-67.4a70.4,70.4,0,0,0-24.5-21.4c-9.5-5-20.8-8.4-33.6-10.1-23.6-3.2-52.5-.9-88.4,7.1-66.4,14.7-145,46.2-221.1,76.7-93.5,37.5-182.2,73.1-237.8,73.1a112.8,112.8,0,0,1-11.9-.6c-26.3-2.8-52-11.4-78.6-26.3-23.7-13.2-46-30.2-67.6-46.6-26.9-20.5-54.8-41.6-86.2-56.3a209.2,209.2,0,0,0-50.4-16.5,203,203,0,0,0-59-2.5c-36.9,3.6-82.5,11.6-131.9,23.3-45.2,10.6-90.2,23.5-126.7,36.3-49.4,17.3-95.5,43.5-140.1,68.8-46.4,26.3-94.3,53.6-146.6,71.3-22.3,7.5-52.3,20.2-87,35-107.3,45.4-254.2,107.7-325.3,80.4-38.2-14.6-60-40.8-83.1-68.5-26-31.3-52.9-63.6-105.6-79-33.6-9.8-67.3-20.2-103.1-31.2C106.3,644,19.2,617.2-63.4,599.6Z"/><path class="cls-2" d="M471.7,906.7a208.2,208.2,0,0,1-45.3-5,227.2,227.2,0,0,1-47.2-16.5c-29.9-14-56.5-32.9-84.8-52.9s-56.4-40.1-88.8-55.7c-28.6-13.8-58.9-24.6-88.1-35.1-32.5-11.7-66-23.7-96.7-39.6-34.3-17.8-61.6-38.8-83.4-64.2l-.4-.5.6.3c30.7,13.8,64.1,23.6,102.3,30,34,5.8,68.6,8.3,102,10.8,47.7,3.5,97.1,7.1,145.9,20.1,15.3,4.1,27.9,9.5,38.7,16.7a91.4,91.4,0,0,1,24.2,23.4c12.4,17.3,18.3,38,24.1,58,4.9,17,9.9,34.6,19,50.2,10.1,17.5,24.2,30.4,43.1,39.7,28.4,13.9,68.7,12.3,123.2-4.7,46.9-14.8,96-38.3,139.3-59.1,28.3-13.6,52.8-25.3,72.3-32.5,54.4-20.2,109.4-43.9,162.5-66.7,69.4-29.9,141.1-60.8,212.5-84.3,44.9-14.8,97.8-26.8,149-33.7,59.1-8,112.2-8.8,153.5-2.1,48.9,7.8,93.7,25.8,137.1,43.2,29.9,12,60.8,24.5,92.7,33.4,35.7,10,69,14.5,101.7,13.6,35.1-.8,106.7-25.5,189.5-54.1,84.5-29.2,180.2-62.3,261.8-78.6,94.3-18.9,151.6-11.5,175.1,22.5l.2.2h-.3c-75.1,14.4-152.6,38.8-227.6,62.5-65.9,20.7-134.1,42.2-201.6,57.3a930.5,930.5,0,0,1-101.4,17.4c-35.8,3.9-69,5.1-101.6,3.5-87.6-4.3-165-27.4-239.8-49.7-60.5-18.1-117.6-35.1-178.9-42.6a482.7,482.7,0,0,0-94.9-2.7,465.5,465.5,0,0,0-102.7,19.3c-83.9,25.4-168.6,67.8-258.3,112.6C762.5,830.1,620,901.3,480.1,906.5ZM-61.9,638c21.7,25.2,48.8,46,82.9,63.7,30.6,15.8,64.2,27.9,96.6,39.5,29.2,10.5,59.5,21.3,88.1,35.1,32.4,15.7,61.1,36,88.9,55.8S349.5,871,379.3,885a226.7,226.7,0,0,0,47.2,16.4,203.6,203.6,0,0,0,53.6,4.8c139.8-5.2,282.2-76.4,420-145.2,89.7-44.9,174.4-87.2,258.4-112.7A463.3,463.3,0,0,1,1261.2,629a482.7,482.7,0,0,1,94.9,2.7c61.3,7.5,118.5,24.5,179,42.6,74.8,22.3,152.2,45.4,239.7,49.7,32.6,1.6,65.8.4,101.6-3.5,31.9-3.5,65-9.2,101.4-17.3,67.5-15.2,135.6-36.6,201.5-57.4,74.9-23.6,152.3-48,227.5-62.5-23.6-33.8-80.7-41-174.8-22.2-81.5,16.3-177.2,49.4-261.7,78.5-82.8,28.7-154.4,53.4-189.6,54.2-32.7.8-66-3.6-101.8-13.6-31.9-9-62.8-21.4-92.7-33.4-43.3-17.4-88.2-35.4-137.1-43.3-41.2-6.6-94.3-5.8-153.4,2.2-51.1,6.9-104,18.9-148.9,33.7-71.4,23.5-143.1,54.3-212.5,84.2-53.1,22.9-108.1,46.5-162.5,66.7-19.5,7.3-44,19-72.2,32.6-43.4,20.7-92.5,44.3-139.5,59-54.5,17.1-94.8,18.7-123.4,4.7-18.9-9.2-33.1-22.2-43.2-39.8-9-15.6-14.1-33.2-19-50.3-5.8-19.9-11.7-40.5-24-57.8a90.6,90.6,0,0,0-24.1-23.3c-10.8-7.2-23.5-12.7-38.7-16.7-48.8-13-98.1-16.6-145.9-20.1-33.4-2.5-67.9-5.1-102-10.8C1.9,661.4-31.4,651.7-61.9,638Z"/><path class="cls-2" d="M407.3,939.7a135.3,135.3,0,0,1-44.5-7.4A177,177,0,0,1,322.2,912c-25.7-16.9-48.6-39.2-72.9-62.8-38.3-37.3-77.9-75.9-129.5-91.7-14.4-4.4-33.1-7-52.9-9.7-26.2-3.6-55.8-7.6-80.7-16.8-28.5-10.5-46.5-26.2-55-48a1.8,1.8,0,0,1,.2-1.6c4.4-5,52.2,4.3,142,27.4l7.8,2c22.2,5.1,48.2,6.7,73.4,8.3,32,2,65.1,4.1,91.2,13.4,46.7,16.5,69.7,55.8,92.1,93.7,12.4,21.2,25.4,43.1,42.1,60.1a111.6,111.6,0,0,0,28.8,21.5,110.2,110.2,0,0,0,38.1,11.7c68.6,8.8,163.6-38.8,247.4-80.8,41.3-20.7,80.3-40.2,112.6-51.3,45.4-15.6,93.1-34.9,139.3-53.7,84.2-34.1,171.4-69.5,255.1-87a388.2,388.2,0,0,1,80.4-8.2h1.3a485.2,485.2,0,0,1,79.1,7c52.1,8.5,103.9,24.1,154,39.1,51.8,15.6,105.3,31.6,159.1,40a495.8,495.8,0,0,0,71.7,6.1q15-1.5,29.7-4.2c36.9-6.7,74.2-14.1,111.5-22.1,19.4-7.4,42.5-16.7,68.3-27.1,81-32.7,181.8-73.5,270.2-94.6,48.1-11.5,87.7-15.8,117.7-12.8,16.9,1.7,31.2,5.6,42.6,11.9a63.5,63.5,0,0,1,27.1,27.7v.2h-.2c-53.1,15.4-111,21.1-167,26.6-45.8,4.6-93.1,9.2-137.9,19.2-26.5,5.8-53.6,12-79.9,17.9-46.4,10.6-93.6,21.3-141,31.3-19.2,7.3-34.9,12.8-46.3,15.5a383.7,383.7,0,0,1-84.7,10.7h-10.2a431.4,431.4,0,0,1-48.7,2.1,541.2,541.2,0,0,1-76.6-6.5c-50.5-7.8-100.6-21.4-149.1-34.6-58.8-16-119.6-32.6-179.6-37.9-32.2-2.9-61.8-2.4-90.4,1.5a338.5,338.5,0,0,0-91.8,25.8C994.6,732.2,879.9,779,760,824.5c-25.4,9.7-52.9,21.5-82.1,34-87.9,37.6-187.6,80.3-269.1,81.2ZM-62.3,680.3c-3.3,0-5.3.5-6,1.3a1,1,0,0,0-.2,1.3c8.5,21.7,26.4,37.3,54.8,47.8,24.9,9.2,54.5,13.2,80.6,16.8,19.8,2.7,38.6,5.3,53,9.7,51.6,15.8,91.3,54.4,129.6,91.8,24.3,23.6,47.2,45.9,72.9,62.8,13.7,9,27,15.7,40.5,20.2a138.4,138.4,0,0,0,45.9,7.4c81.5-.8,181.1-43.5,269-81.2,29.2-12.5,56.7-24.3,82.1-33.9,119.9-45.6,234.6-92.4,350.6-143.2a339.9,339.9,0,0,1,92-25.8c28.6-3.9,58.2-4.3,90.5-1.5,59.9,5.3,120.7,21.9,179.5,37.9,48.5,13.2,98.7,26.8,149.1,34.6a557.2,557.2,0,0,0,76.6,6.6c15.8.1,31-.5,46-1.9a487.3,487.3,0,0,1-69-6.1c-53.9-8.4-107.4-24.5-159.2-40-50-15-101.8-30.6-153.9-39.2a496,496,0,0,0-79.1-6.9h-1.3a388.2,388.2,0,0,0-80.4,8.2c-83.7,17.5-170.8,52.8-255,87-46.2,18.7-93.9,38.1-139.3,53.7-32.3,11.1-71.3,30.6-112.5,51.3-83.9,42-178.9,89.6-247.6,80.8a111.9,111.9,0,0,1-38.3-11.7,113.7,113.7,0,0,1-28.8-21.6c-16.8-17-29.7-38.9-42.2-60.2-22.3-37.8-45.3-77-91.9-93.6-26.1-9.2-59.2-11.3-91.2-13.3-25.1-1.6-51.1-3.2-73.4-8.3l-7.8-2c-14.6-3.8-48.9-12.6-79.7-19.4C-34.5,683.5-53.2,680.3-62.3,680.3Zm1811.9,50.4h7.5a382.8,382.8,0,0,0,84.6-10.7c11-2.6,26.1-7.8,44.6-14.8q-55,11.7-109.6,21.7C1767.7,728.4,1758.7,729.7,1749.6,730.7Zm575.1-161.4c-26.9,0-59.8,4.6-98,13.7-88.4,21.1-189.2,61.8-270.2,94.6-25,10.1-47.5,19.2-66.6,26.4,46.7-9.9,93.4-20.5,139.2-30.8l79.8-18c44.8-10,92.2-14.6,138-19.2,55.9-5.5,113.7-11.2,166.7-26.5-5.8-11.7-14.9-20.9-26.9-27.5s-25.6-10.2-42.4-11.8C2338.2,569.6,2331.7,569.3,2324.7,569.3Z"/><path class="cls-2" d="M372.6,960.9c-22,0-40.6-4-56.6-12.1-24.7-12.4-41.8-33.2-61.6-57.1-13.8-16.8-29.1-35.4-49.3-53.6-37.3-21.6-79.2-35.1-119.8-48.2l-29.5-9.7c-60-17.6-118.1-36.8-128-56.4a11.8,11.8,0,0,1-.7-9.7h.2c20.5,17.5,45,32.4,75.1,45.6,17.3,7.5,35.3,14.1,53.4,20.2l33.7,9.7c46.7,13.3,87.1,24.8,99,34.2q9,6.9,16.8,14.1l3.8,2.2c18.4,11,34.8,21.7,50.7,32,37,24,68.9,44.7,104.6,55.1a183.7,183.7,0,0,0,57.9,7.1c21.9-.7,45.3-4.8,71.6-12.7,88.1-26.4,176.3-61.5,261.7-95.4,68.5-27.2,139.4-55.3,210.1-79,79.4-26.6,150.1-44.6,216.1-55,99-15.6,174,6.5,260.8,32,12.9,3.8,26.3,7.8,40,11.7A386.3,386.3,0,0,0,1572,750a496.8,496.8,0,0,0,88-4.4c58.4-7.7,117.2-24,174.1-39.8l34.7-9.5c15.3-4.1,37.3-11.2,65.1-20.2,71.3-23,179-57.8,275-74.1,52.7-9,96.7-11.4,130.7-7.3,19.3,2.4,35.8,6.9,49.2,13.4s25.3,16.6,32.7,28.4v.2h-.2c-42.6,7.2-84.6,12.6-125.3,17.8-70.9,9-137.9,17.6-208.7,35-28.5,6.9-57.8,14.5-86.2,21.8-90.2,23.3-183.5,47.4-274.3,59.1-105.7,13.6-200.6-9-292.3-30.9-58.8-14-114.3-27.2-172.4-31.7a463.6,463.6,0,0,0-88.5,1.3,405.7,405.7,0,0,0-92.3,21.5c-61.3,21.9-125.2,46.8-187,71C739.6,862.1,579.5,924.7,422.2,955.5,403.9,959.1,387.5,960.9,372.6,960.9ZM206.3,838.8C226,856.7,241,875,254.7,891.5c19.7,23.9,36.8,44.6,61.4,57,26.8,13.5,60.5,15.6,106,6.7,157.3-30.8,317.4-93.4,472.2-153.9,61.8-24.1,125.7-49.1,187-71a405.3,405.3,0,0,1,92.4-21.5,472,472,0,0,1,88.5-1.3c58.2,4.5,113.7,17.7,172.5,31.7,91.7,21.9,186.5,44.5,292.2,30.9,90.7-11.7,184-35.8,274.2-59.1,28.4-7.3,57.8-14.9,86.2-21.8,70.9-17.4,137.9-25.9,208.8-35,40.6-5.2,82.5-10.6,125-17.8-7.4-11.6-18.3-21.1-32.5-28s-29.8-11-49-13.4c-34-4.1-78-1.7-130.6,7.3-96.1,16.3-203.7,51-275,74-27.8,9-49.8,16.1-65.1,20.3l-34.7,9.5c-56.9,15.8-115.7,32.1-174.2,39.8a497.5,497.5,0,0,1-88.1,4.4,381.1,381.1,0,0,1-89.3-14.2c-13.7-3.8-27.1-7.8-40.1-11.6-86.8-25.5-161.7-47.6-260.6-32-66,10.4-136.7,28.4-216.1,55-70.7,23.7-141.6,51.8-210.1,79-85.4,33.9-173.6,69-261.7,95.4-26.3,7.9-49.7,12-71.7,12.7a181.9,181.9,0,0,1-58-7.2c-35.7-10.3-67.7-31.1-104.7-55.1-15.8-10.3-32.3-20.9-50.6-31.9ZM63.1,782.3l22.3,7.3c40.2,13,81.6,26.4,118.7,47.6-5-4.5-10.2-8.9-15.8-13.2-11.8-9.3-52.2-20.8-98.9-34.1ZM-72.7,714.4a11.4,11.4,0,0,0,.8,9.3c5.2,10.3,24.5,21.5,59.1,34.2,18.6,6.8,40.1,13.5,61.8,20-15.8-5.5-31.6-11.3-46.8-18C-27.7,746.8-52.2,732-72.7,714.4Z"/><path class="cls-2" d="M378.6,967.5a222.4,222.4,0,0,1-65.5-9.6c-26.8-8.1-51.6-20.7-78.3-36.5-5.5-2.7-11.1-5.7-16.8-8.8-34.3-19.1-71.2-36.6-110.2-55L69.5,839.3C36.4,828,.7,815.4-27.9,801.7c-37.5-17.8-55.1-33.9-53.8-49.2v-.3l.2.2c43.8,33,97.2,60.6,151.1,86.6l12.3,4.2c32.7,11.1,61,20.8,73.2,28.3s23.2,14.5,34.2,21.4c16.2,10.2,31.2,19.7,45.7,28.3,23,11.4,45.2,19.6,67.4,24.9a271.2,271.2,0,0,0,78.7,6.5c51.4-3.2,104-19.7,167.4-40.9,49.6-16.6,102.5-37.6,158.6-59.9,80.4-31.9,163.5-65,246.7-88.8,94.5-27.1,173.7-37.5,242.2-31.7,64.5,5.4,129.4,16.7,192.2,27.7,72.4,12.7,147.3,25.8,221.4,29.7,39.9,2.1,76.4,1.4,111.7-2.1a578.6,578.6,0,0,0,113-22.5c39.3-12,77.5-26.7,114.5-41,46.1-17.8,93.9-36.2,143.9-49.3l16.8-4.6c41.5-11.3,111.1-30.2,176.4-37.5,36.2-4,66.3-3.7,89.4.8,27.4,5.3,45.6,16.8,54.2,34v.2h-.2c-177.1,8.3-313.6,46.3-471.7,90.4-31,8.6-63.1,17.6-96.2,26.5-80.3,21.6-168.7,22.4-254.1,23.2-44.4.4-90.4.9-133.8,4.3-30.4,2.4-62,.8-96.3-5-30.7-5.2-60.9-13.1-90.2-20.8-37.7-9.9-76.6-20.2-117.9-24.9-158.3-18.4-319.9,47.6-476.1,111.4-81,33.1-157.6,64.4-232.7,84-29.7,7.7-56.2,11.6-81,11.6ZM238.3,923.1c25.5,14.9,49.3,26.8,74.9,34.5a221.7,221.7,0,0,0,65.4,9.6h.8c24.8,0,51.3-3.8,81-11.6,75-19.6,151.6-50.9,232.6-84,156.3-63.8,317.9-129.8,476.2-111.4,41.3,4.7,80.3,15,118,24.9,29.2,7.7,59.5,15.7,90.1,20.8,34.4,5.8,65.9,7.4,96.3,5,43.4-3.4,89.4-3.9,133.8-4.3,85.4-.8,173.7-1.6,254-23.2,33.2-8.9,65.2-17.9,96.3-26.5,157.9-44.1,294.4-82.1,471.4-90.4-15.8-31.6-64-43.2-143.2-34.5-65.2,7.3-134.8,26.2-176.4,37.5l-16.7,4.5c-50,13.2-97.8,31.6-143.9,49.4-37,14.3-75.2,29-114.5,41a579.6,579.6,0,0,1-113.1,22.5c-35.2,3.5-71.8,4.2-111.7,2.1-74.1-3.9-149-17-221.5-29.7-62.7-11-127.6-22.3-192.1-27.7-68.5-5.8-147.6,4.6-242.1,31.7-83.2,23.8-166.3,56.9-246.7,88.8-56,22.3-109,43.3-158.6,59.9-63.5,21.2-116.1,37.7-167.5,40.9a267.5,267.5,0,0,1-78.7-6.6A303.2,303.2,0,0,1,238.3,923.1Zm-166.4-83L108,857.3c39,18.5,75.8,35.9,110.1,55l13.1,7c-13.4-8-27.2-16.8-42.1-26.2-10.9-6.9-22.2-14-34.2-21.4s-40.4-17.1-73.1-28.2ZM-81.5,752.8c-1,15,16.6,31,53.7,48.7,28,13.3,62.7,25.6,95.1,36.7C14.2,812.5-38.3,785.3-81.5,752.8Z"/><path class="cls-2" d="M350.7,977.6c-57.3,0-108.6-13.1-156.2-39.9-23.7-13.4-44.1-31.5-63.9-49-18.2-16.2-36.9-32.8-58.3-45.7-6-2.3-12.6-4.4-19.9-6.4-15.1-4.3-30.8-6.7-46-9-17-2.5-34.5-5.2-50.9-10.4A127.1,127.1,0,0,1-78,801c-7.8-3.4-12.6-6.8-12.6-10.2v-.4l.3.3a120.4,120.4,0,0,0,12.4,10,180.1,180.1,0,0,0,24.1,8.1c21,5.9,48,11.5,69.6,16s37.6,7.7,42.1,9.9,9.8,5.2,14.6,8c30.1,11.2,47.8,25.3,70.8,43.7,6.7,5.4,13.6,10.9,21.5,16.9,31.5,24,62.3,41.3,94.3,52.7a283.6,283.6,0,0,0,93.2,16.8c29.5.5,61-3.1,96.3-11,29.3-6.6,62.2-16.3,103.4-30.6l16.5-5.7c110.2-38.3,214.2-74.5,321.4-93.4,57.6-10.2,110.6-14.4,162.2-12.8a639.5,639.5,0,0,1,166.6,26.8c43.7,13.1,84.7,18.2,128.9,16,39.3-1.9,76.3-9.4,115.4-17.3s78.2-15.9,123.7-19.4c36.7-2.9,72.6-1.8,107.4-.9,39.8,1.1,77.4,2.2,115.6-2.1,43.3-4.8,79.8-15.6,114.9-34.1,43.7-23,130.5-66.5,219.9-100.1,54.6-20.6,102.5-34.5,142.3-41.4,48.3-8.4,85.3-6.6,109.9,5.4,19.8,9.7,32,26.2,36.1,49h-.2l-44.3-1.4c-41.2-1.5-83.8-3-125.6-1.7-46.8,1.4-87.5,6.2-124.5,14.7-53.1,12.2-99.4,39-144.2,64.8-24.5,14.2-49.8,28.8-75.7,40.7-29,13.3-55.9,21.8-82.1,26-43.4,7-90.7,3-136.4-.8-33.3-2.8-67.9-5.6-101.1-4.4-37.2,1.5-68.6,8.1-96,20.4-20.1,9-38.1,17.6-55.4,25.9-47.1,22.6-84.3,40.5-126.3,47-44.9,7-91.8.2-152-22.1l-11.8-4.4c-68.1-25.3-121.9-45.2-195.8-53.5-55.9-6.2-110-3-170.3,10.1-53.6,11.7-105.2,29.7-159.7,48.7-25,8.7-50.9,17.7-77.5,26.3-54.2,17.5-118.2,35.9-181.1,39.4C365.3,977.4,358,977.6,350.7,977.6ZM73.8,843.5c20.9,12.8,39.2,29.1,57,45,19.8,17.5,40.2,35.6,63.8,48.9,53.6,30.2,111.9,43.1,178.2,39.3,62.8-3.5,126.8-21.9,181.1-39.4,26.5-8.5,52.4-17.5,77.4-26.3,54.5-19,106.1-37,159.8-48.7,60.3-13.1,114.4-16.3,170.3-10.1,74,8.3,127.8,28.2,195.9,53.5l11.8,4.4c60.2,22.3,107,29.1,151.9,22.1,41.9-6.5,79.1-24.4,126.1-47,17.4-8.3,35.3-16.9,55.4-25.9,27.5-12.2,58.9-18.9,96.2-20.4,33.3-1.2,67.8,1.6,101.2,4.4,45.6,3.8,92.9,7.8,136.3.8,26.1-4.2,53-12.7,82-26,25.9-11.9,51.1-26.5,75.6-40.6,44.9-25.9,91.2-52.7,144.3-64.9,37-8.5,77.8-13.3,124.6-14.7,41.8-1.3,84.4.2,125.6,1.7l44.2,1.4c-4.2-22.6-16.2-38.9-35.9-48.5-24.6-12-61.5-13.8-109.7-5.4-39.9,6.9-87.7,20.8-142.3,41.3-89.4,33.6-176.1,77.2-219.9,100.2a295.9,295.9,0,0,1-57.6,23,342.2,342.2,0,0,1-57.3,11.1c-38.3,4.3-75.9,3.2-115.7,2.1-34.8-1-70.7-2-107.4.9-45.5,3.5-85.2,11.6-123.7,19.3s-76,15.5-115.4,17.4c-44.2,2.2-85.2-2.9-129-16a638.1,638.1,0,0,0-166.5-26.8c-51.6-1.6-104.6,2.6-162.1,12.8-107.2,18.9-211.3,55.1-321.4,93.4l-16.5,5.7c-41.2,14.3-74.1,24-103.5,30.6-35.3,7.9-66.8,11.5-96.3,11A284.7,284.7,0,0,1,259,956.3c-32-11.5-62.9-28.7-94.4-52.7-7.9-6.1-14.8-11.6-21.5-17C120.5,868.6,103,854.6,73.8,843.5ZM-76.6,801.6a126.1,126.1,0,0,0,32.2,15.3c16.4,5.2,33.9,7.9,50.8,10.4,15.2,2.3,30.9,4.7,46.1,9,6.7,1.8,12.8,3.8,18.5,5.9q-6.4-3.9-13.2-7.2c-4.5-2.2-21.1-5.6-42-10C-15.9,818.5-55.8,810.2-76.6,801.6Zm-13.7-10.5c.3,2.8,4,5.8,11,9A119.7,119.7,0,0,1-90.3,791.1Z"/><path class="cls-2" d="M1005.6,1080.3c-16.2,0-31.1-3-44.3-10.5-22.7-13-38.3-38.4-47.6-77.6-4.3-17.9-4.6-34.4-5-48.9-.3-11.8-.5-23.1-2.8-33.8a101.9,101.9,0,0,0-15.8-23c-12.4-13.1-28.9-21.6-53.7-27.7s-52.1-4.7-83.9,3.8c-28,7.5-55.5,19.5-82.2,31.1-15,6.6-29.1,12.7-43,18-49.1,18.5-100.9,36.9-153.8,50.1-19.2,6.2-38.4,11.9-57.8,16.7-36,8.9-69.1,14-101.3,15.7a400.7,400.7,0,0,1-103.9-7.6c-37.6-7.9-104.3-27.5-168.5-56.8-50.4-23-115.5-59.7-139.9-103.6l-.4-.7.6.5c29.6,24.7,59.9,28.7,92,33,17.8,2.3,36.1,4.8,54.7,10.9,30.4,10.1,53.8,26.4,78.6,43.6,18.7,13,37.9,26.4,60.7,37.1,32.7,15.5,69.1,25.1,108.2,28.6,34.6,3.1,72.6,1.5,113.1-4.7,21.4-3.3,42.7-7.8,63.8-13,46.7-15.3,92.7-34.2,137.6-52.6,14.8-6.1,30.1-12.4,45-18.3l15.4-6.3c28.8-11.8,64.6-26.5,100.1-33.8,19.3-3.9,36.8-5.3,52.2-4,17.7,1.4,33.2,6.4,46.1,14.8,17.4,11.3,28.1,23.5,33.5,38.4a67,67,0,0,1,2.8,9.7c3.6,6.7,6.9,13.9,10.3,21.6,5.6,12.2,11.8,26,20.6,41.1,13.6,23.3,28.8,40.1,46.5,51.3,15.9,10.1,33.6,15.6,54,16.6,38.4,2,81-11.8,126.1-26.4,8.2-2.6,16.6-5.4,25.1-8,60.8-19,114.4-54,166.2-87.8,29-19,59-38.5,89.5-54.7,34.1-18,65.4-29.9,95.7-36.3,61.9-13,123.6-4.1,183.2,4.4,51.8,7.5,105.3,15.2,157.7,8.1,24.7-3.3,50.8-11.6,79.9-25.2,25.9-12.2,51.8-27.6,76.9-42.4,40.1-23.7,81.6-48.3,125.4-61.5,14.1-4.2,67.3-17.8,125.2-24.3,30.2-3.4,56-4.2,76.6-2.3,24.9,2.3,42.2,8.4,51.6,18.3s10.7,23,4.7,39.7v.2h-.1c-61.4-16.1-115-25.1-163.9-27.2-30-1.4-58.3-.1-84.1,3.8-28.7,4.3-55.3,11.9-78.9,22.6a259.1,259.1,0,0,0-61,38.8c-16.8,14.3-30.7,29.2-44.1,43.6-21.1,22.8-41.1,44.2-68.4,58-30.4,15.2-66.5,19.2-113.6,12.5-19.6-2.7-40.2-6.6-62-10.6-75.9-14.1-162-30.1-232.3-4.7-33.9,12.2-65.5,35-96.1,57-27.1,19.5-55.1,39.6-85,52.8-46.2,20.3-95.3,33.7-142.8,46.6-15.1,4.1-30.7,8.3-46,12.8-11,3.1-22,6.6-32.8,9.9C1072.8,1069.1,1036.8,1080.3,1005.6,1080.3ZM906.4,910.5c2.1,10.3,2.3,21.3,2.6,32.8.3,14.5.7,30.9,5,48.8,9.2,39.2,24.8,64.5,47.5,77.4,38.4,21.9,91.9,5.4,148.5-12.2,10.8-3.3,21.9-6.8,32.8-9.9,15.4-4.4,31-8.7,46.1-12.8,47.4-12.9,96.5-26.2,142.7-46.6,29.8-13.1,57.8-33.3,84.9-52.8,30.7-22,62.3-44.7,96.2-57,70.3-25.4,156.5-9.4,232.5,4.7,21.8,4.1,42.3,7.9,61.9,10.7,47.1,6.6,83.1,2.6,113.5-12.6,27.2-13.7,47.2-35.2,68.3-57.9s44.1-47.4,77.8-68L2037.9,772c-25,14.8-51,30.1-76.9,42.3-29.1,13.7-55.2,21.9-80,25.3-52.4,7.1-105.9-.6-157.7-8.1-59.6-8.5-121.3-17.4-183.1-4.4-30.3,6.4-61.6,18.3-95.7,36.3-30.4,16.1-60.4,35.7-89.4,54.6-51.9,33.9-105.5,68.8-166.3,87.9l-25.2,8c-45.1,14.6-87.7,28.4-126.1,26.4-20.5-1-38.2-6.5-54.2-16.6-17.7-11.3-32.9-28.1-46.5-51.5a425.2,425.2,0,0,1-20.6-41.1C912.9,923.8,909.7,916.9,906.4,910.5ZM-97.3,826.7C-83.5,851-48.2,888.3,42.1,929.5c64.2,29.3,130.9,48.9,168.5,56.8a399.6,399.6,0,0,0,103.8,7.6c32.1-1.7,65.2-6.8,101.2-15.7,18.1-4.5,36-9.7,53.9-15.5-19.8,4.9-39.8,9-59.9,12.1-40.4,6.2-78.5,7.8-113.2,4.7-39.1-3.5-75.5-13.1-108.3-28.6-22.7-10.8-42-24.2-60.6-37.1-24.8-17.3-48.2-33.5-78.5-43.6-18.6-6.1-37-8.6-54.7-10.9C-37.6,855-67.8,851-97.3,826.7Zm909.5,19.6a203.1,203.1,0,0,0-40.6,4.5c-35.5,7.3-71.3,22-100,33.8l-15.4,6.2c-15,6-30.3,12.3-45,18.4-43.7,17.9-88.4,36.2-133.8,51.3,51.5-13.2,101.9-31.1,149.8-49.1,13.8-5.2,28-11.4,43-18,26.7-11.6,54.2-23.6,82.2-31.1,31.8-8.5,59.3-9.8,84.1-3.8s41.4,14.6,53.8,27.8a102.2,102.2,0,0,1,15.3,22.1,84.7,84.7,0,0,0-2.5-8.6c-5.5-14.8-16.1-26.9-33.4-38.2-12.9-8.4-28.4-13.4-46.1-14.8C819.9,846.5,816.1,846.3,812.2,846.3Zm1529-163.4a474.9,474.9,0,0,0-52.7,3.3c-58,6.5-111.1,20.1-125.2,24.3-28,8.5-55,21.5-81.4,36.1,3.9-2.1,8-4,12.2-6,23.6-10.7,50.2-18.3,78.9-22.6,25.9-3.9,54.2-5.2,84.2-3.8,48.9,2.1,102.5,11.1,163.8,27.2,6-16.5,4.4-29.8-4.7-39.3s-26.5-15.9-51.3-18.2C2357.7,683.2,2349.7,682.9,2341.2,682.9Z"/><path class="cls-2" d="M979.5,1115.4a83.6,83.6,0,0,1-31.7-5.8c-28.2-11.5-51.1-40.6-72.1-91.6-15.8-38.4-30.2-65.3-45.3-84.7s-32.2-32.1-51.9-37.9c-39.3-11.6-90.5,3-165.6,32.2-66.5,25.9-142,55.2-217.1,69.6-40,7.6-76.6,10.6-111.8,8.9a361.2,361.2,0,0,1-112.3-23c-19.4-7.4-40.6-14.6-63.1-22.3C34.7,935.7-49.1,907.1-102.3,860.1l.2-.2c30.4,17.9,65.1,21.4,98.6,24.7,28.6,2.9,58.1,5.8,84,18,23.5,11.1,42.2,24.2,60.3,36.8,31.2,21.8,60.7,42.5,111.1,50.6a403.8,403.8,0,0,0,89.8,4.2c27.9-1.7,56.5-5.9,87.7-12.9,57.8-13.1,115.1-33.9,170.6-54.1,20.4-7.4,41.5-15.1,62.2-22.2,40.4-13.9,70.5-21.6,94.7-24.1s42.9,0,58.6,8c30.7,15.7,48.1,51.7,74.6,106.1,5.1,10.6,10.4,21.5,16.3,33.3,11.9,23.7,24.6,40.9,39.1,52.5a80.6,80.6,0,0,0,44.4,18.2c31.7,3,67.2-9.8,108.4-24.7l15.2-5.4,43.6-15.3c49-17.1,95.2-33.3,139.8-53.1a732.8,732.8,0,0,0,134-76.6c26.4-19,53.2-32.8,82.1-42.2,26-8.5,53.2-13.2,83.3-14.4,56.1-2.3,114.1,8,175.5,18.9l30.4,5.4c68.3,11.8,112.7,11.1,148.2-2.3s60.7-37.8,97-72.1c5.2-4.9,10.6-10.1,16.4-15.4,6.4-12.4,14.4-23.9,25.4-33.4,17.8-15.3,39.6-26.2,64.7-32.4l11.6-4.6c24.3-8.8,51-13.8,79.3-15,51.6-2,107.8,8.9,162.5,31.5h0c5.6,5.6-19.3,34.9-21.3,36.9h-.2c-41.2-27.2-96.2-46.9-147.3-52.7-28.8-3.3-55.8-2.3-80.1,3.1l-4.4,1a216,216,0,0,0-58.4,36.8c-11.5,10.2-21.9,19.8-31.6,28.8-6.3,12.2-11.1,25.1-15.8,37.9-8.3,22.4-16.9,45.7-33.3,63.4-22.2,24.1-47.4,37.1-79.4,41.2-28.6,3.6-59.5-.5-92.2-4.7l-15.9-2.1c-22.9-2.9-44.4-6-65.2-9-59.6-8.5-111.1-16-162.9-13.3-56.4,2.9-108.5,17.9-163.8,47.2-63.4,33.5-130.1,52.3-194.6,70.4-51.2,14.4-104.1,29.3-154.8,51.4-43.5,19-63.5,24.6-77.4,27.7A138,138,0,0,1,979.5,1115.4ZM748.9,891.1a104.5,104.5,0,0,1,29.7,4c19.8,5.8,36.3,17.9,52,38.1s29.6,46.3,45.4,84.7c20.9,50.9,43.8,80,72,91.4,17.1,6.9,36.4,7.7,60.7,2.4s52.9-17,77.2-27.7c50.8-22.1,103.8-37,154.9-51.4,64.5-18.1,131.2-36.9,194.5-70.4,55.4-29.3,107.5-44.3,163.9-47.2,51.9-2.7,103.4,4.8,163,13.3,20.8,3,42.4,6.1,65.3,9l15.8,2.1c66,8.6,123,16.1,171.4-36.4,16.3-17.7,24.9-40.9,33.2-63.3,4.6-12.5,9.4-25.2,15.5-37.2l-15.8,14.9c-36.3,34.3-62.5,59.1-97.1,72.2s-80,14.1-148.4,2.3l-30.3-5.4c-61.4-10.9-119.4-21.2-175.5-18.9-30,1.2-57.2,5.9-83.2,14.4-28.8,9.3-55.7,23.1-82,42.1a731.6,731.6,0,0,1-134.1,76.7c-44.6,19.8-90.8,36-139.8,53l-43.6,15.4-15.2,5.4c-41.2,14.9-76.8,27.7-108.5,24.7a81.6,81.6,0,0,1-44.6-18.2c-14.5-11.7-27.3-28.9-39.2-52.7-5.8-11.8-11.2-22.7-16.3-33.3-26.4-54.4-43.8-90.3-74.4-105.9-15.6-8-34.2-10.6-58.4-8s-54.3,10.2-94.7,24.1c-20.7,7.1-41.8,14.8-62.2,22.2-55.5,20.2-112.8,41-170.6,54.1a551.8,551.8,0,0,1-87.7,12.9,405.3,405.3,0,0,1-90-4.2c-50.4-8.2-79.9-28.8-111.2-50.7-18-12.6-36.7-25.7-60.3-36.8-25.7-12.1-54-14.9-83.8-17.9-33.1-3.3-67.3-6.7-97.5-24,53.3,46.4,136.4,74.7,209.7,99.7,22.5,7.6,43.7,14.8,63.1,22.2a360.5,360.5,0,0,0,112.2,23c35.2,1.7,71.7-1.2,111.7-8.9,75.2-14.4,150.6-43.7,217.1-69.6C670.4,904.9,714,891.1,748.9,891.1ZM2152.2,736.8c-24.3,6.2-45.4,16.9-62.8,31.9-10.8,9.2-18.6,20.4-25,32.5,9.5-8.9,19.8-18.4,31-28.3A215.8,215.8,0,0,1,2152.2,736.8Zm54.3-6.8a273.2,273.2,0,0,1,32.1,1.9c51,5.8,106.1,25.5,147.3,52.7,2.4-2.5,26.4-31.1,21.3-36.4-54.7-22.6-110.9-33.5-162.4-31.5-28.2,1.2-54.9,6.2-79.2,15-3.3,1.2-6.7,2.5-10,3.9l2.7-.6A225.6,225.6,0,0,1,2206.5,730Z"/><path class="cls-2" d="M973.7,1145.2c-29.2,0-55.8-13.4-83-41.7a150.7,150.7,0,0,1-21.7-28.9c-14.9-18.7-27.4-36.5-38.6-52.4-24.5-34.8-43.8-62.4-72.7-77.5s-65.6-16.6-118.2-5l-.7.3-17.4,5.5-30.5,9.6c-65.9,20.6-128.2,40.1-192.8,50.7-7.7,1.3-15.2,2.4-22.6,3.3l-13,1.9c-30.7,4.2-58.8,5.3-86.1,3.5a342.6,342.6,0,0,1-80.5-14.7,324.9,324.9,0,0,1-43.6-15c-28.5-10.2-56.4-20.8-83.7-31.3-22.1-8.4-44.5-16.9-67.3-25.3l-16.4-1.6c-33.5-3.1-68.2-6.3-91.6-34.1l-.4-.4.5.2c37.1,10.5,73,22.8,108,35.6,11.1,1.3,22,3,32.1,6.1,26.1,7.9,51.3,19.7,75.6,31.1,14.2,6.6,28.5,13.4,43.3,19.4,12,4.3,24.1,8.6,36.3,12.6l7.3,2.4,2.8.7A442.7,442.7,0,0,0,300,1013.3a531.6,531.6,0,0,0,75.4-4.5c52.6-8.4,105.3-24.2,156.3-39.5,31.4-9.4,63.8-19.2,95.9-27.1l11.8-2.7c21.1-6.9,42.9-13.9,64.7-16.9,25-3.4,46.5-1,65.8,7.6s35.2,22,48.2,40.9c11.6,16.9,20.1,36.7,28.3,55.9,6.9,15.9,13.9,32.2,22.8,47.4l7.1,8.7c71.8,86.3,127.6,57.4,198.1,20.8,14.9-7.7,30.2-15.7,46.5-23,45.5-20.4,91.6-36.8,136.3-52.6,65.1-23.2,132.5-47.1,197.7-83.8,26.1-14.6,51.1-25.1,76.2-31.9a284.3,284.3,0,0,1,72-9.9h4.2c46.8,0,95.9,9.8,152.6,21.1l3.9.8c14,2.8,28.7,6.4,44.4,10.3,55.5,13.7,118.5,29.2,169.2,11.5,20.9-7.3,38.2-18.6,54.6-35.5,14.4-14.9,25.8-31.9,37.9-49.9,10.8-16.1,22-32.7,35.6-47.7,33.4-37,74.3-58.1,121.4-62.8,21.9-2.2,45.2-.8,69.2,4.2a327.3,327.3,0,0,1,71.4,24.2,3,3,0,0,1,1.7,2.8c.3,11-39.3,41.7-39.7,42h-.2c-32.6-34.2-67.5-50.4-103.7-48.3-22.6,1.4-45.4,9.9-67.8,25.4-20.3,14-39.7,33.2-57.6,57.2-47.5,63.4-89,95.6-138.8,107.7-23,5.6-48.6,7.1-80.5,4.8-29.2-2.1-61.7-7.2-101.6-14.3-90.5-16.1-136.5-17-169.6-15.9-56.2,2-108.5,13.4-164.7,35.9-48.4,19.4-99.7,35.3-149.3,50.6-64.9,20-131.9,40.7-193.6,69.7-10.7,5-21.1,10.3-31.2,15.5-31,15.7-60.3,30.6-89.4,33Zm-103.4-69a150.2,150.2,0,0,0,20.6,27.1c29.6,30.7,58.4,43.8,90.6,41.3,29-2.3,58.3-17.2,89.3-33,10-5.1,20.5-10.4,31.2-15.5,61.7-29,128.8-49.7,193.6-69.7,49.6-15.3,100.9-31.1,149.3-50.5,56.2-22.6,108.6-34,164.8-36,58.9-2,118.8,6.9,169.6,15.9,39.9,7.1,72.5,12.2,101.7,14.3,31.8,2.3,57.3.8,80.4-4.8,49.7-12.1,91.2-44.2,138.5-107.6,18-24,37.4-43.3,57.7-57.3,22.5-15.5,45.3-24,67.9-25.4,36.3-2.1,71.3,14.1,103.9,48.3,3.4-2.3,39.8-31.5,39.5-41.6a2.8,2.8,0,0,0-1.5-2.6,331.4,331.4,0,0,0-71.3-24.1c-24-5-47.3-6.4-69.1-4.2-47.1,4.6-87.9,25.7-121.3,62.7-13.6,15-24.7,31.6-35.6,47.7-12.1,18-23.5,34.9-37.9,49.9-16.4,16.9-33.8,28.2-54.7,35.6-50.8,17.7-113.8,2.2-169.4-11.5-15.6-3.9-30.4-7.5-44.3-10.3l-4-.8c-58.3-11.6-108.7-21.7-156.7-21.1a282.9,282.9,0,0,0-71.9,9.9c-25.1,6.8-50,17.2-76.1,31.9-65.3,36.7-132.7,60.6-197.8,83.7-44.7,15.9-90.8,32.3-136.3,52.7-16.3,7.3-31.6,15.3-46.4,23-36.5,18.9-69,35.8-101.9,35.8-30.8,0-61.8-14.9-96.6-56.7ZM700.2,931.8c22.7,0,41.4,4.2,57.6,12.7,29,15.1,48.4,42.6,72.8,77.5,10.9,15.5,23,32.7,37.4,50.8-8.5-14.7-15.2-30.3-21.8-45.7-8.2-19.2-16.7-39-28.4-55.8-12.9-18.9-28.7-32.2-48.1-40.8s-40.6-11-65.6-7.6c-20.8,2.8-41.6,9.4-61.8,15.9C664.2,934.1,683.3,931.8,700.2,931.8Zm-498.3,69.5a347.9,347.9,0,0,0,74.5,13,429.7,429.7,0,0,0,86-3.6l3.4-.4a530.1,530.1,0,0,1-65.8,3.3A449.6,449.6,0,0,1,201.9,1001.3Zm434.5-60.9-8.8,2.1c-32,7.9-64.5,17.7-95.8,27.1-48.1,14.4-97.5,29.3-147,38l13.2-2.1c64.6-10.6,126.9-30.1,192.8-50.7l30.5-9.6C626.3,943.7,631.4,942.1,636.4,940.4ZM159,987.2c9.9,3.9,20,7.5,30.3,10.5l-.7-.3C178.7,994.1,168.8,990.7,159,987.2ZM2.6,928.4c22.3,8.2,44.3,16.6,66.1,24.9C94.2,963,120.4,973,147,982.6c-12.9-5.5-25.5-11.4-38-17.2-24.3-11.5-49.5-23.3-75.5-31.1A172.3,172.3,0,0,0,2.6,928.4Zm-108.8-35.7c23.4,27.4,57.8,30.5,91.1,33.6,5.1.5,10.2.9,15.2,1.5C-34.3,915.2-69.7,903.1-106.2,892.7Z"/><path class="cls-2" d="M975,1164.5a101.6,101.6,0,0,1-37.1-6.9,104.7,104.7,0,0,1-27.5-12.3c-15.9-9.9-32.1-24.6-49.6-45.2l-3.8-4.5c-40.8-48-73.1-86-113.1-109.6a178.4,178.4,0,0,0-67.4-23.5c-26.2-3.6-55.3-2.4-89.2,3.8L562.4,971c-24,5.2-47.3,11.1-70.2,16.9-44.2,11.1-85.9,21.6-130.4,27.3a496.3,496.3,0,0,1-68.7,4.2c-13.1-.1-25.9-.8-38.6-2.1a561.3,561.3,0,0,1-116.9-13.7c-6.2-1.4-17.9-3.3-32.8-5.6-30.5-4.8-76.7-12.1-117.3-22.2-22.3-5.5-40.8-11.3-54.9-17.3-16.5-7-27.6-14.4-33-22.1-3.3-4.7-4.4-9.6-3.4-14.6v-.2h.2C-59.9,939.9-5,958.3,55.2,974.8c55,15.1,111.8,28,164.4,37.4,11.7,2.1,23.3,3.7,34.9,4.8a619.9,619.9,0,0,0,66-2.6c57.9-5.1,114-17,173.5-29.6,22.2-4.7,44.9-9.5,68.3-14.1,25.4-5.4,51.5-10.2,78.6-13.2,50.9-5.7,88.3.2,117.6,18.5,26.7,16.6,44.3,41.6,64.7,70.6,17.1,24.3,36.5,51.8,64.5,77.8,17.6,16.4,34.3,26.9,50.4,33a96.3,96.3,0,0,0,19.3,3.4c31.3,2.3,65.2-9.9,109.7-27.3l10.9-4.3,1.1-.5c16.8-8.7,34.2-17.6,52.7-25.2,26.8-11.1,56.1-18.5,84.5-25.7,16.9-4.2,34.4-8.7,51.1-13.8,45-13.9,86.3-35.8,126.2-57,32.8-17.4,66.7-35.4,102-48.5a286.6,286.6,0,0,1,64.5-15.5,355.3,355.3,0,0,1,62.6-2c5.8.1,11.6.4,17.5.9,26.7,2.1,53.8,6.7,80.6,12l33.7,6.4c15.5,3.1,31.6,6.2,47.4,9,79.1,14,129.5,13.9,174-.4s85.1-43.3,141.4-100.5c5.3-5.5,10.6-11.1,15.6-16.6,26.3-28.5,51.1-55.4,94.2-55.4h2.1c16.2.3,29.4,2.3,39.2,5.9s16.5,8.7,19.8,15.4c5.8,12.1.7,28.8-15.3,49.6h-.1c-40.1-10.4-72.4-11-101.7-1.8-26.9,8.4-48.9,23.9-74.5,41.9-23.1,16.2-49.3,34.6-83.7,50.6a247,247,0,0,1-63.6,19.5,311.5,311.5,0,0,1-64.4,3.4c-43.1-1.9-87.2-11-129.9-19.9-11.4-2.3-22.8-4.7-34.3-6.9-31.9-6-64.3-11.1-96.1-12.8h-1.9c-33.1-.8-64.8,4.1-98.5,15s-67.7,27.8-102.1,45.2c-30.4,15.3-61.8,31.1-96.7,44.2-40.1,15.1-81.3,28.2-121.2,41-41.5,13.2-84.4,26.9-126.1,42.8C1042.5,1147.8,1009.4,1164.5,975,1164.5Zm-33.8-6c46.5,16.1,88.3-4.4,134.4-28l-8.4,3.2c-44.6,17.5-78.5,29.7-109.9,27.4A98.2,98.2,0,0,1,941.2,1158.5ZM645.9,960.2a216.7,216.7,0,0,1,30.7,2.1A177.1,177.1,0,0,1,744,985.7c40.1,23.7,72.4,61.7,113.2,109.7l3.8,4.5c17.5,20.6,33.7,35.3,49.5,45.1a112,112,0,0,0,24.1,11.4c-15-6.3-30.7-16.5-47.1-31.8-28-26-47.4-53.6-64.5-77.9-20.4-28.9-38-53.8-64.6-70.5-29.3-18.2-66.6-24.1-117.5-18.4-20.4,2.3-40.2,5.5-59.6,9.3l6-1.1A324.2,324.2,0,0,1,645.9,960.2ZM1602,940.8a353.8,353.8,0,0,0-41.9,2.4,280.6,280.6,0,0,0-64.4,15.6c-35.3,13.1-69.2,31.1-101.9,48.5-40,21.2-81.3,43.1-126.3,57-16.7,5.1-34.2,9.5-51.2,13.8-28.3,7.2-57.6,14.5-84.4,25.6-18,7.5-35,16.1-51.4,24.6,40.9-15.5,82.9-28.9,123.6-41.9s81.1-25.9,121.2-41c34.9-13.1,66.3-28.9,96.6-44.2,34.5-17.3,67-33.7,102.2-45.1,30.6-10,59.6-14.9,89.5-15.2ZM258,1017.4c11.6,1,23.3,1.6,35.1,1.7a494,494,0,0,0,68.6-4.2c44.6-5.7,86.3-16.2,130.4-27.3,18.9-4.8,38.1-9.6,57.7-14.1-19,3.8-37.6,7.8-55.8,11.6-59.4,12.6-115.6,24.5-173.5,29.6C299,1016.6,278.3,1017.5,258,1017.4Zm-361.6-95.3c-.9,4.8.3,9.6,3.5,14.2,9.8,14.1,39.3,27.3,87.6,39.2,40.7,10.1,86.8,17.4,117.4,22.2,14.8,2.3,26.6,4.2,32.7,5.6A571.5,571.5,0,0,0,251,1017c-10.4-1.1-20.9-2.6-31.4-4.5-52.6-9.4-109.5-22.3-164.4-37.4C-5,958.6-59.9,940.2-103.6,922.1Zm1850.5,37.1,8.1,1.6c42.7,8.9,86.8,18,129.9,19.9a310.5,310.5,0,0,0,64.3-3.4,245.8,245.8,0,0,0,63.6-19.5c34.4-16,60.5-34.4,83.6-50.6,25.6-17.9,47.7-33.5,74.6-41.9,29.4-9.1,61.7-8.6,101.8,1.8,15.8-20.6,20.9-37.2,15.1-49.1-3.2-6.7-9.8-11.8-19.6-15.4s-23-5.5-39.1-5.8h-2.1c-42.9,0-67.7,26.9-93.9,55.3-5.1,5.5-10.4,11.1-15.7,16.6-56.3,57.2-97.3,86.4-141.5,100.6s-95,14.4-174.1.4c-15.9-2.8-31.9-5.9-47.4-9Zm-106.8-17c14.7,1.2,29.4,3.1,44.2,5.4-14.8-2.3-29.5-4.3-44.1-5.4Z"/><path class="cls-2" d="M964.1,1170.8c-4,0-7.9-.2-11.9-.5a150.9,150.9,0,0,1-46.3-10.9c-46-18.6-79.8-50.4-112.4-81.2-25.2-23.8-49-46.2-77.8-63a191.8,191.8,0,0,0-47.4-19.8,202.9,202.9,0,0,0-58.1-6.3c-55,1.7-108.4,11.1-160,20.3-40.6,7.1-82.5,14.5-124.5,18-18.9,1.6-37,2.2-54.5,2.1a921.7,921.7,0,0,1-96.6,3.3c-51.9-1.2-98.2-7.8-141.6-20a446.6,446.6,0,0,1-68.1-25.2,429.2,429.2,0,0,1-65.7-37.7l-.5-.3h.6c61.5,4.2,117,21.8,170.6,38.9,40.2,12.8,81.7,26.1,126,33.8a468.4,468.4,0,0,0,75.3,6.8c65-5.5,130.4-16.5,194.3-27.3,49.4-8.3,96.1-16.2,142.6-21.7,42.7-5.1,76,.3,104.9,16.9,26.1,14.9,46,37.5,67.1,61.3,23.1,26.2,49.4,56,88,79.6s74.4,33.4,111.5,30.3c34.2-2.8,67.2-15.8,105.4-30.9l21.3-8.4c107.5-41.4,195.5-70,277-89.8l6-1.4c32.2-11.2,64.4-23.1,96.1-36.1,83.7-34.4,149.5-24.2,225.8-12.4,25.2,3.9,51.3,8,79.5,10.7,58.5,5.5,109.3,4.5,155.2-3.1,26.6-4.5,51.7-11.2,74.4-20.2a292.2,292.2,0,0,0,68-37.4c20.1-14.9,38.7-34.4,55.1-51.6,13.1-13.7,25.5-26.6,36.6-35.2s22.1-12.8,30.5-10.2c15.9,4.9,27.4,31.7,36.2,84.3v.2h-.2c-29-13.2-54.9-16.4-81.5-10.1-24.1,5.7-47.1,18.8-71.3,32.7-26.3,15.1-56.2,32.2-93.5,43.4-47.2,14.2-96.4,21.5-154.7,23-51.6,1.3-102.4-2.1-156.3-5.7l-19.6-1.3c-43.9-2.9-91.5-1.4-141.6,4.3a1208.8,1208.8,0,0,0-138.6,25.1c-45,15.5-90,29.6-134.1,43.4-42.2,13.2-85.9,26.9-128.9,41.7-14.6,5-29.4,10.8-43.6,16.5-28,11.2-57,22.7-86.1,28A178.5,178.5,0,0,1,964.1,1170.8ZM617.5,988.7a196.1,196.1,0,0,1,50.9,6.4,186.9,186.9,0,0,1,47.4,19.9c28.9,16.7,52.7,39.2,77.9,62.9,32.6,30.8,66.3,62.7,112.3,81.3a150.1,150.1,0,0,0,46.3,10.8,168.4,168.4,0,0,0,44.3-2.6c29.2-5.2,58.1-16.8,86.1-27.9,14.2-5.7,29-11.6,43.6-16.6,43.1-14.8,86.7-28.4,128.9-41.6s87.2-27.4,131.2-42.5l-3,.7c-81.5,19.8-169.5,48.3-277,89.8l-21.3,8.3c-38.2,15.1-71.2,28.2-105.4,31-37.2,3.1-72.8-6.5-111.8-30.4s-64.9-53.4-88.1-79.6c-21-23.8-40.9-46.4-66.9-61.2-28.9-16.6-62.2-21.9-104.8-16.9-46.4,5.5-93.1,13.3-142.6,21.7-62.9,10.6-127.2,21.4-191.1,27,16.5.1,33.5-.6,51.2-2.1,42.1-3.5,84-10.9,124.6-18,51.6-9.1,105-18.6,160-20.2Zm986.2-10.2c-37.3,0-75.4,5.9-118.2,23.5-30.8,12.7-62.1,24.2-93.4,35.1a1178,1178,0,0,1,135.8-24.3c50.1-5.8,97.8-7.3,141.7-4.4l19.7,1.3c45.4,3,89.7,6,133.7,6,59.2,0,117.7-5.4,177.2-23.3,37.2-11.2,67-28.3,93.3-43.3,24.3-14,47.3-27.1,71.4-32.8,26.6-6.3,52.5-3.1,81.4,10.1-8.7-52.4-20.2-79-35.9-83.9-18.1-5.5-40.7,18.1-66.8,45.5-16.4,17.1-35,36.6-55.1,51.5a298.3,298.3,0,0,1-68,37.5,380.7,380.7,0,0,1-74.6,20.2c-45.9,7.6-96.7,8.6-155.2,3.1-28.3-2.7-54.4-6.8-79.6-10.7C1673.9,983.9,1639.2,978.5,1603.7,978.5ZM-100.2,950A444.8,444.8,0,0,0-35,987.4a453,453,0,0,0,68.1,25.1c43.3,12.2,89.6,18.8,141.5,20a891.5,891.5,0,0,0,93.6-3.1,456.1,456.1,0,0,1-72.4-6.7c-44.3-7.8-85.8-21-126-33.8C16.4,971.9-38.9,954.3-100.2,950Z"/><path class="cls-2" d="M969.4,1185.2a271.4,271.4,0,0,1-65-8c-49.2-12.1-93.8-35.8-141-60.8-62.4-33.2-127-67.4-208.3-77.7-73.8-9.4-154.5-3-232.6,3.2-72.9,5.7-148.2,11.7-219.6,5.4-38.6-3.4-72.8-10-104.7-20.2a361.4,361.4,0,0,1-97.6-47.7l-.3-.2h.4c32.5-2.5,67.1-.7,105.9,5.6,34.5,5.6,69.2,14.2,102.7,22.5,50.1,12.4,101.9,25.2,155.2,28.7,55.7,3.6,114.2-4.1,170.8-11.6,36-4.8,73.2-9.7,109.3-11.6,40.5-2.2,75.2-.3,106.2,5.8,25.6,5,50.6,15.3,76.5,31.5,23,14.4,44.6,32.1,65.5,49.1,22.5,18.4,45.7,37.3,70.8,52.3,28.1,16.9,55.6,26.8,84.2,30.5,53.6,6.9,96.4-10,141.8-28,15-5.9,30.6-12,46.8-17.4,83.6-27.8,181-59.2,278.2-82,108.4-25.4,201.8-36.6,285.4-34.2l40.8,1.4c49.8,1.8,101.3,3.6,151.3.4,56-3.5,104.6-13.1,148.5-29.4,31.5-11.6,56.4-25.3,76.4-36.3,28.3-15.5,48.7-26.7,70.3-24s45.1,20.8,75.6,60.3l.5.7-.7-.5c-51.1-31.9-112.6-10.5-172,10.1-28,9.7-54.5,18.9-79.7,22.7-63.4,9.6-128.9,11.7-192.2,13.8-49.3,1.7-100.3,3.3-150,8.5-196.7,20.4-405.4,49-598.7,118.6-30.5,11-59.3,17-88.1,18.3ZM472.1,1033.6a663.6,663.6,0,0,1,83,4.8c81.4,10.3,146,44.6,208.4,77.7,47.2,25.1,91.8,48.7,141,60.8a267,267,0,0,0,77.5,7.7c28.8-1.3,57.6-7.3,88-18.3,193.3-69.6,402-98.1,598.8-118.6,49.7-5.2,100.7-6.8,150-8.5,63.3-2,128.8-4.2,192.2-13.8,25.1-3.8,51.6-12.9,79.6-22.7,59.2-20.5,120.5-41.8,171.5-10.4-30.1-39-52.5-56.8-74.8-59.6s-41.9,8.5-70.2,24c-20,11-44.8,24.6-76.4,36.3a447.7,447.7,0,0,1-73.9,20.3,605.8,605.8,0,0,1-74.7,9.1c-50,3.2-101.5,1.4-151.3-.4l-40.8-1.4c-83.6-2.4-176.9,8.8-285.4,34.2-97.1,22.7-194.5,54.2-278.1,82-16.2,5.3-31.8,11.5-46.8,17.4-45.4,18-88.3,34.9-142,28-28.5-3.7-56.1-13.7-84.3-30.5-25.1-15-48.3-34-70.7-52.3s-42.5-34.8-65.6-49.2c-25.8-16.1-50.8-26.4-76.4-31.4-30.9-6.1-65.6-8-106.1-5.8-36,1.9-73.3,6.8-109.3,11.6-56.6,7.5-115.1,15.2-170.9,11.6-53.3-3.5-105.1-16.3-155.2-28.7C75.7,999.2,41.1,990.6,6.5,985c-38.5-6.3-73-8.1-105.3-5.6a363.5,363.5,0,0,0,97.1,47.4c31.9,10.2,66.1,16.8,104.6,20.2,71.4,6.3,146.7.3,219.6-5.4C372.1,1037.7,422.8,1033.6,472.1,1033.6Z"/><path class="cls-2" d="M956.9,1198.3a214.6,214.6,0,0,1-41.2-4c-9.7-1.4-19.5-3.3-29.5-5.6-55.7-12.9-106.8-37.1-161-62.8-66.6-31.6-135.6-64.2-214.9-74.8-32.4-4.3-94.9,3.9-167.3,13.4-88.1,11.5-187.8,24.5-272.2,21.2-46.2-1.8-82.1-8.3-109.9-19.8-15.2-6.3-28-14.2-37.8-23.6a83.5,83.5,0,0,1-22.5-35v-.2h.2c87.1,6.8,169.9,17.1,257.6,28l39.8,4.9c59.1,7.3,119.6,4.9,178,2.6,63.1-2.5,128.4-5,192,4.6,33.6,5,65.9,14.8,101.9,30.7,31.6,14,61.1,30.5,92.3,48,26,14.6,52.8,29.7,80.9,43.1,26.1,12.4,49.7,20.6,72.5,25.1a328.9,328.9,0,0,0,55.7,3.5c35.3-2.3,71-12.7,116.9-26.8,71.5-22.1,153.6-42.9,250.7-63.6,85.7-18.2,171.8-33.9,255.1-49.2l26.2-4.8c40.5-7.4,201.3-26.6,351.3-35.2,136.1-7.8,301.6-9.1,317.5,28.8h-.1c-24.3,11.8-53.8,16.9-90.4,15.7-32.4-1.1-66.1-6.9-98.8-12.5s-61-10.5-88-11.3c-71.3-2.4-133.4-2.1-189.8.6-69.5,3.4-131.1,10.6-188.3,22s-113.4,21.2-168.8,30.8c-65.7,11.4-133.8,23.1-200,37.1-74.2,15.6-138.5,32.4-196.5,51.4-32.4,10.5-63.6,16.1-95.4,17h-1.5l-5,.2C963.3,1198.3,960.1,1198.3,956.9,1198.3Zm-33.7-2.9a217.8,217.8,0,0,0,40.2,2.6A341.8,341.8,0,0,1,923.2,1195.4Zm1186.2-181.5c-44.9,0-92.9,1.9-137.7,4.4-150.1,8.6-310.8,27.8-351.4,35.2l-26.1,4.8c-83.3,15.3-169.4,31-255.1,49.2-97.2,20.7-179.2,41.4-250.8,63.5-43.1,13.4-77.2,23.3-110.3,26.4a339.4,339.4,0,0,0,90.4-16.9c57.9-18.9,122.2-35.8,196.5-51.4,66.2-13.9,134.2-25.7,200-37.1,55.3-9.6,112.6-19.5,168.8-30.8s118.7-18.6,188.3-22c56.4-2.7,118.5-3,189.8-.6,27.1.8,56.7,5.9,88,11.3s66.5,11.4,98.8,12.5c36.5,1.2,66-3.9,90.2-15.6C2278,1021.6,2200.3,1013.9,2109.4,1013.9ZM488.9,1049.7a171.9,171.9,0,0,1,21.5,1.1c79.3,10.6,148.3,43.3,215,74.9,54.1,25.6,105.2,49.8,160.9,62.7,7.9,1.9,15.7,3.4,23.5,4.7-21.1-4.6-42.9-12.5-66.7-23.9-28.1-13.3-55-28.4-80.9-43-31.2-17.5-60.7-34-92.4-48.1-35.9-15.8-68.2-25.6-101.7-30.6-63.7-9.6-128.9-7.1-192-4.6-58.4,2.3-118.9,4.7-178-2.6l-39.9-4.9c-87.6-10.9-170.3-21.1-257.3-28a84.9,84.9,0,0,0,22.4,34.7c9.8,9.3,22.5,17.3,37.8,23.6,27.7,11.4,63.6,17.9,109.7,19.7,84.3,3.3,184.1-9.7,272.1-21.2C401.7,1056.5,453.9,1049.7,488.9,1049.7Z"/><path class="cls-2" d="M907.6,1222.9c-41.8,0-85-5.8-130.1-17.2-89.9-22.8-177.3-65.6-258.3-108.5a259.2,259.2,0,0,0-69.5-24.5q-9.4-2-19.2-3.3t-22.5-1.8q-14.4-1-28.8-1.5h-3.1c-50,.2-102.4,8.4-153,16.4-58.1,9.1-118.2,18.6-173.2,15.3-29.6-1.7-55.6-6.9-79.4-15.7a215.8,215.8,0,0,1-71.3-43.8l-.3-.3h.4c42,2.5,84.4,7.9,125.3,13.1s84.6,10.8,127.3,13.2c40.4,2.3,82.2,1.7,122.5,1.2,34.5-.5,69.8-1,104.8.3a360.2,360.2,0,0,1,51.3,3.4c40.2,4,75.7,11.2,108,21.8,43,14.2,83.2,29.8,122.1,45,142.2,55.2,264.9,103,432.4,42,46.9-17,99.5-31,160.8-42.8,54.7-10.4,111.1-18.1,165.6-25.6,69.9-9.6,142.2-19.5,211.3-35.2,60.2-13.7,125.1-23.3,193-28.7a1624.9,1624.9,0,0,1,195.2-3.5l33.9.8c79.2,1.4,226.5,4,255.3,45.2v.2h-.2c-30.3,14.1-70.1,18.5-121.7,13.7-45.6-4.3-94.5-15.2-141.9-25.7-56.5-12.6-109.9-24.4-153.3-24.4a882,882,0,0,0-150.3,12.4,906.7,906.7,0,0,0-145.9,37.9c-39.7,13.8-83.4,24.2-133.5,31.9-44.6,6.9-90.2,11-134.3,15s-91.4,8.2-137.1,15.3c-51.3,8-96.1,18.9-136.9,33.3A430.1,430.1,0,0,1,907.6,1222.9ZM437.3,1070.2c4.2.6,8.3,1.4,12.4,2.2a255.5,255.5,0,0,1,69.6,24.6c81,42.8,168.4,85.7,258.3,108.4,99.4,25.2,189.5,22.7,275.4-7.7,40.8-14.5,85.6-25.4,136.9-33.4,45.7-7.1,92.2-11.3,137.2-15.3s89.6-8.1,134.3-15c50-7.7,93.7-18.1,133.4-31.9a906.7,906.7,0,0,1,145.9-37.9,894.4,894.4,0,0,1,150.4-12.4c43.4,0,96.8,11.8,153.4,24.4,47.3,10.5,96.3,21.4,141.8,25.7,51.5,4.8,91.2.4,121.4-13.6-28.9-41-175.9-43.6-254.9-45l-33.9-.8a1604.5,1604.5,0,0,0-195.2,3.5c-67.9,5.3-132.8,15-192.9,28.7-69.2,15.7-141.5,25.6-211.3,35.2-54.6,7.4-111,15.2-165.6,25.6-61.4,11.7-114,25.7-160.8,42.8-55.6,20.2-106.2,28.5-154.3,28.5-96.9,0-183.2-33.6-278.3-70.6-38.9-15.1-79.1-30.7-122.1-44.9C508,1081.3,474.7,1074.3,437.3,1070.2Zm-537.6-31.8a215.6,215.6,0,0,0,70.9,43.4c23.8,8.9,49.7,14,79.3,15.7,55,3.3,115.1-6.2,173.1-15.3,49.1-7.7,99.8-15.7,148.5-16.4-32.5-.9-65.2-.5-97.1,0-40.3.5-82.1,1.1-122.5-1.2-42.7-2.4-85.7-7.9-127.3-13.2S-58.4,1040.8-100.3,1038.4Zm490.2,27.8,18.1,1.1,12.7.9C410.8,1067.2,400.6,1066.5,389.9,1066.2Z"/><path class="cls-2" d="M875.3,1258.5c-37.4.1-75.7-6-117.9-18.4-56-16.5-105.3-45.8-153-74.1-43.2-25.6-87.8-52-136-67.9-19-6.2-47.4-7.6-89.5-4.4-37.5,2.9-80.8,9.1-126.7,15.7-70.7,10.1-145.8,20.8-209.6,20.8-73.2,0-131.4-14.1-150.8-59.6v-.2h.2c35.5,5.3,75.9,7.5,123.5,6.6,42.6-.8,87-3.8,129.9-6.8,67.1-4.6,136.4-9.3,202-5.8,35.3,2,66.7,6.1,95.8,12.7,32.7,7.4,61.8,17.6,89,31.3l39.7,20.2c85.3,43.5,159,81.1,236.8,98.4,41.2,9.2,80.8,12.1,121.2,8.8,44.2-3.6,89.1-14.4,137.4-33.2,42.1-16.4,89.6-29,145.3-38.8,49.6-8.7,101.2-14.3,151.1-19.7,82.2-8.9,167.2-18.2,247.4-41.4a1077.1,1077.1,0,0,1,161.7-33.7,1175.9,1175.9,0,0,1,165.1-9.1c33.3.5,326.3,6.3,377,62.2l.2.2h-.2c-66.5,17.7-145.9-2.9-222.6-22.8-41.2-10.7-80.1-20.8-115.7-24.7-60.3-6.6-119.1-8-174.6-4.1-59.7,4.1-117.4,14.5-171.6,30.9s-109.2,32.5-163.9,44.3a957,957,0,0,1-169.2,21.1c-50,1.8-85.5,5.1-119,11a507.5,507.5,0,0,0-113.7,34c-59.7,25.6-106,39.3-150,44.3A343.4,343.4,0,0,1,875.3,1258.5ZM418,1091.7c21.6,0,38.1,2,50.5,6.1,48.2,15.9,92.9,42.4,136,68,47.7,28.3,97.1,57.5,152.9,74s106.9,21.9,157,16.2c44.1-5,90.3-18.6,150-44.2a501.9,501.9,0,0,1,113.8-34.1c33.4-5.9,69-9.2,118.9-11a958.1,958.1,0,0,0,169.3-21.1c54.6-11.7,108.7-27.7,163.9-44.3s111.8-26.8,171.6-30.9c55.5-3.9,114.3-2.5,174.7,4.1,35.6,3.9,74.5,14,115.6,24.7,76.7,19.9,155.9,40.5,222.3,22.9-11.1-12-34.3-22.6-69.3-31.4-29.2-7.5-66.7-13.7-111.6-18.7-88.4-9.8-178.6-11.5-195.8-11.8a1175.9,1175.9,0,0,0-165.1,9.1,1090.8,1090.8,0,0,0-161.6,33.6c-80.3,23.3-165.3,32.6-247.5,41.5-49.9,5.4-101.4,11-151.1,19.7-55.7,9.7-103.1,22.4-145.2,38.8-48.3,18.7-93.3,29.6-137.5,33.2-40.4,3.3-80.1.4-121.3-8.8-77.8-17.3-151.5-54.9-236.8-98.4-12.9-6.6-26.2-13.4-39.8-20.2-27.1-13.7-56.2-23.9-88.9-31.3-29.1-6.6-60.4-10.7-95.7-12.7-65.6-3.5-134.9,1.2-202,5.8-42.9,3-87.3,6-129.9,6.8-47.5.9-87.8-1.3-123.3-6.5,19.6,45.1,77.6,59.2,150.5,59.2,63.7,0,138.8-10.8,209.5-20.9,45.9-6.6,89.3-12.8,126.8-15.7C393.5,1092.3,406.5,1091.7,418,1091.7Z"/><path class="cls-2" d="M827.1,1287.8h-1.6c-63.4-.2-127.4-10.7-185.1-30.6-21.8-7.5-41.9-18.3-61.6-32.9-17.5-13.1-33.1-28-48.2-42.5-25.4-24.2-51.6-49.3-88.2-67a209.7,209.7,0,0,0-64.1-19.2c-20.3-2.9-41.7-3.1-65.3-.8-43.8,4.3-88.7,17-132.1,29.2-50.5,14.3-102.6,29-152.4,30.1-26.8.7-50.8-2.6-73.5-9.8-25.4-8.2-48.5-21.2-70.6-39.7l-.4-.4h.5c66.3,8.8,144.2-1.8,226.7-13.2,132.3-18.1,269-36.8,363.5,27l35.4,24.3c39.2,27,70.2,48.3,106.2,66.7,38.9,20,80,34.5,133.2,47.3,114.8,27.5,194,20,302.6-28.6,62.6-28,115.6-42.6,171.9-47.4,23.9-2.1,46.9-3.8,69-5.5,56-4.3,108.8-8.3,161.5-15.9a998.1,998.1,0,0,0,164.6-37.6c97.9-31.4,197.1-47.1,295.8-47.1q31.2,0,62.4,2.1c20.3,1.4,99.6,9.1,176.2,21.8,43.5,7.3,78.5,14.9,104.1,22.6,31.2,9.5,48.2,19.3,50.6,29v.2h-.1c-34.8,4.4-73,3-116.8-4.2-39.1-6.4-78.9-16.8-117.4-26.8-60.6-15.8-123.2-32.2-184.6-33.6-52-1.2-100.7,4.8-153,18.9-49,13.2-97.9,32.7-145.1,51.5-94.6,37.7-166.6,33.5-250,28.6-31-1.8-63-3.7-98.8-3.7h-2.2c-68.3.2-112.5,21.2-163.8,45.5-20.8,9.9-42.3,20.1-66.9,29.6a474.2,474.2,0,0,1-89.5,24.3A555.5,555.5,0,0,1,827.1,1287.8ZM343.7,1092.9a244.5,244.5,0,0,1,34.7,2.4,210.7,210.7,0,0,1,64.1,19.3c36.7,17.7,62.9,42.8,88.3,67,15.1,14.5,30.7,29.4,48.2,42.5a223.1,223.1,0,0,0,61.5,32.8c57.7,19.9,121.6,30.5,185,30.6h1.6a555.5,555.5,0,0,0,92.9-7.7,463.8,463.8,0,0,0,89.4-24.3c24.6-9.5,46.1-19.7,66.8-29.5,25.4-12,49.3-23.4,75.4-31.8a284.2,284.2,0,0,1,31.7-8.2c-42,7.4-83.8,20.9-131,42-108.7,48.7-188,56.2-302.9,28.7-53.2-12.8-94.3-27.4-133.2-47.3-36.1-18.5-67-39.8-106.2-66.8l-35.5-24.2c-94.3-63.8-231-45.1-363.2-27-82.4,11.3-160.1,22-226.3,13.3,21.9,18.3,44.9,31.2,70.1,39.3,22.6,7.2,46.6,10.5,73.4,9.8,49.7-1.1,101.9-15.8,152.3-30.1,43.5-12.2,88.4-24.9,132.2-29.2C323.7,1093.5,333.9,1092.9,343.7,1092.9Zm898.7,87.5c35.8,0,67.8,1.9,98.8,3.7,83.3,4.9,155.3,9.1,249.8-28.5,47.3-18.9,96.2-38.3,145.2-51.6,52.4-14.1,101-20.1,153.1-18.9,61.4,1.4,124.1,17.8,184.7,33.6,38.5,10,78.3,20.4,117.3,26.8,43.7,7.2,81.8,8.6,116.6,4.2-2.5-9.5-19.5-19.2-50.4-28.6-25.6-7.7-60.6-15.3-104.1-22.6-76.5-12.7-155.8-20.4-176.1-21.8-119.1-8.1-239.5,7-358.1,44.9a987,987,0,0,1-164.7,37.7c-52.6,7.6-105.5,11.6-161.4,15.9-22.2,1.7-45.1,3.4-69.1,5.5l-7.4.7c7.7-.6,15.5-.9,23.6-1Z"/></g></svg>