<svg xmlns="http://www.w3.org/2000/svg" viewBox="0 0 85.07 25.93"><defs><style>.cls-1{fill:#ecc575;}</style></defs><g id="Layer_2" data-name="Layer 2"><g id="Layer_1-2" data-name="Layer 1"><path class="cls-1" d="M3.73,9.79c.93-3.82,5.75-3.32,8.45-2,3.45,1.74,6,4.82,9.45,6.4a11.21,11.21,0,0,0,9.71.23c2.54-1.25,4.43-3.47,6.34-5.49C39.34,7.18,41.33,5.07,44,6.11s4.32,3.52,6.38,5.13C52.55,13,55.12,14.1,58,13.64S63.18,11,65.2,8.89c2.36-2.5,4.86-4.81,8.57-4.06,3.43.68,5.16,3.24,6.57,6.16,1.06,2.2,5,1.21,4.71-1.27C84.34,2.9,76.48-.94,70.2.2c-3.49.63-5.86,3-8.33,5.37s-4.86,4.35-8,2.09C51.3,5.85,49.4,3.2,46.53,1.78a8.88,8.88,0,0,0-8.83.48C35,4,33.22,6.78,30.81,8.9,27.27,12,23.2,10.08,19.7,7.85s-7.24-5.17-11.64-5C4.43,3,.94,5.07.06,8.75c-.58,2.41,3.14,3.44,3.72,1Z"/><path class="cls-1" d="M3.73,20.34c.93-3.83,5.75-3.32,8.45-2,3.42,1.71,6,4.74,9.45,6.37a11.18,11.18,0,0,0,9.71.22c2.54-1.25,4.43-3.46,6.34-5.48,1.66-1.75,3.65-3.87,6.27-2.82s4.32,3.51,6.38,5.12c2.22,1.73,4.79,2.87,7.65,2.4s5.2-2.6,7.22-4.74c2.36-2.5,4.86-4.81,8.57-4.07,3.43.69,5.16,3.25,6.57,6.17,1.06,2.2,5,1.2,4.71-1.27-.71-6.82-8.57-10.66-14.85-9.52-3.49.63-5.86,3-8.33,5.37s-4.86,4.35-8,2.09c-2.57-1.82-4.47-4.46-7.34-5.88a8.85,8.85,0,0,0-8.83.48c-2.73,1.76-4.48,4.52-6.89,6.63-3.54,3.11-7.61,1.19-11.11-1s-7.24-5.17-11.64-5c-3.63.16-7.12,2.22-8,5.89-.58,2.42,3.14,3.45,3.72,1Z"/></g></g></svg>